<svg width="24" height="24" viewBox="0 0 24 24" fill="none" xmlns="http://www.w3.org/2000/svg">
<path d="M20.0282 19.3944L12.6338 12L20.0282 4.60563C21.1268 4.26761 22.9859 3.50704 23.8732 2.23944C23.9155 2.15493 24 2.07042 24 1.98592C23.493 1.98592 22.9859 1.8169 22.6056 1.43662C22.2254 1.05634 22.0141 0.549296 22.0563 0.0422535C21.9718 0.084507 21.8873 0.126761 21.8028 0.169014C20.5352 1.01408 19.7746 2.87324 19.4366 4.01408L12 11.3662L4.60563 3.97183C4.26761 2.87324 3.50704 1.01408 2.23944 0.126761C2.15493 0.084507 2.07042 0.0422535 1.98592 0C1.98592 0.507042 1.8169 1.01408 1.43662 1.39437C1.01408 1.8169 0.507042 1.98592 0 1.98592C0.0422535 2.07042 0.084507 2.15493 0.126761 2.23944C0.971831 3.50704 2.83099 4.26761 3.97183 4.60563L11.3662 12L3.97183 19.3944C2.87324 19.7324 1.01408 20.493 0.126761 21.7606C0.084507 21.8451 0 21.9296 0 22.0141C0.507042 22.0141 1.01408 22.1831 1.39437 22.5634C1.77465 22.9437 1.98592 23.4507 1.94366 23.9577C2.02817 23.9155 2.11268 23.8732 2.19718 23.831C3.46479 22.9859 4.22535 21.1268 4.56338 19.9859L11.9577 12.5915L19.3521 19.9859C19.6901 21.0845 20.4507 22.9437 21.7183 23.831C21.8028 23.8732 21.8873 23.9577 21.9718 23.9577C21.9718 23.4507 22.1408 22.9437 22.5211 22.5634C22.9014 22.1831 23.4084 21.9718 23.9155 22.0141C23.8732 21.9296 23.831 21.8451 23.7887 21.7606C23.0282 20.493 21.169 19.7324 20.0282 19.3944Z" fill="#1A1A1A" fill-opacity="0.5"/>
</svg>
