<svg width="22" height="55" viewBox="0 0 22 55" fill="none" xmlns="http://www.w3.org/2000/svg">
<mask id="path-1-inside-1" fill="white">
<path d="M21.1 54.5048H0L10.6 27.7048L0 0.00476074H21.1"/>
</mask>
<path d="M0 54.5048L-1.85981 53.7692L-2.9418 56.5048H0V54.5048ZM10.6 27.7048L12.4598 28.4404L12.746 27.7167L12.4679 26.99L10.6 27.7048ZM0 0.00476074V-1.99524H-2.90678L-1.86791 0.719555L0 0.00476074ZM21.1 52.5048H0V56.5048H21.1V52.5048ZM1.85981 55.2404L12.4598 28.4404L8.74019 26.9692L-1.85981 53.7692L1.85981 55.2404ZM12.4679 26.99L1.86791 -0.710033L-1.86791 0.719555L8.7321 28.4196L12.4679 26.99ZM0 2.00476H21.1V-1.99524H0V2.00476Z" fill="#D5A353" mask="url(#path-1-inside-1)"/>
</svg>
