<svg width="22" height="55" viewBox="0 0 22 55" fill="none" xmlns="http://www.w3.org/2000/svg">
<mask id="path-1-inside-1" fill="white">
<path d="M-2.28882e-05 54.5048H21.1L10.5 27.7048L21.1 0.00476074H-2.28882e-05"/>
</mask>
<path d="M21.1 54.5048L22.9598 53.7692L24.0418 56.5048H21.1V54.5048ZM10.5 27.7048L8.64016 28.4404L8.35396 27.7167L8.63207 26.99L10.5 27.7048ZM21.1 0.00476074V-1.99524H24.0068L22.9679 0.719555L21.1 0.00476074ZM-2.28882e-05 52.5048H21.1V56.5048H-2.28882e-05V52.5048ZM19.2402 55.2404L8.64016 28.4404L12.3598 26.9692L22.9598 53.7692L19.2402 55.2404ZM8.63207 26.99L19.2321 -0.710033L22.9679 0.719555L12.3679 28.4196L8.63207 26.99ZM21.1 2.00476H-2.28882e-05V-1.99524H21.1V2.00476Z" fill="#D5A353" mask="url(#path-1-inside-1)"/>
</svg>
