<svg width="47" height="41" viewBox="0 0 47 41" fill="none" xmlns="http://www.w3.org/2000/svg">
<path d="M46.2 35.7047C45.7 35.3047 44.9 35.4047 44.5 35.9047C43.6 37.0047 42.2 37.7047 40.8 37.7047C39.5 37.7047 38.3 37.2047 37.4 36.3047C38 35.5047 38.3 34.6047 38.3 33.5047C38.3 30.9047 36.2 28.7047 33.5 28.7047C32.8 28.7047 32.1 28.9047 31.5 29.2047L22.2 19.9047L37.4 2.30474C37.8 1.90474 37.8 1.20474 37.4 0.804738L37.2 0.604738C36.8 0.204738 36.1 0.204738 35.7 0.604738L19 16.5047C19 16.5047 19 16.6047 18.9 16.6047L2.9 0.404738C2.5 -0.0952625 1.8 -0.0952625 1.4 0.204738L1.2 0.404738C0.8 0.804738 0.7 1.40474 1.1 1.90474L15.3 19.6047C15.3 19.6047 15.6 19.9047 16 20.3047L7.1 29.2047C6.4 28.8047 5.6 28.6047 4.8 28.6047C2.2 28.6047 0 30.7047 0 33.4047C0 36.0047 2.1 38.2047 4.8 38.2047C7.5 38.2047 9.6 36.1047 9.6 33.4047C9.6 32.5047 9.3 31.6047 8.9 30.9047L18.1 21.7047L18.2 21.6047C18.9 21.8047 19.6 22.0047 20.4 21.8047L29.7 30.8047C29.2 31.5047 28.9 32.4047 28.9 33.4047C28.9 36.0047 31 38.2047 33.7 38.2047C34.4 38.2047 35.1 38.0047 35.8 37.7047C37.1 39.1047 39 40.0047 41 40.0047C43.2 40.0047 45.2 39.0047 46.6 37.3047C46.8 36.8047 46.7 36.1047 46.2 35.7047ZM4.7 36.4047C3.1 36.4047 1.8 35.1047 1.8 33.5047C1.8 31.9047 3.1 30.6047 4.7 30.6047C6.3 30.6047 7.6 31.9047 7.6 33.5047C7.6 35.1047 6.3 36.4047 4.7 36.4047ZM30.6 33.4047C30.6 31.8047 31.9 30.5047 33.5 30.5047C35.1 30.5047 36.4 31.8047 36.4 33.4047C36.4 35.0047 35.1 36.3047 33.5 36.3047C31.9 36.3047 30.6 35.1047 30.6 33.4047Z" fill="#D5A353"/>
</svg>
