<svg width="73" height="45" viewBox="0 0 73 45" fill="none" xmlns="http://www.w3.org/2000/svg">
<path d="M70.5705 6.97891C64.7356 7.37316 60.7143 5.83559 58.2699 4.4163L57.5603 6.66351C57.2449 7.64914 57.6786 8.75303 58.6642 9.14728C61.2268 10.2512 64.5779 11.1185 68.7964 11.1185C69.4272 11.1185 70.0974 11.0791 70.7676 11.0397C71.8321 10.9608 72.7783 10.1329 72.7783 9.029C72.8177 7.84626 71.7927 6.90006 70.5705 6.97891Z" fill="#D5A353"/>
<path d="M55.3919 0.237262C53.9332 -0.393535 52.2379 0.276687 51.6466 1.73541L51.5677 1.89311C51.5677 1.89311 51.2523 2.6816 50.6609 4.02205C50.3455 4.69227 49.9513 5.48077 49.4782 6.38754C49.2416 6.82121 48.9657 7.29431 48.6897 7.80683C48.532 8.04338 48.4137 8.31936 48.256 8.5559C48.0983 8.79245 47.9406 9.06843 47.7435 9.3444C47.3887 9.85693 47.0733 10.4089 46.679 10.9608C46.2848 11.5128 45.8905 12.0647 45.4569 12.6561C44.9838 13.208 44.5501 13.76 44.077 14.3514C43.5645 14.9033 43.0519 15.4553 42.5394 16.0466C41.9875 16.5986 41.4355 17.1505 40.8442 17.7025C40.2528 18.2544 39.6614 18.8064 39.0306 19.3189C37.769 20.3834 36.468 21.4084 35.0881 22.3546C33.7477 23.3402 32.3284 24.2076 30.9091 25.0749C29.4898 25.9028 28.0705 26.6913 26.6512 27.3616C25.2319 28.0712 23.852 28.6626 22.5116 29.2145C21.1712 29.7665 19.9096 30.2396 18.7268 30.6338C16.3613 31.4617 14.3507 32.0137 12.9708 32.3291C12.2611 32.4868 11.7486 32.6051 11.3938 32.6839C11.3149 32.6839 11.2361 32.7233 11.1572 32.7233C11.1178 32.7233 11.0784 32.7233 11.039 32.7628C10.9601 32.7628 10.9207 32.8022 10.9207 32.8022C10.7236 32.8416 10.5264 32.881 10.3687 32.9205C7.33303 33.7878 5.55891 36.9418 6.42626 39.9775C7.29361 43.0132 10.4476 44.7873 13.4833 43.92C13.4833 43.92 13.5622 43.92 13.6804 43.8806C13.7593 43.8411 13.8381 43.8411 13.9564 43.8017C14.0353 43.7623 14.1535 43.7623 14.2718 43.7229C14.7449 43.5652 15.3757 43.368 16.2036 43.0921C17.82 42.5007 20.1067 41.6728 22.7087 40.4506C24.0097 39.8592 25.429 39.1496 26.8878 38.4005C28.3465 37.612 29.8446 36.7841 31.3822 35.7985C32.9198 34.8523 34.4573 33.8272 35.9949 32.7233C37.5325 31.58 39.0306 30.4367 40.4893 29.1357C41.948 27.8741 43.3279 26.5336 44.6684 25.1538C45.3386 24.4835 45.93 23.7345 46.5608 23.0642C47.1521 22.3546 47.7435 21.645 48.2954 20.9353C48.8474 20.2257 49.3599 19.4766 49.8724 18.8064C50.3455 18.0967 50.8186 17.3871 51.2917 16.6774C51.7254 15.9678 52.1197 15.2581 52.5139 14.5879C52.9081 13.9177 53.2235 13.2475 53.5784 12.6167C53.7361 12.3013 53.8938 11.9859 54.0515 11.6705C54.2092 11.3551 54.3274 11.0397 54.4851 10.7637C54.7611 10.1723 54.9977 9.58095 55.2342 9.06843C55.6285 7.96453 56.0227 7.01834 56.2987 6.22984C56.8112 4.61342 57.0872 3.70665 57.0872 3.70665C57.442 2.32678 56.7324 0.828635 55.3919 0.237262ZM12.1429 40.5295C10.9601 40.5295 10.0139 39.5833 10.0139 38.4005C10.0139 37.2178 10.9601 36.2716 12.1429 36.2716C13.3256 36.2716 14.2718 37.2178 14.2718 38.4005C14.2718 39.5833 13.3256 40.5295 12.1429 40.5295ZM54.1697 4.14032C53.6178 4.14032 53.1841 3.70665 53.1841 3.1547C53.1841 2.60275 53.6178 2.16908 54.1697 2.16908C54.7217 2.16908 55.1554 2.60275 55.1554 3.1547C55.1554 3.70665 54.7217 4.14032 54.1697 4.14032Z" fill="white"/>
<path d="M36.7045 1.38058H25.6262H1.89239C0.867347 1.38058 0 2.2085 0 3.27297V8.27993C0 9.3444 0.867347 10.1723 1.89239 10.1723H31.3822C32.1313 10.1723 32.8015 9.73864 33.1169 9.06842L34.4573 6.22983H43.5645C46.2848 6.22983 48.7291 4.65284 49.8724 2.2085C50.109 1.69598 50.2667 1.34115 50.2667 1.34115H36.7045V1.38058Z" fill="#D5A353"/>
</svg>
