<svg width="17" height="69" viewBox="0 0 17 69" fill="none" xmlns="http://www.w3.org/2000/svg">
<path d="M1.70517 22.3739V28.1611V35.0334V40.3039V47.1763V52.8085V59.5258H2.06687H15.2948V22.3739H14.9848H1.70517ZM3.35867 27.4377L11.0578 24.079H13.5897V29.8146L3.35867 34.2584V27.4377ZM3.35867 39.5805L13.5897 35.1368V42.0091L3.35867 46.4529V39.5805ZM3.35867 57.8207V52.0851L13.538 47.6413V54.5137L5.89058 57.8207H3.35867Z" fill="#D5A353"/>
<path d="M1.70517 20.8237H15.2948C16.2249 20.8237 17 20.0486 17 19.1185C17 18.1885 16.2249 17.4134 15.2948 17.4134H1.70517C0.775076 17.4134 0 18.1885 0 19.1185C0 20.0486 0.775076 20.8237 1.70517 20.8237Z" fill="white"/>
<path d="M15.2948 60.921H1.70517C0.775076 60.921 0 61.6961 0 62.6261C0 63.5562 0.775076 64.3313 1.70517 64.3313H15.2948C16.2249 64.3313 17 63.5562 17 62.6261C16.9483 61.6961 16.2249 60.921 15.2948 60.921Z" fill="white"/>
<path d="M4.34042 13.8997V16.2249H12.6596V13.8997C14.7264 12.5562 16.0699 10.231 16.0699 7.59574C16.0699 3.41033 12.6596 0 8.47416 0C4.28875 0 0.930084 3.41033 0.930084 7.54407C0.930084 10.1793 2.27355 12.5046 4.34042 13.8997ZM3.72036 5.73556C3.77203 5.52887 3.8237 5.32219 3.92704 5.06383C4.03039 4.85714 4.13373 4.65046 4.28875 4.44377C4.44376 4.23708 4.59878 4.03039 4.75379 3.82371C4.96048 3.66869 5.11549 3.46201 5.37385 3.35866C5.58054 3.20365 5.78723 3.1003 6.04559 2.99696C6.25227 2.89362 6.51063 2.84194 6.71732 2.79027C6.92401 2.7386 7.13069 2.7386 7.33738 2.7386C7.54407 2.7386 7.69908 2.7386 7.8541 2.79027C8.00911 2.79027 8.11245 2.84194 8.2158 2.89362C8.42248 2.94529 8.52583 2.99696 8.52583 2.99696C8.52583 2.99696 8.37081 3.04863 8.16413 3.1003C7.95744 3.20365 7.69908 3.30699 7.44072 3.46201C7.28571 3.51368 7.13069 3.61702 7.02735 3.72036C6.87233 3.82371 6.71732 3.92705 6.5623 4.03039C6.40729 4.13374 6.25227 4.23708 6.09726 4.3921C5.99391 4.49544 5.8389 4.65046 5.68388 4.80547C5.52887 4.96049 5.42552 5.06383 5.27051 5.21884C5.11549 5.37386 5.01215 5.52887 4.90881 5.68389C4.80546 5.8389 4.70212 5.99392 4.59878 6.14894C4.49543 6.30395 4.39209 6.45897 4.34042 6.56231C4.1854 6.82067 4.03039 7.07903 3.97872 7.28571C3.87537 7.4924 3.8237 7.59574 3.8237 7.59574C3.8237 7.59574 3.8237 7.44073 3.77203 7.23404C3.72036 7.1307 3.72036 7.02735 3.66869 6.87234C3.66869 6.71732 3.61701 6.56231 3.61701 6.35562C3.66869 6.14894 3.66869 5.94225 3.72036 5.73556Z" fill="white"/>
<path d="M8.47417 68.9818C11.9362 68.9818 14.7264 67.5866 14.7264 65.8298H2.27356C2.27356 67.535 5.06383 68.9818 8.47417 68.9818Z" fill="white"/>
</svg>
