<svg width="54" height="88" viewBox="0 0 54 88" fill="none" xmlns="http://www.w3.org/2000/svg">
<path d="M52.3569 43.0576C54.5662 41.8254 54.2946 41.2636 52.9908 39.9407C52.9908 39.9407 51.8137 41.481 48.6628 40.9555C45.5119 40.43 45.5843 43.2207 48.5179 43.257C51.4515 43.2932 53.8419 50.8501 46.9606 50.5964C46.9606 50.5964 51.4515 51.7743 52.194 47.9324C52.2845 47.4975 52.3207 47.1351 52.3207 46.7908C52.6105 47.7693 52.3388 49.0379 52.3388 49.0379C53.2986 47.57 52.4113 45.6853 51.9223 44.8698C51.4877 44.0181 51.0531 43.7825 52.3569 43.0576ZM51.2523 50.4514C51.2523 50.4514 51.2523 50.4876 51.2342 50.5782C51.2342 50.6145 51.2161 50.6688 51.2161 50.7232C51.198 50.7776 51.1799 50.8501 51.1618 50.9226C51.1074 51.0675 51.0169 51.2306 50.8901 51.4118C50.7453 51.5749 50.5461 51.738 50.3107 51.8468L50.2744 51.8649C50.2744 51.8649 50.2744 51.8649 50.2744 51.883C50.2926 51.9011 50.3107 51.9193 50.3288 51.9374C50.4736 52.1367 50.6547 52.3723 50.7815 52.6441L50.872 52.8435C50.9083 52.916 50.9264 52.9885 50.9445 53.0609C50.9988 53.2059 51.0169 53.3509 51.0531 53.4959C51.0712 53.6408 51.0893 53.7858 51.0893 53.9308C51.0893 54.0758 51.0712 54.2207 51.0712 54.3476C51.0712 54.3476 51.0169 54.1664 50.9264 53.8764C50.8177 53.5865 50.6547 53.2059 50.4012 52.8435C50.2744 52.6623 50.1115 52.4629 49.9666 52.2455C49.8217 52.0642 49.6769 51.8649 49.5501 51.6837L49.532 51.6474C49.532 51.6293 49.5682 51.6293 49.5682 51.6293L49.6587 51.5931L49.8579 51.5387L50.0571 51.4843C50.1477 51.4481 50.1477 51.4481 50.1839 51.4481C50.4193 51.3756 50.6185 51.2487 50.7996 51.0857C50.9445 50.8863 51.0893 50.6688 51.2523 50.4514ZM50.6185 43.257C49.7312 42.9489 49.7674 42.5321 48.7533 42.7315C48.7533 42.7315 50.7815 42.0609 51.4153 42.4596C51.8499 42.7315 51.6145 43.6013 50.6185 43.257Z" fill="white"/>
<path d="M48.8982 47.4069C48.8982 47.4069 46.1276 54.4563 39.6447 51.1763C39.6447 51.1763 37.3992 49.7084 37.2 47.4432C37.2 47.4432 40.2603 53.3328 45.7111 48.9473C45.7111 48.9473 45.041 50.3427 43.9002 50.8319C42.7593 51.3394 46.3086 52.0461 48.8982 47.4069Z" fill="#D5A353"/>
<path d="M48.7533 43.6013C48.7533 43.6013 45.874 43.6557 43.0129 45.8122C40.1336 47.9687 37.7976 47.2075 37.8519 45.0329C37.9062 42.8583 41.3107 41.9884 41.528 44.3443C41.528 44.3443 42.3066 42.6227 39.4998 42.369C36.693 42.1334 35.7332 46.8451 39.2644 47.8056C42.7593 48.7841 44.9867 44.598 48.7533 43.6013Z" fill="#D5A353"/>
<path d="M51.035 54.257C51.035 54.257 50.7815 57.0297 47.7211 56.5766C44.6607 56.1236 45.4032 52.3905 47.1054 51.2125C47.1054 51.2125 45.4032 51.6474 44.3348 53.4596C43.2664 55.2718 44.7694 57.9358 47.7392 57.9358C50.7272 57.9358 48.373 66.0363 41.872 62.3031C41.872 62.3031 48.3368 66.5437 50.0209 62.0313C50.0209 62.0313 50.2563 62.9555 49.6587 63.4267C49.6587 63.4267 52.9545 60.7084 51.035 54.257Z" fill="#D5A353"/>
<path d="M18.204 43.9637C18.204 43.9637 20.6487 42.5683 22.1517 47.4794C23.6366 52.3904 26.8418 57.7183 40.8036 61.6688C40.8036 61.6688 35.2624 61.6688 27.9102 57.9357C20.5581 54.2026 21.4092 45.9753 18.204 43.9637Z" fill="white"/>
<path d="M44.2624 16.056C44.2624 16.056 40.8036 18.4844 36.0229 16.346C36.0229 16.346 29.8479 19.8435 23.4555 14.0989C17.0632 8.3361 21.3187 -0.561763 27.5662 1.05109C27.5662 1.05109 22.2422 0.344333 21.4455 5.50908C20.4133 12.1417 29.0873 15.7661 32.1658 15.5124C32.1658 15.5124 25.5018 10.6919 26.0269 6.19771C26.5521 1.7216 31.3509 -0.0905931 34.7734 2.1384C34.7734 2.1384 29.3408 1.17794 28.0551 4.69359C26.7694 8.20924 31.043 14.0445 33.9766 15.3493C33.9766 15.3493 29.7573 12.486 31.2603 7.35751C32.709 2.24713 37.2905 1.70348 39.6446 3.09886C39.6446 3.09886 34.9907 1.48601 33.035 6.72325C31.0793 11.9605 35.5883 15.2587 38.7935 15.5849C38.7935 15.5849 35.4978 14.7875 34.9545 9.93082C34.2121 3.15323 44.1899 0.144993 46.4535 8.13676C48.7171 16.1285 39.6446 13.5733 41.3469 10.6919C41.3469 10.6919 42.0712 12.8122 43.9002 12.341C45.7292 11.8699 46.9968 5.29161 40.532 4.87481C35.4072 4.53049 32.6004 16.4547 44.2624 16.056Z" fill="#D5A353"/>
<path d="M22.8942 0.217468C22.8942 0.217468 18.204 2.66393 18.8378 8.00989C19.4716 13.3377 22.3509 15.911 26.9324 16.8715C26.9324 16.8715 17.4435 15.8567 17.4435 7.37562C17.4616 1.39539 22.8942 0.217468 22.8942 0.217468Z" fill="#D5A353"/>
<path d="M22.5863 15.8929C22.5863 15.8929 19.7614 17.4333 15.8861 16.6722C15.8861 16.6722 15.361 21.6376 7.57424 22.0544C-0.212477 22.4893 -1.299 15.1499 2.54004 12.3773C2.54004 12.3773 -0.303021 17.1071 3.10141 19.3361C6.50583 21.5832 11.6487 19.4267 12.4274 17.0165C12.4274 17.0165 6.25231 18.1582 3.80764 14.6244C1.36297 11.0906 5.87203 8.33609 6.81368 8.17299C6.81368 8.17299 4.24225 9.71336 4.3509 12.3773C4.45955 15.0412 13.8398 16.2191 15.1255 14.9325C15.1255 14.9325 10.4354 14.8237 8.84185 11.1994C7.24829 7.57497 9.47565 2.66393 14.8177 2.1384C14.8177 2.1384 8.84185 4.38551 10.9787 9.71336C13.0974 15.0412 18.9646 15.8929 22.5863 15.8929Z" fill="#D5A353"/>
<path d="M21.6266 0C21.6266 0 14.9807 2.37397 15.2342 7.04942C15.4877 11.7249 19.707 15.2586 23.1296 16.0198C23.1296 16.0198 14.528 15.2768 13.532 8.55354C12.5179 1.81219 18.9646 0.326194 21.6266 0Z" fill="#D5A353"/>
<path d="M44.2624 16.056C44.2624 16.056 49.2966 27.1466 47.866 29.6112C46.4354 32.0758 52.1034 38.6178 52.1034 38.6178C52.1034 38.6178 47.7392 35.5189 46.2543 30.0824C47.7392 28.1614 48.1738 27.4184 44.2624 16.056Z" fill="white"/>
<path d="M43.1034 31.2603C43.1034 31.2603 38.8841 30.3723 38.7573 32.1482C38.6306 33.9242 38.7211 39.542 38.7211 39.542C38.7211 39.542 41.8901 40.1763 44.1356 38.2735C44.1356 38.2735 43.2483 40.14 38.1054 40.9193C37.8881 37.3492 37.9424 31.1515 37.9424 31.1515C37.9424 31.1515 39.6447 29.6837 43.1034 31.2603Z" fill="white"/>
<path d="M44.0632 32.2389C44.0632 32.2389 44.7875 38.056 43.9727 38.4185C43.9727 38.4185 43.9727 33.1994 44.0632 32.2389Z" fill="white"/>
<path d="M16.6105 34.0329C16.6105 34.0329 15.3248 29.8649 11.0692 31.4778C6.81369 33.0725 10.3811 39.6145 12.029 40.8649C13.6769 42.1153 13.3147 44.4893 16.194 43.855C16.194 43.855 14.2745 43.5288 13.3147 40.9736C12.3549 38.4184 9.91027 40.4843 9.63864 34.1417C9.52999 31.659 15.0712 30.7348 16.6105 34.0329Z" fill="white"/>
<path d="M42.2161 62.4844C42.2161 62.4844 39.6265 64.1153 40.0612 67.2142C40.4414 69.9869 39.2101 72.0346 39.2101 72.0346C39.2101 72.0346 39.9525 70.9473 39.3187 68.2653C38.6849 65.6195 39.373 62.8831 42.2161 62.4844Z" fill="white"/>
<path d="M10.7433 60.056C10.7433 60.056 7.75532 63.1549 13.8398 65.8188C19.9243 68.4827 38.5762 72.6508 38.5762 72.6508C38.5762 72.6508 42.2704 84.7924 30.536 88C30.536 88 38.4495 83.687 36.1135 74.463C35.6789 73.9737 15.0169 69.2438 10.2181 66.145C4.94848 62.7562 10.7433 60.056 10.7433 60.056Z" fill="white"/>
<path d="M44.4797 25.5881C44.8056 26.2586 45.0048 27.1285 44.2262 27.8171C43.1034 28.8138 38.1779 27.6903 34.7734 28.1252C33.868 28.9407 33.4877 29.4662 33.4877 29.4662C36.204 27.0923 43.9002 30.0824 45.3127 28.8138C46.7251 27.5453 44.6064 25.5881 44.4797 25.5881Z" fill="white"/>
<path d="M43.9726 32.4382L38.359 37.9292L38.196 38.6722L44.1175 32.6919L44.0632 34.6129L38.6306 39.7414L39.6447 40.0132L44.1718 36.2801L44.0632 32.2751" fill="white"/>
<path d="M12.2101 47.0082C12.2101 47.0082 13.9304 48.3674 13.2966 51.4844C12.6266 54.8007 11.3409 59.6573 11.3409 59.6573C11.3409 59.6573 13.0793 58.2076 13.9304 54.8731C14.6728 51.9374 16.3751 47.9506 12.2101 47.0082Z" fill="white"/>
<path d="M41.2201 3.15322C41.2201 3.15322 41.1115 3.13509 40.9123 3.11697C40.8579 3.11697 40.8036 3.09885 40.7493 3.09885C40.695 3.09885 40.6225 3.08073 40.5501 3.08073C40.4777 3.08073 40.4052 3.06261 40.3147 3.06261C40.2241 3.06261 40.1336 3.06261 40.043 3.06261C39.6628 3.06261 39.21 3.08073 38.7211 3.20758C38.5944 3.2257 38.4676 3.28007 38.3408 3.31631C38.2141 3.35256 38.0873 3.40692 37.9605 3.46129C37.707 3.57002 37.4354 3.69687 37.1819 3.87809C36.9284 4.04119 36.6929 4.24053 36.4575 4.47612C36.2221 4.7117 36.0229 4.96541 35.8237 5.23724C35.4434 5.79902 35.1537 6.4514 34.9726 7.15816C34.7734 7.86491 34.701 8.58979 34.701 9.33279C34.701 10.0758 34.7734 10.8007 34.9183 11.5074C34.9183 11.5074 34.8821 11.3987 34.8096 11.1812C34.7372 10.9638 34.6648 10.6557 34.5742 10.257C34.4294 9.45964 34.3207 8.29984 34.6104 7.01318C34.6829 6.68699 34.7915 6.36079 34.9183 6.0346C35.0632 5.70841 35.208 5.38221 35.4072 5.07414C35.8056 4.45799 36.3489 3.89621 37.0189 3.49753C37.6708 3.11697 38.4314 2.89951 39.1738 2.86326C39.8982 2.8089 40.6044 2.93575 41.2201 3.15322Z" fill="#D5A353"/>
<path d="M30.0833 10.8731C30.0833 10.8731 30.029 10.7644 29.9203 10.5469C29.9022 10.4926 29.866 10.4382 29.8298 10.3657C29.7936 10.2932 29.7755 10.2207 29.7392 10.1483C29.703 10.0758 29.6668 9.98516 29.6306 9.89456C29.5944 9.80395 29.5763 9.69521 29.54 9.58648C29.4133 9.15156 29.3046 8.62602 29.3046 7.99175C29.3046 7.37561 29.4133 6.66886 29.703 5.98022C30.2463 4.58484 31.5139 3.24381 33.1256 2.53706C33.5239 2.37396 33.9586 2.22899 34.3932 2.12026C34.8278 2.02965 35.2624 1.97528 35.7151 1.97528H35.8781H36.041L36.367 1.9934C36.5843 2.02965 36.8016 2.04777 37.0189 2.10213C37.4535 2.17462 37.8519 2.33772 38.2322 2.50082C38.2322 2.50082 38.1054 2.46457 37.8519 2.39208C37.5984 2.3196 37.2362 2.24711 36.7835 2.21087C36.3308 2.17462 35.7694 2.17462 35.1537 2.28335C34.538 2.39208 33.8861 2.5733 33.2342 2.8995C32.5823 3.22569 31.9304 3.66062 31.3871 4.2224C31.0974 4.49423 30.862 4.82042 30.6085 5.14662C30.3911 5.49093 30.192 5.83525 30.029 6.21581C29.9928 6.30642 29.9565 6.39703 29.9203 6.50576C29.8841 6.59637 29.8479 6.7051 29.8298 6.79571L29.7392 7.08566L29.6849 7.39373L29.6487 7.53871L29.6306 7.68368C29.6125 7.79241 29.6125 7.88302 29.5944 7.99175C29.5944 8.1911 29.5763 8.39044 29.5944 8.6079C29.6125 9.36902 29.7936 10.1664 30.0833 10.8731Z" fill="#D5A353"/>
<path d="M30.4274 15.1499C30.4274 15.1499 30.2644 15.0774 29.9384 14.9143C29.6306 14.7512 29.1598 14.5338 28.6165 14.1895C28.0732 13.8451 27.4213 13.3921 26.7875 12.7578C26.1537 12.1236 25.5561 11.3081 25.1215 10.3114C25.0129 10.0577 24.9223 9.80395 24.8318 9.55024C24.7775 9.42339 24.7594 9.27841 24.705 9.15156C24.6688 9.00658 24.6145 8.87973 24.5964 8.73475C24.542 8.46293 24.4696 8.17297 24.4334 7.88302C24.3791 7.59307 24.3791 7.285 24.361 6.97693C24.361 6.37891 24.3972 5.74464 24.5602 5.12849C24.705 4.51235 24.9404 3.91433 25.2845 3.37067C25.6105 2.82701 26.027 2.30148 26.5159 1.88467C27.0229 1.46787 27.6024 1.15979 28.2362 0.978576C28.87 0.797357 29.5038 0.761113 30.1376 0.779235C30.7714 0.797357 31.3871 0.887966 31.9666 0.996698C31.9666 0.996698 31.7674 0.978576 31.3871 0.942332C31.0249 0.92421 30.4817 0.887966 29.8117 0.92421C29.4676 0.942332 29.1054 0.996698 28.7251 1.08731C28.3449 1.17792 27.9465 1.32289 27.5481 1.54036C27.1497 1.75782 26.7875 2.04777 26.4435 2.39208C26.2624 2.5733 26.1175 2.77264 25.9726 2.97199C25.8278 3.18945 25.6829 3.40691 25.5561 3.6425C25.2845 4.09554 25.1215 4.62108 24.9767 5.14662C24.9404 5.27347 24.9223 5.41844 24.8861 5.56342C24.8499 5.7084 24.8499 5.83525 24.8318 5.98022C24.7775 6.25205 24.7956 6.542 24.7775 6.83195C24.7956 7.41185 24.8499 7.99176 24.9948 8.57166C25.1215 9.15156 25.2845 9.73146 25.538 10.2751C25.7734 10.8188 26.0632 11.3624 26.4072 11.8336C26.7513 12.3229 27.1678 12.7578 27.6024 13.1746C28.4716 13.9539 29.4676 14.5881 30.4274 15.1499Z" fill="#D5A353"/>
<path d="M19.0551 2.01154C19.0551 2.01154 18.9827 2.08402 18.8559 2.229C18.8016 2.30149 18.7111 2.3921 18.6205 2.48271C18.5843 2.53707 18.53 2.59144 18.4757 2.6458C18.4213 2.70017 18.3851 2.77266 18.3308 2.84514C18.2221 2.99012 18.1135 3.13509 18.0048 3.29819C17.8962 3.47941 17.7875 3.66063 17.6608 3.85997C17.5521 4.05931 17.4616 4.2949 17.3529 4.53048C17.2986 4.65733 17.2624 4.78419 17.2262 4.91104C17.2081 4.98353 17.1899 5.03789 17.1537 5.11038C17.1356 5.18287 17.0994 5.23724 17.0994 5.30972C17.0451 5.58155 16.9545 5.85338 16.9364 6.16145C16.9183 6.30643 16.9002 6.4514 16.8821 6.6145C16.8821 6.75948 16.8821 6.92257 16.864 7.06755C16.8821 7.68369 16.9364 8.33608 17.1175 8.97035L17.1718 9.20593L17.2443 9.44152C17.2986 9.60462 17.3529 9.76771 17.4072 9.91269C17.534 10.2208 17.6427 10.547 17.8056 10.8369C18.0773 11.4531 18.4394 12.0148 18.7835 12.5766C18.7835 12.5766 18.7111 12.486 18.5843 12.341C18.4576 12.1779 18.2584 11.9605 18.0592 11.6524C17.6427 11.0544 17.0813 10.1664 16.7372 9.00659C16.701 8.86162 16.6467 8.71664 16.6105 8.57167C16.5743 8.42669 16.5561 8.26359 16.5199 8.1005C16.5018 8.02801 16.4837 7.9374 16.4837 7.86491C16.4837 7.79243 16.4656 7.70182 16.4656 7.62933C16.4475 7.46623 16.4294 7.30313 16.4294 7.14004C16.4113 6.46953 16.5199 5.78089 16.7191 5.1285C16.7734 4.96541 16.8459 4.80231 16.9002 4.65733C16.9364 4.58485 16.9545 4.49424 16.9908 4.42175L17.1175 4.20429C17.2081 4.05931 17.2805 3.91434 17.371 3.76936C17.4616 3.62439 17.5702 3.49753 17.6608 3.37068L17.8056 3.17134L17.9686 2.99012C18.0773 2.86327 18.1859 2.75453 18.2946 2.6458C18.5662 2.3921 18.8197 2.21088 19.0551 2.01154Z" fill="#D5A353"/>
<path d="M17.2805 0.815491C17.2805 0.815491 17.1718 0.869856 16.9726 0.99671C16.7553 1.10544 16.4656 1.28666 16.1034 1.54037C15.3972 2.02966 14.4374 2.79078 13.6406 3.93246C13.4414 4.22241 13.2604 4.53048 13.0793 4.85668C12.9163 5.18287 12.7714 5.52719 12.6447 5.90775C12.4093 6.63262 12.3006 7.44811 12.3549 8.2636C12.3911 8.66228 12.4455 9.07908 12.5541 9.47776C12.5903 9.6771 12.6628 9.87645 12.7352 10.0758C12.7714 10.1664 12.8076 10.2751 12.8439 10.3657C12.8801 10.4563 12.9163 10.5651 12.9706 10.6557C13.3147 11.4168 13.7493 12.1236 14.2382 12.776C14.2382 12.776 14.1477 12.6853 13.9847 12.486C13.8942 12.3954 13.8036 12.2867 13.695 12.1417C13.6406 12.0692 13.5682 11.9967 13.5139 11.9242C13.4596 11.8336 13.3871 11.7611 13.3147 11.6705C13.0612 11.29 12.7533 10.8369 12.4998 10.257C12.2463 9.69523 12.0471 9.00659 11.9746 8.2636C11.9384 7.88304 11.9384 7.50248 11.9746 7.10379C12.0109 6.70511 12.0833 6.30643 12.2101 5.90775C12.4455 5.11038 12.8439 4.34926 13.369 3.67875C13.6225 3.33444 13.9123 3.02636 14.2201 2.73641C14.528 2.44646 14.8539 2.19276 15.1799 1.95717C15.868 1.44976 16.5742 1.08732 17.2805 0.815491Z" fill="#D5A353"/>
<path d="M38.8116 10.6738C38.8116 10.6738 38.8479 10.7825 38.9384 11C38.9565 11.0544 38.9746 11.1087 39.0108 11.1812C39.0471 11.2356 39.0833 11.3081 39.1195 11.3806C39.1557 11.453 39.1919 11.5255 39.2463 11.6161C39.3006 11.6886 39.3549 11.7792 39.4092 11.8699C39.4454 11.9061 39.4636 11.9605 39.4998 12.0148C39.536 12.0511 39.5722 12.1054 39.6084 12.1417C39.6809 12.2323 39.7533 12.3229 39.8257 12.4316C39.9163 12.5222 39.9887 12.6129 40.0793 12.7216C40.1698 12.8303 40.2784 12.9028 40.3871 13.0115C40.8036 13.3921 41.3469 13.7364 41.9626 14.0082C42.5782 14.2619 43.3026 14.425 44.0632 14.4069C44.1537 14.4069 44.2442 14.4069 44.3529 14.3888C44.4434 14.3888 44.534 14.3707 44.6426 14.3707C44.7332 14.3526 44.8237 14.3344 44.9143 14.3163C45.0048 14.2982 45.1135 14.2801 45.1859 14.2438C45.5481 14.1351 45.874 13.9358 46.1638 13.682C46.2362 13.6096 46.3086 13.5552 46.363 13.4827L46.544 13.2652C46.6527 13.1021 46.7795 12.939 46.8519 12.7578C47.033 12.4135 47.1778 12.0329 47.2684 11.6343C47.3408 11.2356 47.3952 10.8369 47.3589 10.4382C47.3227 10.0395 47.2322 9.65898 47.0692 9.29654C47.0692 9.29654 47.1235 9.40527 47.2503 9.62273C47.3408 9.8402 47.4857 10.1845 47.5219 10.6376C47.5762 11.0906 47.5581 11.6343 47.3951 12.2323C47.3589 12.3773 47.3046 12.5222 47.2503 12.6853C47.196 12.8303 47.1054 12.9934 47.033 13.1384C46.9424 13.2834 46.8519 13.4465 46.7432 13.5733C46.6889 13.6458 46.6346 13.7183 46.5803 13.7908C46.5078 13.8633 46.4535 13.9176 46.3811 13.9901C46.1094 14.2438 45.7654 14.4794 45.3851 14.6063C45.3308 14.6244 45.2945 14.6425 45.2402 14.6606L45.0954 14.6969C45.0048 14.715 44.8962 14.7331 44.8056 14.7694C44.6064 14.8056 44.4072 14.8237 44.1899 14.8418C43.375 14.8781 42.5239 14.6969 41.7634 14.3344C41.0028 13.9901 40.3328 13.4283 39.8257 12.7941C39.2644 12.1417 38.9384 11.3987 38.8116 10.6738Z" fill="#D5A353"/>
<path d="M9.60242 4.09555C9.60242 4.09555 9.51187 4.18616 9.3489 4.33114C9.25835 4.40362 9.16781 4.51235 9.05916 4.62109C8.95051 4.72982 8.84185 4.87479 8.71509 5.03789C8.46157 5.36408 8.18994 5.76277 7.95453 6.25206C7.71912 6.74135 7.51992 7.32125 7.39316 7.97364C7.32073 8.29983 7.30262 8.62603 7.28451 8.98847C7.28451 9.33278 7.30262 9.69522 7.35695 10.0577C7.37505 10.2389 7.42938 10.4201 7.4656 10.6013C7.51992 10.7825 7.55614 10.9638 7.62858 11.1269C7.75534 11.4893 7.91831 11.8155 8.11751 12.1417C8.5159 12.7941 9.07727 13.3558 9.72918 13.7908C10.3811 14.2076 11.1235 14.4975 11.866 14.6606C11.866 14.6606 11.7392 14.6425 11.5038 14.6063C11.3771 14.5881 11.2503 14.57 11.0873 14.5338C10.9243 14.4975 10.7433 14.4432 10.526 14.3888C10.1095 14.2438 9.63864 14.0445 9.1497 13.7183C8.66077 13.3921 8.17183 12.9209 7.77344 12.3229C7.37505 11.7249 7.08532 11 6.95855 10.2389C6.88612 9.85832 6.86801 9.45964 6.86801 9.06095C6.88612 8.66227 6.92234 8.26359 7.01288 7.86491C7.03099 7.7743 7.0491 7.66557 7.08532 7.57496C7.12153 7.48435 7.13964 7.37562 7.17586 7.28501C7.24829 7.10379 7.30262 6.90445 7.39316 6.72323C7.55614 6.36079 7.75534 6.01647 7.97264 5.69028C8.46157 5.00165 9.02294 4.47611 9.60242 4.09555Z" fill="#D5A353"/>
<path d="M4.09738 9.62274C4.09738 9.62274 4.00684 9.71335 3.82575 9.87645C3.66277 10.0577 3.42736 10.3114 3.22816 10.7101C3.01086 11.0906 2.81167 11.598 2.68491 12.1779C2.61247 12.4679 2.57625 12.7941 2.55814 13.1203C2.54004 13.4465 2.54004 13.8089 2.57625 14.1532C2.61247 14.5157 2.6668 14.8781 2.77545 15.2405C2.8841 15.603 3.04708 15.9473 3.28249 16.2735C3.7171 16.9259 4.36901 17.4695 5.11146 17.8863C5.85392 18.3031 6.68691 18.5931 7.51991 18.7743C8.37102 18.9555 9.22213 19.0643 10.0732 19.0643C10.0732 19.0643 10.037 19.0643 9.96458 19.0824C9.89214 19.0824 9.8016 19.1005 9.67484 19.1005C9.42132 19.1186 9.04104 19.1367 8.57021 19.1186C8.09939 19.1005 7.51991 19.0461 6.90422 18.9012C6.27042 18.7562 5.58229 18.5568 4.89416 18.1944C4.20603 17.832 3.5179 17.3246 3.01086 16.6178C2.75734 16.2554 2.55814 15.8567 2.41328 15.4399C2.26841 15.0049 2.21408 14.57 2.19597 14.117C2.15975 13.229 2.30462 12.341 2.61247 11.5437C2.90221 10.7282 3.44547 10.0395 4.09738 9.62274Z" fill="#D5A353"/>
<path d="M37.6708 42.4234C37.6708 42.4234 37.6346 42.4415 37.5803 42.4959C37.5078 42.5321 37.4354 42.6046 37.3086 42.7133C37.0913 42.9127 36.8016 43.2389 36.6024 43.7463C36.4032 44.2537 36.2946 44.9061 36.4032 45.631C36.5119 46.3559 36.8378 47.1532 37.4535 47.7512C37.7614 48.0412 38.1779 48.2587 38.6125 48.4217C39.0471 48.5848 39.5179 48.6936 40.0249 48.7298C41.0028 48.8023 42.0531 48.6392 43.0672 48.3311C45.0954 47.6969 46.9968 46.5189 48.6447 45.2142C48.6447 45.2142 48.5179 45.341 48.2825 45.5585C48.0471 45.7759 47.703 46.084 47.2322 46.4465C46.7614 46.8089 46.2 47.2076 45.5119 47.6244C44.8237 48.0231 44.027 48.4217 43.1215 48.7298C42.2161 49.0198 41.202 49.2372 40.1336 49.1829C39.6084 49.1466 39.0652 49.056 38.54 48.8567C38.2865 48.7661 38.033 48.6392 37.7976 48.4942L37.6165 48.3855C37.5622 48.3493 37.5078 48.313 37.4354 48.2586C37.3811 48.2224 37.3268 48.168 37.2724 48.1137C37.2181 48.0593 37.1638 48.0231 37.1276 47.9687C36.3489 47.1351 36.0229 45.9753 36.1135 44.9242C36.1678 44.3987 36.3127 43.8732 36.5843 43.4382C36.874 42.9852 37.2543 42.6409 37.6708 42.4234Z" fill="#D5A353"/>
<path d="M0.0591426 19.9522C0.0591426 19.9522 0.0772513 20.2422 0.0953599 20.7858C0.113469 21.0576 0.131577 21.3838 0.149686 21.7644C0.149686 21.9637 0.167795 22.1631 0.185903 22.3805C0.204012 22.598 0.22212 22.8336 0.258338 23.0692C0.312664 23.5585 0.36699 24.1021 0.421316 24.682C0.511859 25.2619 0.602402 25.8962 0.711054 26.5486C0.747271 26.8748 0.837815 27.2191 0.910249 27.5634C0.982684 27.9077 1.05512 28.2702 1.14566 28.6326C1.18188 28.8138 1.2362 28.995 1.29053 29.1763C1.34486 29.3575 1.39918 29.5387 1.45351 29.738C1.56216 30.1186 1.6527 30.4992 1.77946 30.8797C1.90623 31.2603 2.05109 31.6408 2.17786 32.0395C2.25029 32.2389 2.32272 32.4382 2.37705 32.6375C2.44948 32.8369 2.54003 33.0362 2.61246 33.2356C2.77544 33.6342 2.93842 34.0329 3.1014 34.4497C3.28248 34.8484 3.48168 35.2471 3.66276 35.6639C4.45955 37.2768 5.36498 38.9258 6.37906 40.5387C7.37504 42.1697 8.46156 43.7825 9.52997 45.3954C10.5984 47.0082 11.6487 48.6029 12.6447 50.1795C12.6447 50.1795 11.9022 49.1828 10.6708 47.5156C9.43942 45.8484 7.68289 43.5288 5.87202 40.7199C4.94848 39.3245 4.06115 37.766 3.22816 36.1351C2.41327 34.486 1.72514 32.71 1.18188 30.8797C0.946467 29.9555 0.692945 29.0313 0.548076 28.1071C0.475642 27.6359 0.36699 27.1828 0.312664 26.7117C0.258338 26.2405 0.204012 25.7875 0.167795 25.3163C0.149686 25.0807 0.113469 24.8632 0.0953599 24.6277C0.0772513 24.3921 0.0772513 24.1746 0.0591426 23.939C0.041034 23.486 0.0229253 23.0329 0.00481665 22.5799C-0.013292 21.6738 0.0229253 20.8039 0.0591426 19.9522Z" fill="white"/>
<path d="M19.9605 41.0461C19.9605 41.0461 19.9605 40.9736 19.9424 40.8287C19.9243 40.6837 19.9062 40.4662 19.8881 40.1944C19.8519 39.6507 19.8157 38.8352 19.8881 37.8204C19.9786 36.8056 20.1597 35.5733 20.7392 34.2866C21.0289 33.6524 21.4092 32.9819 21.9344 32.3838C22.206 32.0939 22.4776 31.8039 22.8036 31.5502C22.876 31.4778 22.9666 31.4053 23.039 31.3509C23.1296 31.2965 23.2201 31.224 23.2925 31.1697L23.4193 31.0791L23.4736 31.0428C23.4736 31.0428 23.4736 31.0428 23.4736 31.0247V30.9703C23.3469 29.285 23.546 27.4184 24.3247 25.6606C24.705 24.7908 25.2302 23.9572 25.8821 23.2142C26.534 22.4712 27.2764 21.8007 28.1094 21.2389C29.7573 20.1153 31.6587 19.3542 33.5964 18.883C35.534 18.4119 37.4897 18.1944 39.3911 18.1763C39.3911 18.1763 39.0833 18.2125 38.5038 18.2669C37.9243 18.3212 37.0913 18.4481 36.0591 18.6474C35.0269 18.8468 33.7955 19.1367 32.4555 19.626C31.1155 20.0972 29.6849 20.7677 28.3267 21.7644C26.9867 22.743 25.7553 24.0659 24.9766 25.715C24.5964 26.5305 24.3247 27.4184 24.1799 28.3245C24.1074 28.7776 24.0531 29.2488 24.035 29.7199C24.035 29.9555 24.0169 30.1911 24.0169 30.4267L24.0531 31.2422V31.3328C24.0531 31.3509 24.0169 31.369 23.9807 31.3871L23.8358 31.4778L23.6547 31.5865L23.365 31.7677C23.1839 31.9127 23.0028 32.0577 22.8217 32.2026C22.6587 32.3657 22.4957 32.5288 22.3147 32.6919C22.1698 32.8731 22.0068 33.0362 21.8619 33.2175C21.3006 33.9605 20.8841 34.8122 20.5943 35.682C20.033 37.4399 19.9243 39.3064 19.9605 41.0461Z" fill="white"/>
<path d="M16.1034 32.0939C16.375 32.4201 16.6104 32.8007 16.7915 33.1994C24.5239 34.7216 37.4897 37.313 37.4897 37.313V31.8765L16.1034 32.0939Z" fill="white"/>
<path d="M15.0893 34.6491C15.0893 34.6491 15.1437 35.972 13.6406 35.7908C12.1195 35.6096 11.9928 37.313 12.7533 37.8748C13.5139 38.4366 14.7091 38.6903 14.8358 39.4514C14.9626 40.2125 16.538 39.7051 15.9767 38.8896C15.4153 38.0742 16.2302 37.4399 15.1618 37.3674C15.1618 37.3674 15.7231 38.0017 15.4153 38.3822C15.1074 38.7628 14.7272 37.8204 13.9666 37.8204C13.1879 37.8204 16.2302 36.8781 15.0893 34.6491Z" fill="white"/>
</svg>
