<svg width="76" height="186" viewBox="0 0 76 186" fill="none" xmlns="http://www.w3.org/2000/svg">
<g opacity="0.2" clip-path="url(#clip0)">
<path fill-rule="evenodd" clip-rule="evenodd" d="M72.5 49.9C73.8 48.2 74.9 46 75.5 43.1C75.8 41.5 75.6 39.7 75.4 38.1C75 34.9 73.9 32.3 71.8 30.1C70.7 29 69.6 27.9 68.3 27.1C66.7 26.1 64.7 25.6 62.9 25.2C61.9 25 60.9 24.7 60.1 24.7C59.3 24.7 58.6 25 57.9 25.2C57.2 25.4 56.5 25.7 55.8 25.9C55.1 26.1 54.3 26.3 53.6 26.6C51.5 27.4 50.1 29 48.6 30.8C48.3 29.2 48.3 27.6 47.5 26.3C47.1 25.7 46.5 25.2 46.1 24.5C45.7 23.8 45.2 23.2 44.7 22.7C44.2 22.1 43.5 21.7 42.9 21.1C41.8 20.1 40.8 18.8 39.1 18.1C38.2 17.8 37.2 17.8 36.2 17.3C35.4 16.9 34.5 16.3 33.8 15.7C33.1 15.1 32.6 14.4 32.1 13.7C31.1 12.3 30.1 10.9 29.1 9.59999C27.4 7.49999 25.6 5.79999 23.3 4.09999C22.6 3.59999 21.9 2.99999 21.2 2.39999C20.2 2.19999 19.1 1.39999 17.8 0.899992C16.6 0.399992 15 -0.100007 13.9 -7.48783e-06C13.3 0.0999925 12.9 0.499992 12.4 0.799993C12.5 1.29999 12.6 1.69999 12.5 2.09999C13.1 2.69999 13.8 3.19999 14.5 3.59999C16.8 4.89999 18.3 6.59999 19.9 8.49999C20.4 9.09999 20.9 9.69999 21.3 10.4C21.7 11.1 21.9 11.8 22.3 12.5C23 14.1 24.1 15.8 24 17.6C24 18.1 23.9 18.9 23.7 19.3C23.4 19.8 22.6 20.2 22.1 20.6C21.6 21 21.1 21.5 20.6 22C19.6 23 18.6 24.1 18 25.5C17.2 27.4 16.8 29.8 16.8 31.2C16.8 31.9 17 32.7 17.1 33.4C17.5 35.7 18.1 37.7 19.2 39.5C20 40.8 20.7 41.9 21.6 43C22.1 43.6 22.5 44.1 23.1 44.6C23.6 45.1 24.5 45.5 25 46.1C25.8 47 26 49.1 26 50.9C26 52.8 26 54.5 25.8 56.3C25.5 60.1 24.6 64.2 24.1 67.9C23.5 72.1 22.9 75.9 22.4 79.5C22.1 81.4 21.9 83.4 21.6 85.3C21.3 87.9 21.2 90.4 20.2 93.1C20 93.8 19.7 94.6 19.4 95C19.3 95.2 19.2 95.2 19 95.3C18.7 95.6 18.7 95.9 18.3 96.2C18.2 96.3 18.1 96.2 18 96.3C17.4 97 16.5 97.7 16.1 98.8C15.4 100.4 15.1 102.6 14.7 104.4C12.4 116.9 10.3 129.3 7.89999 141.8C7.19999 145.3 6.39999 149 5.69999 152.5C4.99999 156.1 4.19999 159.8 3.49999 163.4C2.89999 166.8 2.19999 170.3 1.29999 174.3C0.699989 176.8 0.199989 179.8 -0.100011 182.3C-0.200011 183.7 -0.700011 185.6 0.699989 185.9C1.39999 186.1 1.89999 185.7 2.19999 184.9C2.39999 185 2.19999 185.5 2.39999 185.3C3.79999 183.8 4.69999 181.8 5.59999 179.8C6.09999 178.8 6.49999 177.7 6.99999 176.6C7.49999 175.6 7.99999 174.5 8.39999 173.5C9.09999 171.9 9.39999 170.2 10.1 168.5C11.9 163.9 13.8 159.3 15.6 154.7C16.2 153.1 16.7 151.4 17.3 149.8C17.9 148.3 18.5 146.7 19.1 145.2C22.5 135.8 26 126.1 29.5 116.5C31.2 111.7 32.8 106.8 34.6 101.9C35.2 100.3 35.7 98.6 36.3 97.1C36.6 96.3 37.1 95.4 37.5 94.6C40.3 88.7 43 82.7 45.8 76.8C47.3 73.6 48.7 69.8 50.4 66.4C51.5 64.1 52.8 61.5 54.1 59.1C54.5 58.4 55 57.1 55.4 56.8C55.9 56.4 57.9 56.5 58.7 56.4C62 56.4 65.2 55.8 67.7 54.2C69.5 53 71.2 51.6 72.5 49.9ZM65.5 32.6C66.7 33.1 68.4 34.9 68.9 35.9C69.9 37.7 69.7 41.5 68.6 43.8C68.4 44.3 68 44.8 67.6 45.3C66.2 47.3 64.7 48.2 62.7 49C61.8 49.3 60.7 49.7 59.7 49.5C58.6 49.4 56.8 48.9 55.9 48.4C55.2 48 54.8 47.4 54.3 46.8C53.8 46.2 53.2 45.7 53 45.1C52.4 43.9 51.9 41.8 52 40.4C52.1 39.3 52.4 38.4 52.7 37.5C53.3 35.2 54.4 34.3 55.8 33.5C56.8 32.9 58.6 32.3 60 32.1C61.2 31.8 64 32 65.5 32.6ZM41.2 31.3C41.3 32.2 41.5 33.2 41.5 34C41.3 36.6 40 38.4 38.8 39.6C38.1 40.3 37.4 41 36.6 41.6C35.8 41.8 35 42 34.1 42.1C33.2 42.2 32.3 42.6 31.5 42.5C30.3 42.5 29.2 42.1 28.4 41.5C27.3 40.7 26 39.3 25.2 38C24.3 36.6 23.6 34.7 23.4 33C23.2 31.1 24 29.1 24.5 26.9C25.6 26 26.6 24.9 27.8 24.3C28.4 24 29.6 23.6 30.2 23.5C30.7 23.5 31.4 23.6 32 23.6C32.6 23.6 33.2 23.5 33.7 23.6C36.5 24 38.1 25.1 39.3 26.5C40.6 28 40.9 29.3 41.2 31.3ZM45.3 42.7C45.8 45.4 46.9 47.6 48.3 49.9C48.6 50.4 49.4 51.2 49.4 51.7C49.4 52.1 48.9 53 48.6 53.7C47.7 55.7 46.9 57.6 46 59.4C43.5 64.4 41.3 69.4 39.2 74.7C38.4 76.7 37.5 78.6 36.7 80.4C36.4 81.1 36.2 81.8 35.9 82.5C35.4 83.7 34.5 84.8 34.1 86C33.8 86.1 33.7 86.6 33.3 86.6C32.1 88 30.7 89 29.1 89.6C29.2 88 29.4 86.2 29.5 84.5C29.7 82.8 29.9 81.2 30 79.5C30.5 74.5 31.4 69.4 31.9 64.4C32.2 61 32.8 57.5 33.6 54.1C34 52.4 34.2 50.5 35.2 49C36.5 48.5 38 48.3 39.2 47.5C40.3 46.8 41.2 45.8 42.3 45.1C43.3 44.4 44.4 43.6 45.3 42.7Z" fill="#0F0B0B"/>
<path fill-rule="evenodd" clip-rule="evenodd" d="M6.8 168.9C6.5 168.7 6.1 168.5 5.7 168.3C4.3 172.6 2.2 177 1.3 181.9C1.2 182.5 1.3 183.3 1.5 183.7C1.5 183.8 1.6 183.8 1.6 183.9C3.1 178.6 5.1 173.9 6.8 168.9Z" fill="white"/>
<path fill-rule="evenodd" clip-rule="evenodd" d="M3.49999 182.1C4.99999 179.4 6.29999 175.9 7.49999 172.8C10.7 164.3 14.3 155.5 17.2 146.5C17.3 146.6 17.2 146.8 17.2 147C21.7 135.5 25.7 123.2 30.2 111.7C26.5 121 22.6 130.5 19 140.1C18.1 142.5 17.2 144.8 16.2 147.2C13.8 153.1 11.8 159 9.59999 165.1C9.19999 166.3 8.59999 167.5 8.29999 168.7C8.19999 169 8.09999 169.1 8.29999 169.3C7.79999 169.4 7.79999 170 7.69999 170.3C6.89999 172.3 5.99999 174.5 5.19999 176.6C4.89999 177.5 4.39999 178.4 4.19999 179.1C4.19999 179.2 4.29999 179.4 4.19999 179.6C4.09999 180.5 3.19999 181.4 3.49999 182.1Z" fill="white"/>
<path fill-rule="evenodd" clip-rule="evenodd" d="M3.79999 169.4C4.69999 166 5.29999 162.3 6.29999 158.7C6.99999 156.2 7.49999 153.8 7.89999 151.5C7.99999 150.7 8.39999 150 8.19999 149.2C8.69999 148.6 8.69999 147.8 8.89999 147C10.2 141.4 11.3 135.7 12.2 130.2C12.5 128.1 13 126.1 13.2 124.2C13.2 123.8 13.2 123.6 13.1 123.2C13.3 123.1 13.3 123.1 13.5 122.8C13.7 122.2 13.8 121.2 14 120.3C14.2 119.4 14.5 118.5 14.2 118C14.6 118.1 14.5 117.2 14.6 116.7C15.7 111 16.3 105.5 18 99.6C17 101 16.7 103.2 16.3 105.3C15.5 109.5 14.8 114 13.9 118.1C13.2 121 12.6 123.8 12.1 126.7C11.6 129.5 11.1 132.3 10.6 135.1C8.59999 146.7 5.69999 158.1 3.79999 169.4Z" fill="white"/>
<path fill-rule="evenodd" clip-rule="evenodd" d="M6.89999 168.3H6.99999C7.99999 165.8 8.89999 163.3 9.79999 160.7C9.39999 160.5 8.99999 160.1 8.79999 160C7.79999 162.6 6.79999 165.2 5.89999 167.9C6.19999 167.9 6.69999 168.1 6.89999 168.3Z" fill="white"/>
<path fill-rule="evenodd" clip-rule="evenodd" d="M6.19998 164.2C7.59998 160.9 8.79998 157.1 10.2 153.8C9.79998 153.1 9.39998 152.1 8.99998 151.6C8.39998 155.6 6.99998 160.1 6.19998 164.2Z" fill="white"/>
<path fill-rule="evenodd" clip-rule="evenodd" d="M10.3 158.8C9.99999 158.6 9.69999 158.5 9.49999 158.3C9.29999 158.7 9.09999 159.3 8.89999 159.8C9.19999 159.9 9.59999 160 9.79999 160.2C10.1 159.9 10.1 159.2 10.3 158.8Z" fill="white"/>
<path fill-rule="evenodd" clip-rule="evenodd" d="M10.4 158.3C10.4 158 10.6 157.8 10.7 157.5C10.4 157.4 10.1 157.3 9.89997 157.2C9.69997 157.3 9.69998 157.7 9.59998 157.9C9.79998 157.9 10.1 158.2 10.4 158.3Z" fill="white"/>
<path fill-rule="evenodd" clip-rule="evenodd" d="M9.89999 156.9C10.1 157 10.6 157.1 10.9 157C11 156.7 11.1 156.4 11.1 156.2C10.8 156.1 10.6 156 10.4 155.9C10.2 156.1 10.1 156.6 9.89999 156.9Z" fill="white"/>
<path fill-rule="evenodd" clip-rule="evenodd" d="M11.3 155.7C11.4 155.3 11.6 155.1 11.6 154.7C11.3 154.7 11.2 154.5 10.9 154.4C10.7 154.8 11.1 154.8 11 155.2C10.8 155.4 10.7 154.9 10.6 155C10.6 155.1 10.5 155.3 10.5 155.4C10.9 155.5 11 155.6 11.3 155.7Z" fill="white"/>
<path fill-rule="evenodd" clip-rule="evenodd" d="M11.2 153.9C11.4 154 11.7 154 11.9 154.1C12.1 153.9 12.1 153.5 12.3 153.2C12 153.1 11.9 153 11.7 152.9C11.4 153.2 11.3 153.6 11.2 153.9Z" fill="white"/>
<path fill-rule="evenodd" clip-rule="evenodd" d="M10.4 153.4C11.7 151.9 9.89998 150.6 9.69998 149.3C8.79998 151.1 10.1 152.1 10.4 153.4Z" fill="white"/>
<path fill-rule="evenodd" clip-rule="evenodd" d="M12.4 152.8C12.5 152.4 12.7 152.1 12.8 151.8C12.5 151.7 12.3 151.6 12.3 151.4C12 151.7 11.9 152.2 11.7 152.6C12.1 152.6 12.1 152.7 12.4 152.8Z" fill="white"/>
<path fill-rule="evenodd" clip-rule="evenodd" d="M11.2 151.5C11.4 151.2 11.8 150.7 11.8 150.4C11.8 149.8 10.8 148.8 10.8 148.2C10.6 148.5 10.5 149.2 10.2 149.4C10.5 150.1 10.9 150.8 11.2 151.5Z" fill="white"/>
<path fill-rule="evenodd" clip-rule="evenodd" d="M12.4 151.1C12.5 151.2 12.8 151.1 13.1 151.2C13.4 150.6 13.5 150.1 13.3 149.7C13.3 149.4 13.7 149.7 13.8 149.5C15.1 146.2 16.4 143 17.6 139.6C17.4 139.5 17.3 139.3 17.2 139.2C15.5 143.3 14 147.3 12.4 151.1Z" fill="white"/>
<path fill-rule="evenodd" clip-rule="evenodd" d="M12.2 149.7C12.3 149 12.8 148.6 12.8 148.1C12.8 147.4 11.6 146.3 11.5 145.8C11.4 146.5 11 146.9 11 147.5C11 147.9 11.4 148.4 11.6 148.7C11.8 149.1 11.9 149.5 12.2 149.7Z" fill="white"/>
<path fill-rule="evenodd" clip-rule="evenodd" d="M9.99998 149.1C9.99998 148.5 10.4 147.2 9.99998 146.6C9.79998 147.4 9.59998 148.6 9.99998 149.1Z" fill="white"/>
<path fill-rule="evenodd" clip-rule="evenodd" d="M12.8 147.7C14.5 143.4 15.9 138.8 17.6 134.7C16.6 133.3 15.6 131.6 14.7 130.2C14.7 131.1 14.3 131.7 14.3 132.4C14.3 133 15.1 134.1 15.3 134.7C15.7 135.5 15.9 136.3 16.2 137C15.5 136 14.7 134.4 14 133.4C13.3 137.1 12.5 140.9 11.5 144.8C12.1 145.7 12.5 146.7 12.8 147.7Z" fill="white"/>
<path fill-rule="evenodd" clip-rule="evenodd" d="M10.4 146.4C10.7 145.6 11 144.4 10.6 143.8C10.4 144.5 10 145.8 10.4 146.4Z" fill="white"/>
<path fill-rule="evenodd" clip-rule="evenodd" d="M11 143.4C11.5 141.6 12.3 137.8 13 135.1C13.3 134.1 13.7 133.2 13.7 132.4C13.7 131.8 13.2 131.1 13 130.6C12.3 133.9 11.6 137.8 11 141.2C10.9 142.1 10.6 142.8 11 143.4Z" fill="white"/>
<path fill-rule="evenodd" clip-rule="evenodd" d="M17.8 139.1C18 138.8 18.1 138.3 18.3 137.9C18.1 137.8 18.1 137.6 17.9 137.6C17.5 138.1 17.3 138.9 17.8 139.1Z" fill="white"/>
<path fill-rule="evenodd" clip-rule="evenodd" d="M18.5 137.3C18.7 137.1 18.7 136.7 18.8 136.4C18.7 136.3 18.6 136.2 18.4 136.2C18.3 136.5 18.2 136.7 18.1 137C18.3 137.1 18.3 137.2 18.5 137.3Z" fill="white"/>
<path fill-rule="evenodd" clip-rule="evenodd" d="M19 135.8C19.2 135.5 19.2 135.1 19.4 134.8C19.3 134.7 19.2 134.7 19.1 134.6C18.9 134.9 18.8 135.2 18.7 135.6C18.9 135.6 18.8 135.8 19 135.8Z" fill="white"/>
<path fill-rule="evenodd" clip-rule="evenodd" d="M17.9 134C18 133.7 18.4 133.4 18.4 133C18.4 132.7 17.8 132.1 17.5 131.8C16.7 130.6 15.8 129.1 15.1 128C15.1 128.4 15 128.7 14.9 129.1C15.8 130.8 16.9 132.3 17.9 134Z" fill="white"/>
<path fill-rule="evenodd" clip-rule="evenodd" d="M19.5 134.2C19.7 134.2 19.7 133.6 19.9 133.5C19.8 133.5 19.8 133.4 19.6 133.4C19.5 133.7 19.4 133.8 19.3 134.2C19.5 134.1 19.5 134.1 19.5 134.2Z" fill="white"/>
<path fill-rule="evenodd" clip-rule="evenodd" d="M18.5 132.5C18.6 132.2 19 131.9 19 131.4C19 130.9 18.1 129.9 17.7 129.4C16.4 127.5 15.3 125.2 14.3 123.5C13.8 124.8 14.6 125.5 15.1 126.5C16.1 128.5 17.4 130.7 18.5 132.5Z" fill="white"/>
<path fill-rule="evenodd" clip-rule="evenodd" d="M20 132.9C20.3 132.6 20.5 131.8 20.6 131.4C20.3 131.6 19.9 132.5 20 132.9Z" fill="white"/>
<path fill-rule="evenodd" clip-rule="evenodd" d="M19.1 130.9C19.4 130.6 19.5 130 19.7 129.6C17.7 127.1 16.1 124.2 14.8 121.5C14.7 121.9 14.6 122.4 14.5 122.8C15.8 125.6 17.6 128.2 19.1 130.9Z" fill="white"/>
<path fill-rule="evenodd" clip-rule="evenodd" d="M20.7 130.8C20.8 130.8 20.8 130.8 20.9 130.8C20.9 130.6 21.2 130.3 21.1 130.1C20.8 130.2 20.8 130.6 20.7 130.8Z" fill="white"/>
<path fill-rule="evenodd" clip-rule="evenodd" d="M14.6 128.5C15.3 127.2 14.2 126.5 14 125.6C13.2 126.9 14.3 127.6 14.6 128.5Z" fill="white"/>
<path fill-rule="evenodd" clip-rule="evenodd" d="M19.7 129.3C19.9 129 19.7 128.5 20.1 128.5C18.3 125.8 16.5 122.9 15 120.2C14.9 120.4 14.9 120.6 14.8 120.8C16.3 123.7 18.2 126.4 19.7 129.3Z" fill="white"/>
<path fill-rule="evenodd" clip-rule="evenodd" d="M21.3 129.7C21.5 129.6 21.8 129 21.6 128.8C21.4 128.9 21.1 129.5 21.3 129.7Z" fill="white"/>
<path fill-rule="evenodd" clip-rule="evenodd" d="M20.2 128C20.2 127.7 20.7 127.1 20.7 126.7C20.7 126.5 19.5 125.1 19.3 124.8C17.9 122.8 16.3 120.5 15.3 118.7C15.4 118.9 15.2 119.1 15.2 119.3C15.2 119.8 16.1 121 16.4 121.5C17.6 123.8 19.1 125.9 20.2 128Z" fill="white"/>
<path fill-rule="evenodd" clip-rule="evenodd" d="M21.8 128.3C22 128.2 22 127.7 22.2 127.5C22.1 127.4 22.1 127.3 21.9 127.3C21.8 127.7 21.6 128.1 21.8 128.3Z" fill="white"/>
<path fill-rule="evenodd" clip-rule="evenodd" d="M21.5 127.9C21.7 127.8 21.8 127.5 21.9 127.2C21.6 127.3 21.6 127.7 21.5 127.9Z" fill="white"/>
<path fill-rule="evenodd" clip-rule="evenodd" d="M22.4 126.9C22.5 126.7 22.6 126.6 22.6 126.3C22.4 126.2 22.3 126.1 22.1 126C22 126.2 22 126.4 21.9 126.6C22.2 126.7 22.2 126.9 22.4 126.9Z" fill="white"/>
<path fill-rule="evenodd" clip-rule="evenodd" d="M20.8 126.4C21.1 126.1 21.2 125.4 21.4 125C19.1 122.4 17.5 119.5 15.7 116.6C15.1 118.1 16.1 118.9 16.7 120C18 122.1 19.7 124.4 20.8 126.4Z" fill="white"/>
<path fill-rule="evenodd" clip-rule="evenodd" d="M26 118.1C25.7 118 25.4 117.9 25.2 117.9C24.2 120.3 23.3 122.9 22.4 125.5C22.5 125.6 22.7 125.7 22.8 125.9C24 123.4 24.9 120.6 26 118.1Z" fill="white"/>
<path fill-rule="evenodd" clip-rule="evenodd" d="M26.2 117.6C26.3 117.3 26.4 117.1 26.5 116.8C26.2 116.7 25.9 116.6 25.7 116.6C25.6 116.8 25.5 117.1 25.4 117.3C25.6 117.4 25.9 117.5 26.2 117.6Z" fill="white"/>
<path fill-rule="evenodd" clip-rule="evenodd" d="M26.7 116.3C26.8 116.1 26.9 115.9 27 115.5C26.7 115.4 26.6 115.3 26.2 115.2C26.1 115.4 26 115.7 25.9 115.9C26.1 116.1 26.5 116.2 26.7 116.3Z" fill="white"/>
<path fill-rule="evenodd" clip-rule="evenodd" d="M27.1 115.1C27.3 115 27.4 114.6 27.5 114.3C27.2 114.2 27.1 114 26.8 113.9C26.7 114.2 26.6 114.5 26.4 114.8C26.6 114.9 27 114.9 27.1 115.1Z" fill="white"/>
<path fill-rule="evenodd" clip-rule="evenodd" d="M28.1 112.9C27.8 112.8 27.6 112.7 27.3 112.6C27.2 112.9 27.1 113.1 27 113.5C27.3 113.6 27.4 113.7 27.6 113.8C27.9 113.7 28 113.2 28.1 112.9Z" fill="white"/>
<path fill-rule="evenodd" clip-rule="evenodd" d="M28.4 112.4C28.6 112 28.8 111.6 29 111.2C28.6 111.1 28.4 111.3 28 111.1C27.9 111.4 27.7 111.7 27.6 112.1C27.9 112.2 28.1 112.3 28.4 112.4Z" fill="white"/>
<path fill-rule="evenodd" clip-rule="evenodd" d="M24 108C22.3 107.5 21.9 106.4 21.6 105.2C21.3 106.3 22.2 107.2 22.6 108C23.1 108.2 23.9 108.4 24 108Z" fill="white"/>
<path fill-rule="evenodd" clip-rule="evenodd" d="M24 107C24.2 107.1 24.3 107 24.5 107C24.5 105.7 24.6 104.3 24.4 103.1C24.1 104 24.4 105.6 24 106.8C24.1 106.9 24 106.9 24 107Z" fill="white"/>
<path fill-rule="evenodd" clip-rule="evenodd" d="M25 106.7C25.2 106.6 25.4 106.5 25.6 106.4C25.4 105.6 25.7 104.6 25.2 104C25.1 104.7 25.1 105.8 25 106.7Z" fill="white"/>
<path fill-rule="evenodd" clip-rule="evenodd" d="M23.1 106C23.2 105.4 23.1 104.6 23.2 103.8C22.9 103.9 22.7 104.9 22.7 105.3C22.8 105.7 23.1 105.8 23.1 106Z" fill="white"/>
<path fill-rule="evenodd" clip-rule="evenodd" d="M26 106C26.1 105.9 26.3 105.4 26 105.3C26 105.6 26.1 105.8 26 106Z" fill="white"/>
<path fill-rule="evenodd" clip-rule="evenodd" d="M22.9 103.6C23 103.6 23 103.6 23.1 103.6C23.2 103.5 23.2 103.4 23.2 103.3C23.1 103.4 23 103.5 22.9 103.6Z" fill="white"/>
<path fill-rule="evenodd" clip-rule="evenodd" d="M22.6 96.3C22.8 96.1 23.2 96.1 23.3 96C23.4 95.7 22.8 95.4 22.9 95.1C22.7 95.2 22.5 95.3 22.3 95.5C22.3 95.7 22.5 96 22.6 96.3Z" fill="white"/>
<path fill-rule="evenodd" clip-rule="evenodd" d="M19.8 95.5C20 95.5 20.1 95.3 20.1 95C19.9 95 19.9 95.3 19.8 95.5Z" fill="white"/>
<path fill-rule="evenodd" clip-rule="evenodd" d="M23.6 95.7C23.8 95.6 23.9 95.6 24 95.4C23.8 95.2 23.7 94.8 23.6 94.6C23.4 94.6 23.3 94.7 23.2 94.8C23.2 95.2 23.5 95.4 23.6 95.7Z" fill="white"/>
<path fill-rule="evenodd" clip-rule="evenodd" d="M24.4 95.3C24.6 95.3 24.6 95.1 24.9 95.1C24.9 94.7 24.6 94.5 24.6 94.1C24.4 94.1 24.2 94.2 24 94.4C24.1 94.7 24.3 95 24.4 95.3Z" fill="white"/>
<path fill-rule="evenodd" clip-rule="evenodd" d="M25.3 94.9C25.5 94.8 25.6 94.7 25.8 94.7C25.7 94.3 25.5 94 25.4 93.6C25.2 93.6 25 93.8 24.8 93.8C25 94.2 25.1 94.5 25.3 94.9Z" fill="white"/>
<path fill-rule="evenodd" clip-rule="evenodd" d="M26.3 94.4C26.6 94.3 27.1 94.3 27.1 94.2C27.2 93.9 26.5 93.5 26.6 93.1C26.3 93.1 26.1 93.3 25.9 93.4C25.9 93.7 26.2 94 26.3 94.4Z" fill="white"/>
<path fill-rule="evenodd" clip-rule="evenodd" d="M27.5 93.8C27.7 93.8 28.5 93.4 28.5 93.3C28.6 93 28 92.7 28.1 92.3C27.8 92.4 27.5 92.6 27.2 92.7C27.2 93.1 27.5 93.4 27.5 93.8Z" fill="white"/>
<path fill-rule="evenodd" clip-rule="evenodd" d="M28.9 92.9C29.1 92.9 29.2 92.6 29.4 92.5C29.4 92.3 29.3 92.1 29.2 91.9C29 91.9 28.8 92 28.6 92.1C28.6 92.4 28.8 92.6 28.9 92.9Z" fill="white"/>
<path fill-rule="evenodd" clip-rule="evenodd" d="M29.7 92.1C29.9 92 30.1 91.7 30.3 91.6C30.2 91.5 29.8 91.7 29.6 91.7C29.7 91.9 29.7 92 29.7 92.1Z" fill="white"/>
<path fill-rule="evenodd" clip-rule="evenodd" d="M26.1 90.9C26.2 90.9 26.2 90.8 26.3 90.8C25.9 90.1 25.3 89.4 24.8 88.7C25 89.7 25.8 90.2 26.1 90.9Z" fill="white"/>
<path fill-rule="evenodd" clip-rule="evenodd" d="M36.6 93.6C39.3 87.1 42.1 80.9 45 74.7C41.8 80.6 39 87.2 35.8 93.2C36.1 93.3 36.5 93.4 36.6 93.6Z" fill="white"/>
<path fill-rule="evenodd" clip-rule="evenodd" d="M35.2 93.1C35.3 92.5 34.7 92 34.4 91.6C34 91.1 33.7 90.6 33.4 90.2C32.8 90.7 33.3 91.3 33.8 91.9C34.1 92.4 34.4 92.9 35.2 93.1Z" fill="white"/>
<path fill-rule="evenodd" clip-rule="evenodd" d="M27 90.5C26.4 89.6 25.7 88.5 25.1 87.8C25 88.4 25.6 88.7 25.9 89.1C26.3 89.5 26.6 90 26.9 90.5C26.9 90.6 26.9 90.5 27 90.5Z" fill="white"/>
<path fill-rule="evenodd" clip-rule="evenodd" d="M27.8 90.2C28 89.8 27.5 89.4 27.3 89.2C26.6 88.4 25.9 87.3 25.3 86.6C25.3 86.8 25.3 87.1 25.2 87.3C26 88.3 26.8 89.3 27.5 90.3C27.6 90.3 27.7 90.2 27.8 90.2Z" fill="white"/>
<path fill-rule="evenodd" clip-rule="evenodd" d="M35.5 92.2C35.6 92.2 35.7 92 35.7 91.8C35.2 91.5 34.9 91.1 34.6 90.7C34.3 90.3 34.1 89.8 33.6 89.6C34.1 90.6 34.9 91.3 35.5 92.2Z" fill="white"/>
<path fill-rule="evenodd" clip-rule="evenodd" d="M35.9 91.3C36.1 91.2 36.1 90.9 36.2 90.7C35.4 90 35 89.2 34.4 88.5C34.4 88.7 34.3 88.8 34.2 88.9C34.8 89.8 35.4 90.5 35.9 91.3Z" fill="white"/>
<path fill-rule="evenodd" clip-rule="evenodd" d="M27.9 88.9C28 88.8 27.9 88.5 28 88.3C27.2 87.3 26.4 86 25.6 85.1C25.5 85.4 25.6 85.6 25.5 85.8C26.3 86.9 27.1 87.9 27.9 88.9Z" fill="white"/>
<path fill-rule="evenodd" clip-rule="evenodd" d="M36.7 89.7C36 89 35.6 88.1 34.9 87.4C34.5 88 35.2 88.6 35.5 89.1C35.8 89.6 36.2 89.9 36.3 90.3C36.6 90.3 36.6 90 36.7 89.7Z" fill="white"/>
<path fill-rule="evenodd" clip-rule="evenodd" d="M28 87.5C28.2 87.4 28 87.1 28.1 86.9C27.3 86 26.6 85 25.8 84C25.6 84.1 25.8 84.4 25.6 84.6C26.4 85.6 27.3 86.5 28 87.5Z" fill="white"/>
<path fill-rule="evenodd" clip-rule="evenodd" d="M36.9 89.4C37.1 89.2 37.2 88.8 37.4 88.5C36.5 88 36.2 87.1 35.7 86.4C35 87 35.7 87.5 36.1 88.1C36.4 88.6 36.7 89 36.9 89.4Z" fill="white"/>
<path fill-rule="evenodd" clip-rule="evenodd" d="M28.1 86C28.2 85.9 28.1 85.6 28.2 85.4C27.3 84.6 26.7 83.5 26 82.8C25.9 83 25.9 83.2 25.9 83.4C26.7 84.2 27.4 85.1 28.1 86Z" fill="white"/>
<path fill-rule="evenodd" clip-rule="evenodd" d="M37.4 88.3C37.6 88.2 37.6 87.9 37.8 87.7C37 87.1 36.6 86 36.1 85.4C36 85.5 36 85.7 35.9 85.8C36.3 86.7 37 87.4 37.4 88.3Z" fill="white"/>
<path fill-rule="evenodd" clip-rule="evenodd" d="M37.8 87.5C39.9 83 42.1 78.6 44.4 74.4C43.7 73.9 43.2 73 42.7 72.4C41.1 75.9 38.9 79.6 37.1 83.1C36.9 83.6 36.4 84.3 36.4 84.7C36.3 85.1 37.7 86.9 37.8 87.5Z" fill="white"/>
<path fill-rule="evenodd" clip-rule="evenodd" d="M28.2 84.5C28.4 84.5 28.2 84.2 28.3 84.1C27.4 83.4 26.9 82.3 26.2 81.7C26 82.1 26.5 82.3 26.6 82.5C27.2 83.1 27.7 83.9 28.2 84.5Z" fill="white"/>
<path fill-rule="evenodd" clip-rule="evenodd" d="M28.3 83.5C28.5 83.4 28.3 83.1 28.4 82.8C27.5 82.2 27 81.3 26.3 80.5C26.2 80.5 26.3 80.8 26.2 81C27 81.8 27.7 82.6 28.3 83.5Z" fill="white"/>
<path fill-rule="evenodd" clip-rule="evenodd" d="M28.3 82.2C28.4 82 28.3 81.5 28.5 81.2C27.6 80.7 27.2 80 26.6 79.3C26.4 79.4 26.5 79.7 26.4 79.9C27.1 80.6 27.8 81.4 28.3 82.2Z" fill="white"/>
<path fill-rule="evenodd" clip-rule="evenodd" d="M28.5 80.7C28.7 80.5 28.6 80 28.7 79.6C27.9 79 27.5 78.3 26.8 77.7C26.7 78 26.7 78.2 26.6 78.5C27.3 79.3 28 80 28.5 80.7Z" fill="white"/>
<path fill-rule="evenodd" clip-rule="evenodd" d="M28.6 79C29 76.9 28.9 74.5 29.1 72.3C28.5 71.9 28.2 71.4 27.7 71C27.4 73.1 27.1 75.2 26.7 77.3C27.6 77.6 28.1 78.4 28.6 79Z" fill="white"/>
<path fill-rule="evenodd" clip-rule="evenodd" d="M29.1 71.7C29.3 70.7 29.3 69.5 29.4 68.4C29 68.1 28.7 67.6 28.4 67.4C28.2 68.4 28 69.4 27.9 70.4C28.3 70.8 28.8 71.2 29.1 71.7Z" fill="white"/>
<path fill-rule="evenodd" clip-rule="evenodd" d="M44.5 74.1C44.7 73.9 44.8 73.6 45 73.3C44.4 72.6 43.9 71.9 43.4 71.2C42.9 71.8 43.3 72.3 43.7 72.9C43.9 73.5 44.3 73.8 44.5 74.1Z" fill="white"/>
<path fill-rule="evenodd" clip-rule="evenodd" d="M45.2 73C45.3 72.7 45.5 72.4 45.6 72.2C45 71.5 44.5 70.8 44 70.1C43.9 70.4 43.8 70.6 43.6 70.8C44 71.6 44.5 72.3 45.2 73Z" fill="white"/>
<path fill-rule="evenodd" clip-rule="evenodd" d="M29.4 67.7C29.6 67 29.5 66 29.7 65.1C29.4 64.8 29.2 64.4 28.9 64.2C28.8 65 28.7 65.7 28.6 66.6C28.8 66.9 29.1 67.2 29.4 67.7Z" fill="white"/>
<path fill-rule="evenodd" clip-rule="evenodd" d="M45.8 71.7C46.5 71.1 45.7 70.6 45.3 70C44.9 69.5 44.8 69.1 44.5 69C44.4 69.3 44.3 69.4 44.2 69.7C44.7 70.4 45.2 71 45.8 71.7Z" fill="white"/>
<path fill-rule="evenodd" clip-rule="evenodd" d="M46.3 70.7C47.5 69.6 45.5 68.6 45.1 67.8C45 68.1 44.8 68.4 44.7 68.6C45.2 69.3 45.7 70 46.3 70.7Z" fill="white"/>
<path fill-rule="evenodd" clip-rule="evenodd" d="M47 69.4C47.2 69 47.4 68.7 47.6 68.4C47 67.7 46.4 67 46 66.2C45.7 66.4 45.6 66.9 45.4 67.2C45.8 68 46.4 68.8 47 69.4Z" fill="white"/>
<path fill-rule="evenodd" clip-rule="evenodd" d="M29.7 64.3C29.9 64.1 29.8 63.6 29.9 63.3C29.7 63.1 29.3 62.9 29.2 62.6C29 62.8 29.1 63.3 29 63.6C29.3 63.7 29.5 64 29.7 64.3Z" fill="white"/>
<path fill-rule="evenodd" clip-rule="evenodd" d="M47.7 68.1C48.6 67.6 47.7 67 47.3 66.3C46.9 65.8 46.7 65.3 46.5 65C45.5 66.1 47.4 67.2 47.7 68.1Z" fill="white"/>
<path fill-rule="evenodd" clip-rule="evenodd" d="M29.8 62.6C30.2 62 29.3 61.7 29.2 61.2C28.8 61.9 29.6 62.2 29.8 62.6Z" fill="white"/>
<path fill-rule="evenodd" clip-rule="evenodd" d="M48.4 66.9C48.7 66.8 48.5 66.4 48.8 66.3C48.2 65.5 47.5 64.8 47.2 63.8C47 63.8 47 64.2 46.8 64.4C47.1 65.3 47.8 66.1 48.4 66.9Z" fill="white"/>
<path fill-rule="evenodd" clip-rule="evenodd" d="M29.9 61.5C30.2 61.4 30 60.9 30.2 60.6C29.8 60.3 29.7 59.9 29.3 59.6C29.3 59.9 29.2 60.3 29.2 60.7C29.6 60.9 29.7 61.3 29.9 61.5Z" fill="white"/>
<path fill-rule="evenodd" clip-rule="evenodd" d="M48.9 65.9C49.1 65.9 49.2 65.5 49.3 65.2C48.6 64.5 48.1 63.6 47.5 63C47.1 63.5 47.7 64.2 48 64.7C48.4 65.2 48.7 65.5 48.9 65.9Z" fill="white"/>
<path fill-rule="evenodd" clip-rule="evenodd" d="M30.2 59.9C30.4 59 29.7 58.7 29.4 58.1C29.4 58.4 29.3 58.9 29.3 59.2C29.9 59.2 29.9 59.7 30.2 59.9Z" fill="white"/>
<path fill-rule="evenodd" clip-rule="evenodd" d="M49.4 64.9C49.6 64.7 49.7 64.3 49.8 63.9C49 63.3 48.5 62.6 48 61.9C47.3 62.5 48 63.1 48.5 63.7C48.9 64.2 49.3 64.5 49.4 64.9Z" fill="white"/>
<path fill-rule="evenodd" clip-rule="evenodd" d="M30.3 58.5C30.7 57.7 29.8 57.2 29.5 56.7C29.5 57 29.5 57.3 29.4 57.6C30 57.7 30 58.1 30.3 58.5Z" fill="white"/>
<path fill-rule="evenodd" clip-rule="evenodd" d="M49.9 63.8C50.6 62.9 51 61.6 51.6 60.4C51.2 60 50.8 59.6 50.5 59.1C50.9 59.3 51.3 59.9 51.6 60.2C51.8 60.1 51.9 59.7 52 59.5C51.4 58.8 50.9 58.2 50.4 57.5C50 58.2 49.6 59 49.2 59.7C49.4 60.3 50 60.7 50.2 61.3C49.7 61.4 49.4 60.3 49 60.2C48.9 61.1 50 61.4 50 62.2C49.4 62.1 49.2 61.3 48.7 60.9C48.6 61.1 48.4 61.4 48.4 61.5C48.7 62.3 49.5 62.9 49.9 63.8Z" fill="white"/>
<path fill-rule="evenodd" clip-rule="evenodd" d="M30.4 57.1C31 56 29.9 55.4 29.6 54.7C29.4 55.1 29.6 55.7 29.5 56.2C30.1 56.4 30.2 56.8 30.4 57.1Z" fill="white"/>
<path fill-rule="evenodd" clip-rule="evenodd" d="M52.1 59C52.4 58.8 52.5 58.3 52.7 57.9C51.8 57.5 51.6 56.7 51 56.2C50.9 56.5 50.8 56.7 50.6 56.9C50.9 57.7 51.6 58.3 52.1 59Z" fill="white"/>
<path fill-rule="evenodd" clip-rule="evenodd" d="M52.7 57.8C52.9 57.6 52.9 57.4 53.1 57.1C52.7 56.4 52.1 55.5 51.6 55C51.5 55.3 51.4 55.3 51.3 55.6C51.6 56.4 52.4 57 52.7 57.8Z" fill="white"/>
<path fill-rule="evenodd" clip-rule="evenodd" d="M53.7 55.9C53.1 55.3 52.7 54.4 52.2 53.9C51.5 54.8 53 55.7 53.3 56.5C53.5 56.6 53.6 56.2 53.7 55.9Z" fill="white"/>
<path fill-rule="evenodd" clip-rule="evenodd" d="M53.9 55.4C54.7 54.8 54 54.2 53.6 53.5C53.3 53 53 52.6 52.8 52.4C52.8 52.7 52.5 52.9 52.5 53.2C52.5 53.8 53.7 54.9 53.9 55.4Z" fill="white"/>
<path fill-rule="evenodd" clip-rule="evenodd" d="M29.6 44.3C29.2 43.7 29 43.1 28.3 42.7C28.7 43.3 28.6 44.4 29.6 44.3Z" fill="white"/>
<path fill-rule="evenodd" clip-rule="evenodd" d="M31.1 44.6C30.7 44.2 30.7 43.5 29.8 43.4C30.1 43.8 30.2 44.5 31.1 44.6Z" fill="white"/>
<path fill-rule="evenodd" clip-rule="evenodd" d="M32.5 44.9C32.1 44.4 31.9 43.7 31.2 43.6C31.6 44 31.6 44.9 32.5 44.9Z" fill="white"/>
<path fill-rule="evenodd" clip-rule="evenodd" d="M34 45.2C33.6 44.7 33.3 44.3 33 43.8C32.8 43.8 32.7 43.9 32.5 43.8C32.9 44.3 33 45.3 34 45.2Z" fill="white"/>
<path fill-rule="evenodd" clip-rule="evenodd" d="M35.1 44.9C34.9 44.4 34.6 44.1 34.3 43.6C34.1 43.6 34 43.7 33.8 43.6C34.1 44.2 34.3 45.4 35.1 44.9Z" fill="white"/>
<path fill-rule="evenodd" clip-rule="evenodd" d="M59.6 51.9C59 51.5 58.7 50.9 58 50.6C57.9 50.6 57.8 50.8 57.5 50.8C57.5 51.6 58.6 51.6 59.6 51.9Z" fill="white"/>
<path fill-rule="evenodd" clip-rule="evenodd" d="M61.3 52C60.9 51.5 60.5 51 59.5 50.9C59.9 51.5 60.7 52 61.3 52Z" fill="white"/>
<path fill-rule="evenodd" clip-rule="evenodd" d="M36.1 44.6C36 44.1 35.6 43.8 35.4 43.3C35.2 43.3 35.1 43.4 34.9 43.4C35.3 43.9 35.4 45 36.1 44.6Z" fill="white"/>
<path fill-rule="evenodd" clip-rule="evenodd" d="M62.6 52C62.4 51.7 62.1 51.5 61.9 51.3C61.7 51.3 61.5 51.4 61.2 51.3C61.5 51.7 62 52.1 62.6 52Z" fill="white"/>
<path fill-rule="evenodd" clip-rule="evenodd" d="M63.9 51.5C63.6 51.3 63.5 51.1 63.2 50.9C63 51 62.7 51 62.5 51.2C63 51.6 63.5 52.2 63.9 51.5Z" fill="white"/>
<path fill-rule="evenodd" clip-rule="evenodd" d="M65.2 51C65 50.7 64.7 50.5 64.5 50.2C64.2 50.3 63.9 50.6 63.5 50.7C64 51.4 64.6 51.3 65.2 51Z" fill="white"/>
<path fill-rule="evenodd" clip-rule="evenodd" d="M37.2 43.4C37.4 43.4 37.6 43.2 37.7 43.1C37.7 42.9 37.5 42.8 37.4 42.6C37.2 42.7 37 42.7 36.9 42.8C37 43 37.1 43.1 37.2 43.4Z" fill="white"/>
<path fill-rule="evenodd" clip-rule="evenodd" d="M66.4 50.6C66.2 50.2 65.8 49.9 65.6 49.5C65.3 49.6 65.1 49.9 64.8 50C65.1 50.6 65.7 51.2 66.4 50.6Z" fill="white"/>
<path fill-rule="evenodd" clip-rule="evenodd" d="M67.5 49.5C67 49.3 66.9 48.9 66.5 48.6C66.3 48.9 66 49 65.8 49.3C66.1 49.6 66.3 50 66.7 50.2C67 49.9 67.3 49.8 67.5 49.5Z" fill="white"/>
<path fill-rule="evenodd" clip-rule="evenodd" d="M68.3 48.7C67.9 48.5 67.6 48.2 67.4 47.9C67.2 47.9 67.1 48.2 66.9 48.3C67.2 48.7 67.9 49.7 68.3 48.7Z" fill="white"/>
<path fill-rule="evenodd" clip-rule="evenodd" d="M68.5 48.3C68.7 48.2 68.8 47.9 69 47.7C68.7 47.5 68.4 47.2 68.2 46.9C68 47 67.9 47.3 67.7 47.4C67.8 47.7 68.3 48 68.5 48.3Z" fill="white"/>
<path fill-rule="evenodd" clip-rule="evenodd" d="M69.6 46.4C69.3 46.2 69.1 45.9 69 45.7C68.8 45.8 68.7 46.1 68.5 46.3C68.8 46.7 69.4 47.5 69.6 46.4Z" fill="white"/>
<path fill-rule="evenodd" clip-rule="evenodd" d="M49.9 41.7C50.2 41.6 49.8 41.1 49.9 40.8C49.6 40.4 49.2 40 48.9 39.5C48.5 40.5 49.5 41 49.9 41.7Z" fill="white"/>
<path fill-rule="evenodd" clip-rule="evenodd" d="M69.8 46.1C70 46.1 70 45.8 70.1 45.6C69.8 45.4 69.7 45.1 69.4 44.9C69.3 45.1 69.2 45.2 69.1 45.4C69.4 45.6 69.6 45.9 69.8 46.1Z" fill="white"/>
<path fill-rule="evenodd" clip-rule="evenodd" d="M49.7 39.7C50.1 38.9 49.5 38 49.1 37.7C49 38 48.9 38.3 48.9 38.5C49.1 38.9 49.5 39.2 49.7 39.7Z" fill="white"/>
<path fill-rule="evenodd" clip-rule="evenodd" d="M70.1 43.7C70.1 43.6 70.2 43.6 70.3 43.6C70.6 43.6 70.6 43.8 70.8 43.9C70.9 43.7 70.9 43.5 71 43.2C70.8 43 70.6 42.9 70.6 42.7C70.7 42.4 71 42.5 71.2 42.6C71.5 41.9 71.1 41.6 70.9 41.3C70.5 42.3 70.3 43.8 69.7 44.7C70.3 44.9 70.6 45.4 70.7 44.7C70.6 44.2 70 44.1 70.1 43.7Z" fill="white"/>
<path fill-rule="evenodd" clip-rule="evenodd" d="M50.7 39.1C51.1 38.4 51.3 37 51.4 36.4C51.1 37.3 50.8 38.2 50.7 39.1Z" fill="white"/>
<path fill-rule="evenodd" clip-rule="evenodd" d="M49.9 37.9C50.1 37.8 50 37.4 50.1 37.2C49.9 37 49.7 36.7 49.5 36.4C49.4 36.6 49.4 36.8 49.3 37C49.6 37.3 49.8 37.6 49.9 37.9Z" fill="white"/>
<path fill-rule="evenodd" clip-rule="evenodd" d="M45.1 35C45.4 34.8 45.7 34.6 46.1 34.4C46.3 33.8 46.3 33.2 46.4 32.7C45.7 33.1 45.3 33.9 45.1 35Z" fill="white"/>
<path fill-rule="evenodd" clip-rule="evenodd" d="M22.2 26.7C21.7 27.1 22.5 27.5 22.6 27.9C23.1 27.5 22.3 27.1 22.2 26.7Z" fill="white"/>
<path fill-rule="evenodd" clip-rule="evenodd" d="M71.2 41.2C71.6 40.4 71.3 39.6 70.8 39.2C70.6 39.6 70.8 40.3 70.6 40.8C71 40.8 71.2 41 71.2 41.2Z" fill="white"/>
<path fill-rule="evenodd" clip-rule="evenodd" d="M22.9 26.9C23.1 26.8 23 26.3 23.2 26.2C23.2 26 22.9 25.9 22.9 25.7C22.3 26 22.8 26.6 22.9 26.9Z" fill="white"/>
<path fill-rule="evenodd" clip-rule="evenodd" d="M45.5 33C45.8 32.8 46.1 32.5 46.4 32.4C46.4 32 46.4 31.6 46.5 31.1C45.8 31.4 45.5 32 45.5 33Z" fill="white"/>
<path fill-rule="evenodd" clip-rule="evenodd" d="M23.6 25.7C23.9 25.4 24 25.1 23.7 24.8C23.5 24.9 23.4 25.1 23.3 25.3C23.4 25.4 23.3 25.6 23.6 25.7Z" fill="white"/>
<path fill-rule="evenodd" clip-rule="evenodd" d="M45.6 31.2C46 31.1 46.1 30.6 46.5 30.6C46.4 30.4 46.6 30 46.3 29.9C46.2 30 46.2 30.1 46.3 30.2C45.9 30.4 45.5 30.7 45.6 31.2Z" fill="white"/>
<path fill-rule="evenodd" clip-rule="evenodd" d="M24.2 24.9C24.4 24.8 24.5 24.6 24.7 24.5C24.6 24.3 24.5 24.1 24.3 24C23.9 24.3 24 24.7 24.2 24.9Z" fill="white"/>
<path fill-rule="evenodd" clip-rule="evenodd" d="M45.5 30.3C45.9 30.1 46 29.6 46.3 29.3C46.4 29 46.2 28.9 46.2 28.7C45.8 29.1 45.2 29.6 45.5 30.3Z" fill="white"/>
<path fill-rule="evenodd" clip-rule="evenodd" d="M25 24.2C25.2 24.2 25.3 24 25.4 24C25.2 23.8 25.1 23.5 24.9 23.3C24.4 23.7 24.9 23.9 25 24.2Z" fill="white"/>
<path fill-rule="evenodd" clip-rule="evenodd" d="M45.3 29.2C45.6 28.8 46.2 28.3 45.9 27.7C45.6 27.9 45.5 28.4 45.2 28.6C45.1 28.9 45.3 28.9 45.3 29.2Z" fill="white"/>
<path fill-rule="evenodd" clip-rule="evenodd" d="M25.8 23.7C26 23.6 26.3 23.4 26.5 23.2C26.2 23.1 26.1 22.8 25.9 22.6C25.7 22.6 25.6 22.8 25.4 22.9C25.5 23.2 25.7 23.4 25.8 23.7Z" fill="white"/>
<path fill-rule="evenodd" clip-rule="evenodd" d="M44.9 28.3C45.2 28 45.6 27.6 45.6 27.1C45.3 27.4 45 27.9 44.9 28.3Z" fill="white"/>
<path fill-rule="evenodd" clip-rule="evenodd" d="M27.3 22.8C27.1 22.6 26.8 22.3 26.7 22C25.9 22.1 26.9 23.6 27.3 22.8Z" fill="white"/>
<path fill-rule="evenodd" clip-rule="evenodd" d="M55.9 30.5C55.6 30.3 55.5 29.9 55.2 29.7C55 29.8 54.7 29.7 54.5 29.8C54.9 30.2 55.3 31.2 55.9 30.5Z" fill="white"/>
<path fill-rule="evenodd" clip-rule="evenodd" d="M44.7 27.7C44.9 27.4 45.6 26.7 45.2 26.4C45 26.8 44.5 27.2 44.7 27.7Z" fill="white"/>
<path fill-rule="evenodd" clip-rule="evenodd" d="M28.4 22.4C28.1 22.1 27.9 21.8 27.7 21.4C27.5 21.4 27.4 21.5 27.2 21.6C27.3 22.2 27.8 23.1 28.4 22.4Z" fill="white"/>
<path fill-rule="evenodd" clip-rule="evenodd" d="M44.4 27C44.6 26.6 45.1 26.1 44.9 25.7C44.6 26 44.2 26.6 44.4 27Z" fill="white"/>
<path fill-rule="evenodd" clip-rule="evenodd" d="M57.1 30.2C57.1 29.9 56.8 29.7 56.7 29.4C56.4 29.5 56.2 29.6 55.9 29.6C56.1 30.1 56.6 30.6 57.1 30.2Z" fill="white"/>
<path fill-rule="evenodd" clip-rule="evenodd" d="M29.6 22.1C29.2 21.7 28.9 20.7 28.2 21.1C28.5 21.7 28.8 22.6 29.6 22.1Z" fill="white"/>
<path fill-rule="evenodd" clip-rule="evenodd" d="M58.5 30C58.3 29.7 58 29.4 57.8 29.1C57.5 29.2 57.2 29.2 57 29.3C57.3 29.9 57.8 30.3 58.5 30Z" fill="white"/>
<path fill-rule="evenodd" clip-rule="evenodd" d="M44 26.3C44.3 26.2 44.3 25.7 44.5 25.4C44.5 25.2 44.4 25.1 44.3 25C44.2 25.4 43.7 25.9 44 26.3Z" fill="white"/>
<path fill-rule="evenodd" clip-rule="evenodd" d="M43.6 25.9C43.8 25.1 44.3 24.5 43.8 24.1C43.5 24.5 42.9 25.6 43.6 25.9Z" fill="white"/>
<path fill-rule="evenodd" clip-rule="evenodd" d="M59.5 30.1C59.2 29.7 59.1 28.9 58.4 29C58.7 29.3 58.8 30 59.5 30.1Z" fill="white"/>
<path fill-rule="evenodd" clip-rule="evenodd" d="M30.6 22C30.5 21.5 30 21.2 29.8 20.8C29.6 20.8 29.5 20.9 29.4 20.9C29.7 21.3 29.9 22.1 30.6 22Z" fill="white"/>
<path fill-rule="evenodd" clip-rule="evenodd" d="M60.7 30.1C60.4 29.7 60.3 29.1 59.6 29C59.8 29.4 60.1 30.1 60.7 30.1Z" fill="white"/>
<path fill-rule="evenodd" clip-rule="evenodd" d="M31.9 22C31.6 21.5 31.3 21.1 31 20.7C30.8 20.7 30.6 20.7 30.4 20.8C30.9 21.2 31 22.2 31.9 22Z" fill="white"/>
<path fill-rule="evenodd" clip-rule="evenodd" d="M43 25.1C43.1 24.7 43.3 24.2 43.5 23.6C43.3 23.5 43.3 23.3 43.1 23.2C42.8 24 42.4 24.7 43 25.1Z" fill="white"/>
<path fill-rule="evenodd" clip-rule="evenodd" d="M61.9 30.2C61.6 29.9 61.6 29.3 60.8 29.3C61 29.6 61.3 30.2 61.9 30.2Z" fill="white"/>
<path fill-rule="evenodd" clip-rule="evenodd" d="M32.7 22C32.5 21.5 32.1 20.9 31.8 20.7C31.7 21 32.4 21.6 32.5 22C32.5 22.1 32.6 21.9 32.7 22Z" fill="white"/>
<path fill-rule="evenodd" clip-rule="evenodd" d="M63 30.3C63 30.2 62.6 29.9 63 29.9C62.8 29.7 62.3 29.7 62 29.5C62.3 29.8 62.5 30.4 63 30.3Z" fill="white"/>
<path fill-rule="evenodd" clip-rule="evenodd" d="M64.3 30.5C64.2 30.4 64.1 30.2 64.1 30.1C63.9 30 63.7 30 63.4 29.9C63.6 30.1 63.7 30.4 64.3 30.5Z" fill="white"/>
<path fill-rule="evenodd" clip-rule="evenodd" d="M33.8 22.1C33.4 21.6 33.4 21 32.6 20.7C33 21.2 32.9 21.9 33.8 22.1Z" fill="white"/>
<path fill-rule="evenodd" clip-rule="evenodd" d="M34.9 22.4C34.4 21.9 34.3 21.2 33.5 20.9C34 21.4 33.9 22.2 34.9 22.4Z" fill="white"/>
<path fill-rule="evenodd" clip-rule="evenodd" d="M35.8 22.5C35.4 22.1 35.3 21.4 34.6 21.2C34.9 21.6 35.2 22.3 35.8 22.5Z" fill="white"/>
<path fill-rule="evenodd" clip-rule="evenodd" d="M42.7 22.9C42.4 22.7 42.3 22.4 41.9 22.2C41.8 22.7 41.6 22.9 41.5 23.4C41.8 23.7 42 23.9 42.2 24.3C42.6 24 42.4 23.3 42.7 22.9Z" fill="white"/>
<path fill-rule="evenodd" clip-rule="evenodd" d="M36.9 22.6C36.5 22.2 36.5 21.6 35.7 21.4C36 21.8 36.1 22.6 36.9 22.6Z" fill="white"/>
<path fill-rule="evenodd" clip-rule="evenodd" d="M37.7 22.8C37.4 22.4 37.4 21.9 36.8 21.7C37.1 22.1 37.2 22.6 37.7 22.8Z" fill="white"/>
<path fill-rule="evenodd" clip-rule="evenodd" d="M25.6 18.4C26.2 18.4 26.6 18.2 27.1 18C27 16.4 26.2 15.1 25.6 13.8C24.9 12.5 24.1 11.2 23.2 10.1C23.7 11.1 24.5 12.1 24.9 13.1C25 13.4 25 13.7 25.1 14C25.2 14.1 25.3 14.2 25.4 14.3C25.4 14.4 25.4 14.6 25.4 14.7C25.5 14.9 25.7 15.2 25.8 15.3C26 16.1 25.8 17.2 25.7 18.2C25.6 18.3 25.6 18.4 25.6 18.4Z" fill="white"/>
<path fill-rule="evenodd" clip-rule="evenodd" d="M31.1 16.7C31.5 16.2 31.4 15 31 14.6C30.8 15.2 30.6 16.3 31.1 16.7Z" fill="white"/>
<path fill-rule="evenodd" clip-rule="evenodd" d="M30.1 15.3C30.2 15.3 30.2 15.3 30.2 15.2C30.1 14.2 30.1 13.2 29.3 12.5C29.3 13 29.4 13.5 29.3 14.1C29.6 14.4 29.9 14.8 30.1 15.3Z" fill="white"/>
<path fill-rule="evenodd" clip-rule="evenodd" d="M28.5 12.9C28.6 12.1 28.3 11.1 27.8 10.4C27.7 10.8 27.9 11.4 27.8 11.9C28.1 12.3 28.4 12.6 28.5 12.9Z" fill="white"/>
<path fill-rule="evenodd" clip-rule="evenodd" d="M26.6 9.10001C26.8 9.60001 26.5 10.5 26.9 10.9C27.2 10.6 26.5 9.80001 26.8 9.40001C26.9 9.30001 26.8 9.20001 26.6 9.10001Z" fill="white"/>
<path fill-rule="evenodd" clip-rule="evenodd" d="M24.8 8.29998C24.9 8.39998 25 8.29998 24.8 8.29998C24.8 7.69998 24.8 6.99998 24.2 6.69998C24.2 6.99998 24.2 7.29998 24.2 7.59998C24.4 7.89998 24.7 8.09998 24.8 8.29998Z" fill="white"/>
<path fill-rule="evenodd" clip-rule="evenodd" d="M23.7 7.2C24 6.7 23.6 5.7 22.9 5.4C22.8 5.6 22.9 5.6 22.8 5.8C21.9 5.7 21.2 5.1 21.2 4.4C21 4.3 20.8 4.2 20.6 4C20.6 4.3 20.7 4.5 20.6 4.8C21.8 5.5 22.8 6.3 23.7 7.2Z" fill="white"/>
<path fill-rule="evenodd" clip-rule="evenodd" d="M22.4 5.29998C22.7 5.19998 22.2 4.79998 21.9 4.69998C21.8 5.09998 22.2 5.09998 22.4 5.29998Z" fill="white"/>
<path fill-rule="evenodd" clip-rule="evenodd" d="M20 4.29999C19.9 3.89999 20 3.49999 19.4 3.39999C19.4 3.59999 19.5 3.79999 19.5 4.09999C19.8 4.09999 19.8 4.29999 20 4.29999Z" fill="white"/>
<path fill-rule="evenodd" clip-rule="evenodd" d="M18.7 3.59999C18.6 3.29999 18.6 2.99999 18.3 2.79999C18.4 3.09999 18.3 3.49999 18.7 3.59999Z" fill="white"/>
<path fill-rule="evenodd" clip-rule="evenodd" d="M17.7 3.1C17.7 2.9 17.6 2.6 17.5 2.5C17.3 2.6 17.5 2.8 17.4 3C17.5 3.1 17.5 3.1 17.7 3.1Z" fill="white"/>
<path fill-rule="evenodd" clip-rule="evenodd" d="M13.9 131.4C14.2 130.9 14.2 130.1 14.4 129.4C14.1 128.8 13.8 128.1 13.5 127.5C13 129 13.4 130.3 13.9 131.4Z" fill="white"/>
<path fill-rule="evenodd" clip-rule="evenodd" d="M32 91.5C32.5 91.9 32.8 92.5 33.2 93C33.1 93.3 33.1 93.7 33.3 93.9C33.9 94.6 35.9 94.4 36.3 94.6C36 95.1 35.7 95.6 35.5 96.2C33.4 96 32.6 95.1 31.8 94.1C31.5 93.7 31.3 92.9 30.7 92.9C31.1 93.3 31 94.1 31.1 94.6C31.5 95.9 33 97.6 34.9 97.1C33.1 100.8 31.2 104.3 29.9 109C29.7 109.2 29.3 109 29.2 109.3C29.1 109.6 29.5 109.5 29.5 109.7C29.3 110.2 29.1 110.6 28.9 111C28.6 110.8 28.4 110.7 28.1 110.5C28.8 108.8 29.7 107.3 30.5 105.7C30.3 105.8 30.1 106.1 30.1 105.9C29 107.4 28 109 27.2 110.9C26.5 111.5 26 112.8 25.5 113.9C24.2 116.9 23.2 120.2 22 123C20.7 121 19.2 119 18 116.9C17.6 116.2 17.2 115.4 16.6 114.8C17.2 116.3 18.1 117.7 19.1 119.1C20 120.5 21 121.9 22 123.2C21.8 123.6 21.7 124.1 21.5 124.4C20.2 122.2 18.5 120 17.2 117.8C16.7 117 16.3 116.3 15.9 115.5C16.6 111.9 17.3 108 18.1 104.1C18.7 101.6 19.4 98.7 20.5 97C20.9 96.3 21.3 95.6 21.9 95.4C22 95.7 22.2 95.9 22.4 96.2C21.9 96.7 20.9 96.8 20.7 97.7C22.3 97.3 23.6 96.2 25.2 95.6C25.4 95.6 25.4 95.8 25.6 95.8C25.7 95.6 25.5 95.6 25.6 95.4C28.2 95.2 30.2 93.5 32 91.5ZM17.2 115.1C17.6 114.3 17.9 113.1 18.1 112C18.4 110.8 18.7 109.6 18.3 108.8C18 110.6 17 113.2 17 115C17.1 115.1 17.1 115.1 17.2 115.1ZM25 107.9C25.5 108.6 26.2 108 26.5 107.6C27.1 106.9 28 105.8 27.7 104.5C27.4 103.5 26.7 101.9 26.3 101.5C25.8 101 23.6 100.7 22.8 101C22.5 101.1 22.3 101.5 21.9 101.8C21.3 102.3 20.6 102.5 20.3 103.1C19.9 103.9 19.9 105.2 20 105.9C20.1 106.5 20.4 107.6 20.9 107.9C21.3 108.2 21.5 107.9 21.9 108.4C23.4 109.1 24.2 108.5 25 107.9ZM27.5 96.6C27.2 96.5 27.4 96.8 27.2 96.9C26.8 96.8 26.3 97 25.8 97.2C25.4 97.4 24.6 97.4 24.5 98C25.4 98.3 27.1 97.7 27.5 96.6Z" fill="white"/>
<path fill-rule="evenodd" clip-rule="evenodd" d="M23.8 106.8C23.8 106.4 23.7 106 23.8 105.5C23.8 105.9 23.4 106.6 23.8 106.8Z" fill="white"/>
<path fill-rule="evenodd" clip-rule="evenodd" d="M27.2 42.2C27.3 42.7 27.4 43.1 27.7 43.4C27.9 43.5 28 43.3 28 43.4C28.1 43.8 28.3 44.1 28.5 44.3C28.6 44.5 28.2 44.5 28.5 44.7C29.6 45.3 30.9 45.9 32.2 46.1C33.4 46.3 34.5 46.2 35.7 45.8C37.1 45.4 38.3 45.1 38.9 44.1C38.8 44.4 38.5 44.2 38.2 44.2C38.3 43.9 38.5 43.7 38.5 43.4C37.8 43.6 37.2 43.9 36.6 44.2C36.4 43.8 35.9 43.3 36 42.9C36.5 42.6 36.6 43.5 37.1 43.6C37.5 43.7 37.7 43.3 38 43C38 42.7 37.7 42.6 37.7 42.3C39.7 41.2 41.4 38.8 42.4 35.8C43.3 33 42.7 31 42.5 29C44 31.5 43.1 37 41.2 40.5C40.8 41.3 40.3 41.7 39.8 42.2C41.6 42 42.4 39.6 43.2 37.3C43.5 36.4 43.8 35.3 44 34.4C44.6 31.2 44.1 29.1 42.9 26.9C41.9 25.2 40.3 23.9 38.4 23C38.3 22.6 37.6 22.1 37.8 21.9C39.7 22.9 41.4 24.2 42.6 25.7C43.5 26.7 43.8 27.3 44.2 28.5C44.3 28.9 44.6 29.4 44.6 29.8C44.7 31 44.2 32.3 44.4 33.7C44.4 33.9 44.2 33.9 44.2 34.1C44.4 34.1 44.4 34.2 44.4 34.3C44.4 35.2 43.5 36.8 44 37.3C44.5 36.9 44.4 36.1 44.8 35.6C45.1 35.2 45.6 35 45.9 34.7C45.2 37.4 44.1 39.2 43.1 41.3C42.2 41.9 41.5 42.9 40.7 43.7C39.8 44.5 38.6 45.1 37.8 46C36.9 46.1 36 46.8 35.2 47.1C34.6 47.3 33.8 47.3 33.5 47.9C33.4 48.2 33.4 48.6 33.3 48.9C32.9 51.1 32.1 53.6 31.8 55.8C32 53.7 32.4 51.2 32.2 49.2C32.2 48.7 32.2 47.6 31.6 47.6C31.5 47.8 31.7 47.9 31.7 48.2C31.7 48.6 31.5 49.1 31.4 49.5C31 51.3 30.9 53.4 30.6 55C30.2 54.8 30.1 53.8 29.4 53.8C29.4 53.5 29.3 53.2 29.4 52.9C29.6 52.9 29.7 53.6 30 53.4C30 52.6 29.4 52.2 29.1 51.5C29.2 51.8 28.9 51.8 28.8 52C29.1 52.6 28.8 53.5 28.8 54.4C28.7 56.3 28.5 58.4 28.2 60.4C27.8 63.2 27.6 66 27.1 68.6C25.4 76.7 24.7 84.6 22.9 92.6C22.5 92.9 22.1 93.3 21.6 93.4C23.7 85.2 24.3 77.9 25.4 69.7C26.3 63.6 27.3 56.9 27.7 51.1C27.8 50.2 27.9 49.3 27.9 48.5C27.9 48.2 27.7 47.9 27.6 47.5C27.3 46.6 27.1 45.5 26.6 44.9C26.4 44.7 26.3 44.5 25.9 44.4C24.6 42.8 23 41.5 21.7 39.9C21.1 39.2 20.6 38.3 20.1 37.4C19.6 36.5 19 35.6 18.8 34.7C18.7 34.3 18.7 33.7 18.6 33.1C18.5 32 18.3 30.9 18.6 29.6C18.9 28.3 19.2 26.9 19.7 25.6C20.2 24.5 21.1 23.5 21.8 22.6C23.4 20.7 24.9 19.8 26.8 18.7C27.1 18.5 27.7 18.4 27.8 18.1C27.9 17.8 27.8 17.2 27.7 17.1C27.7 15.6 26.9 14.3 26.2 13C25 10.7 23.6 8.69999 21.9 6.89999C21.4 6.39999 21 5.89999 20.5 5.59999C19.5 4.79999 18 4.29999 17.4 3.29999C19.3 4.29999 20.8 5.49999 22.1 6.69999C23.7 8.09999 25 9.79999 26.2 11.4C27.7 13.3 28.8 15.5 30.6 17.1C30.8 17.3 31.1 17.7 31.4 17.5C31.6 17.1 31.1 17.1 31.2 16.8C31.4 16.5 31.5 16.1 31.6 15.7C32.1 15.8 31.9 16.5 31.5 16.4C32 16.6 31.5 17.4 31.8 17.7C32.1 17.7 32.1 17.2 32.4 17.2C33.2 17.3 33.7 17.9 34.5 18.1C35.4 18.4 36.4 18.4 37.2 18.7C38.4 19.2 39.4 19.9 40.4 20.5C40.4 20.9 39.9 21.3 40.3 21.5C40.5 21.5 40.5 21 40.6 20.7C40.9 21 41.3 21.1 41.4 21.5C41.4 21.8 41.2 22.2 41.1 22.6C40.1 22 39.1 21 37.8 20.4C35.3 19.4 32.5 19.1 30.3 18.9C30.1 19 29.8 19.1 29.5 19.2C29.2 19.1 29.3 18.9 28.9 18.9C28.6 19 28.9 19.4 28.5 19.3C28.3 19.4 28.2 19.4 27.9 19.3C27.7 19.7 27.2 19.7 26.9 19.8C25.6 20.4 24.2 21.5 23.1 22.8C21.9 24.1 20.7 25.4 20.1 27.2C19.6 30 19.5 32.5 20 34C20.2 34.8 20.6 35.8 21.1 36.7C21.9 38.3 22.8 39.7 24 41C24.5 41.6 25 42.5 25.8 42.7C25.1 41.2 23.6 40 22.9 38.4C21.5 35.3 19.9 32.3 21.8 27.6C22.1 27.9 22.9 28.3 22.5 29.2C22.2 29.2 22.2 28.5 21.6 28.6C21.5 29.2 22 29.4 22.3 29.8C22.2 30.2 22.2 30.5 22.1 30.9C22 31 21.7 30.7 21.6 31C21.9 31.7 22 32.5 22 33.4C21.9 33.5 21.7 33.1 21.6 33.3C21.7 33.8 22 34.1 22.3 34.4C22.9 37.3 24.4 39.8 26.8 41.7C27.2 42 27.7 42.2 27.8 42.6C27.5 42.9 27.4 42.1 27.2 42.2ZM29.1 46.4C28.8 47 31.9 47.9 31.9 47.2C32 46.7 29.5 46.2 29.1 46.4Z" fill="white"/>
<path fill-rule="evenodd" clip-rule="evenodd" d="M41.9 71.2C41.7 71.7 41.4 72.2 41.2 72.6C42.2 70.4 43.2 68.1 44.3 66C44.3 66.1 44.1 66.3 44.2 66.4C45.3 63.7 46.6 61.5 47.9 58.9C48.8 57.1 49.7 55.1 50.6 53.3C50.9 52.7 51.5 52 51.5 51.4C51.5 50.8 51 50.5 50.7 49.9C50.5 49.6 50.5 49.2 50.4 48.9C50.3 48.6 50 48.5 49.9 48.3C49.5 47.7 49.3 47 48.9 46.4C48.5 45.8 47.8 45 47.6 44.4C47.3 43.2 47.2 41.8 47.4 40.1C47.6 38.6 47.7 36.8 48.1 35.3C49 32.2 51.4 29.5 53.4 28.3C54.1 27.9 55.2 27.7 56.2 27.5C57.2 27.2 58.1 26.8 59 26.7C60 26.6 61.2 26.8 62.5 27.1C63.7 27.3 65.1 27.4 66.1 27.7C67.8 28.3 69.1 29.8 70.1 30.9C72.5 33.5 73.4 36.3 73.6 40C73.7 41.8 73.6 44.1 72.8 46C72.6 46.6 72.2 47.1 71.8 47.6C71.4 48.1 71.1 48.7 70.8 49.2C69.9 50.4 68.4 51.4 67.3 52.1C66.8 52.4 66.5 52.8 66 53C64.7 53.7 63.3 53.8 61.8 53.9C61.3 53.9 60.9 54 60.4 54C59.4 54 58.4 53.8 57.3 53.8C56.9 53.8 56.6 54.1 56.3 54.2C55.7 54.3 55.2 54.2 54.5 54.5C54.3 53.3 53.4 52.1 52.7 51C52.7 49.7 52.5 48.5 51.6 47.8C51.4 47.5 51.2 47.1 51 46.8C50.8 46.5 50.7 45.9 50.3 45.9C50.2 46.3 50.7 46.5 50.5 46.7C50.6 46.6 50.3 46.6 50.4 46.8C50.9 48.3 51.8 49.6 52 51.3C48 58.6 44.7 66.5 41 73.8C41 73.7 41 73.7 41 73.6C41.3 72.9 41.8 72 41.9 71.2ZM52.4 30.9C52.8 30.8 53.2 30.6 53.5 30.4C53.7 30.7 53.8 31 54.2 31.2C54.1 30.9 53.8 30.6 53.7 30.3C53.8 30.2 54 30.1 54.1 30C54.1 30.1 54.9 30.8 54.8 31C54.8 31.1 53.8 31.7 53.6 31.8C52.4 32.6 51.3 33.8 50.7 35.2C50.6 35.2 50.3 34.7 50 34.9C49.8 35.5 50.7 35.6 50.2 36.3C50 36.2 49.7 35.8 49.6 35.6C49.7 35 50 34.7 50.2 34.2C49.6 34.1 49.1 35 48.8 35.7C48.2 37.2 47.9 39.2 47.9 40.6C47.9 41.4 48.2 41.9 48.4 42.6C48.7 43.6 48.5 44.9 49.4 45.4C49.6 44.7 49.2 43.9 49.2 43.2C50.6 44.7 52.3 46.5 53.7 48.2C53.8 48.3 53.5 48.2 53.7 48.4C54.2 48.9 54.7 49.7 55.6 50.1C56.3 50.4 57 50.4 57.1 51.1C56.3 51 55.4 50.6 54.7 50.8C55.1 51.4 55.9 51.7 56.7 51.9C58 52.4 59.4 52.9 60.6 53C61.4 53.1 63.1 53 63.9 52.8C64.1 52.7 64.4 52.4 64.7 52.2C65.4 51.8 66.4 51.8 67 51.4C67.4 51.1 67.8 50.7 68.2 50.3C69.4 49.2 70.6 48 71.3 46.1C71.7 45 72 44 72.3 42.8C72.6 41.3 72.9 39.4 72.7 38C72.4 36.6 72 35.2 71.1 34.4C70.2 31.4 67.4 29.1 62.6 28.1C60.4 27.6 58.4 27.4 56.9 28.1C56.6 28.2 56.3 28.6 56 28.7C55.5 28.9 54.9 28.7 54.4 29C54 29.2 53.7 29.6 53.4 29.9C53 30.3 52.6 30.5 52.4 30.9Z" fill="white"/>
<path fill-rule="evenodd" clip-rule="evenodd" d="M51 44.5C50.7 43.4 49.9 42.2 48.9 41.4C48.8 42.9 50.4 43.4 51 44.5Z" fill="white"/>
<path fill-rule="evenodd" clip-rule="evenodd" d="M71.3 39.1C71.1 37.9 71 36.6 70.5 35.6C70.1 34.8 69.5 34.3 68.8 33.5C67.7 32.3 66.8 31 64.8 30.4C65.1 31 65.9 31 66.4 31.2C66.8 31.5 67 31.9 67.3 32.2C67.9 32.7 68.4 33 68.8 33.4C69.6 34.2 70.1 35.3 70.5 36.5C70.6 37 70.6 37.7 70.8 38.3C70.8 38.6 71.2 39.1 71.3 39.1Z" fill="white"/>
<path fill-rule="evenodd" clip-rule="evenodd" d="M25.9 9.59999C26 9.29999 25.7 8.79999 25.7 8.29999C25.5 8.69999 25.6 9.29999 25.9 9.59999Z" fill="white"/>
</g>
<defs>
<clipPath id="clip0">
<rect width="75.6" height="185.8" fill="white"/>
</clipPath>
</defs>
</svg>
