<svg width="133" height="106" viewBox="0 0 133 106" fill="none" xmlns="http://www.w3.org/2000/svg">
<g opacity="0.2">
<path fill-rule="evenodd" clip-rule="evenodd" d="M11 40.7C9.2 41 7.3 41.7 5.3 43.1C4.2 43.9 3.3 45.1 2.5 46.2C0.8 48.3 0 50.6 0 53.1C0 54.4 0 55.7 0.3 56.9C0.7 58.5 1.6 59.9 2.4 61.2C2.9 61.9 3.3 62.6 3.8 63.1C4.3 63.5 4.9 63.7 5.4 64.1C5.9 64.4 6.5 64.6 7.1 64.9C7.7 65.2 8.2 65.5 8.8 65.8C10.5 66.5 12.3 66.4 14.2 66.2C13.5 67.4 12.5 68.3 12.3 69.6C12.2 70.2 12.3 70.9 12.1 71.5C12 72.1 11.9 72.8 11.9 73.4C11.9 74.1 12 74.7 12.1 75.4C12.2 76.6 12 78 12.6 79.4C12.9 80.1 13.5 80.7 13.9 81.5C14.2 82.2 14.3 83.1 14.4 83.8C14.5 84.5 14.4 85.3 14.3 85.9C14.1 87.3 13.8 88.7 13.7 90.1C13.6 92.3 13.6 94.4 14 96.8C14.1 97.5 14.2 98.3 14.3 99C14.8 99.7 15 100.8 15.5 101.9C15.9 102.9 16.6 104.1 17.3 104.7C17.7 105 18.2 105 18.7 105.1C19 104.7 19.1 104.5 19.4 104.3C19.4 103.6 19.3 102.9 19.1 102.2C18.5 100.1 18.6 98.2 18.7 96.1C18.8 95.4 18.8 94.8 18.9 94.2C19.1 93.6 19.3 93 19.5 92.4C20 91 20.3 89.4 21.4 88.4C21.7 88.1 22.2 87.7 22.6 87.6C23.1 87.4 23.8 87.7 24.3 87.7C24.9 87.8 25.4 87.8 26 87.8C27.2 87.8 28.5 87.7 29.6 87.2C31.2 86.5 32.8 85.3 33.6 84.4C34 84 34.3 83.4 34.7 82.9C35.8 81.3 36.6 79.8 37 78C37.3 76.8 37.5 75.7 37.5 74.5C37.5 73.9 37.6 73.3 37.5 72.7C37.4 72.1 37.2 71.3 37.2 70.7C37.3 69.7 38.3 68.3 39.3 67.2C40.4 66.1 41.4 65.1 42.5 64.1C44.9 62 47.8 60 50.2 58.1C53 55.9 55.6 54 57.9 52.1C59.2 51.1 60.4 50.1 61.7 49.1C63.4 47.7 64.9 46.3 67.1 45.2C67.6 44.9 68.2 44.6 68.6 44.5C68.8 44.5 68.8 44.5 69 44.5C69.4 44.5 69.6 44.3 69.9 44.3C70 44.3 70 44.4 70.1 44.4C70.9 44.4 71.8 44.4 72.7 44C74.1 43.4 75.5 42.3 76.8 41.4C85.4 35.3 93.9 28.9 102.6 22.8C105 21.1 107.7 19.4 110.1 17.7C112.6 16 115.3 14.2 117.7 12.5C120 10.8 122.5 9.1 125.3 7.3C127.1 6.1 129.2 4.6 130.7 3.3C131.6 2.5 132.9 1.7 132.3 0.7C132 0.2 131.5 0.1 130.9 0.4C130.8 0.3 131.2 0.1 131 0C129.3 0.1 127.6 0.8 125.9 1.5C125 1.9 124.1 2.3 123.2 2.6C122.3 2.9 121.4 3.3 120.6 3.7C119.3 4.3 118 5.1 116.7 5.7C113 7.4 109.2 9.1 105.4 10.8C104.1 11.4 102.8 12.1 101.5 12.8C100.3 13.4 99 13.9 97.7 14.5C90.2 18.2 82.5 22 74.8 25.7C70.9 27.6 67.2 29.6 63.3 31.5C62 32.1 60.7 32.8 59.5 33.4C58.8 33.7 58 33.9 57.3 34.2C52.2 36.2 47.1 38.2 42 40.1C39.2 41.2 36.2 42.6 33.2 43.6C31.2 44.3 28.9 45.1 26.7 45.8C26 46 25 46.5 24.6 46.4C24.1 46.4 22.9 45.2 22.4 44.7C20.4 42.8 18.1 41.3 15.7 40.9C14.6 40.6 12.8 40.4 11 40.7ZM5.2 55.2C4.8 54.2 4.8 52.2 5 51.3C5.5 49.7 7.7 47.4 9.7 46.7C10.1 46.5 10.6 46.5 11.1 46.4C13.1 46 14.6 46.3 16.2 47C16.9 47.3 17.8 47.7 18.3 48.4C18.9 49.1 19.7 50.5 19.9 51.2C20.1 51.8 20 52.5 19.9 53.1C19.9 53.7 19.9 54.4 19.7 54.9C19.4 55.9 18.4 57.5 17.5 58.3C16.8 58.9 16.1 59.2 15.4 59.7C13.7 60.7 12.5 60.7 11.2 60.3C10.3 60.1 8.8 59.4 7.9 58.7C7.3 58.1 5.7 56.4 5.2 55.2ZM19 70C19.4 69.4 19.9 68.7 20.4 68.2C22 66.8 23.8 66.5 25.2 66.4C26 66.4 26.9 66.4 27.7 66.4C28.3 66.8 28.9 67.1 29.5 67.5C30.1 67.9 30.8 68.3 31.3 68.7C32 69.4 32.5 70.3 32.6 71.1C32.8 72.2 32.8 73.8 32.5 75C32.2 76.3 31.5 78 30.7 79.1C29.7 80.4 28.1 81.1 26.5 82.1C25.3 82 24.1 82.1 23 81.8C22.5 81.6 21.5 81.2 21.1 80.9C20.7 80.6 20.4 80.2 20.1 79.8C19.7 79.4 19.3 79.1 19.1 78.8C17.7 76.9 17.3 75.3 17.4 73.8C17.5 72.4 18.1 71.4 19 70ZM23.2 60.8C24.5 58.9 25.1 56.9 25.6 54.7C25.7 54.2 25.7 53.3 26 53C26.3 52.8 27 52.5 27.6 52.3C29.3 51.6 30.9 51 32.5 50.4C36.9 48.9 41.1 47.2 45.5 45.2C47.1 44.5 48.8 43.8 50.4 43.2C51 43 51.5 42.6 52.1 42.4C53.1 41.9 54.2 41.8 55.2 41.3C55.4 41.4 55.8 41.2 56 41.4C57.5 41.3 59 41.4 60.3 42C59.3 42.9 58.2 43.9 57.1 44.8C56 45.7 55 46.6 53.9 47.5C50.7 50.2 47.2 52.7 44 55.5C41.9 57.4 39.4 59.1 37 60.7C35.8 61.5 34.6 62.5 33.1 62.9C32 62.4 31 61.7 29.8 61.5C28.7 61.3 27.6 61.4 26.5 61.2C25.4 60.9 24.3 60.8 23.2 60.8Z" fill="#01133F"/>
<path fill-rule="evenodd" clip-rule="evenodd" d="M119.5 7.2002C119.6 7.5002 119.7 7.90019 119.8 8.20019C123.1 6.4002 127 5.0002 130.3 2.6002C130.7 2.3002 131.1 1.8002 131.2 1.4002C131.2 1.3002 131.2 1.3002 131.2 1.2002C127.3 3.5002 123.4 5.2002 119.5 7.2002Z" fill="white"/>
<path fill-rule="evenodd" clip-rule="evenodd" d="M129.1 1.2002C126.7 1.9002 123.8 3.30019 121.3 4.5002C114.4 7.80019 107.2 11.0002 100.2 14.7002C100.2 14.6002 100.4 14.5002 100.5 14.4002C91.1 18.7002 81.6 23.8002 72.2 28.1002C79.8 24.6002 87.6 21.2002 95.4 17.5002C97.3 16.6002 99.2 15.7002 101.2 14.8002C106 12.7002 110.7 10.2002 115.6 7.8002C116.6 7.3002 117.6 7.0002 118.5 6.4002C118.7 6.3002 118.9 6.3002 118.8 6.0002C119.1 6.20019 119.5 5.9002 119.8 5.8002C121.4 5.1002 123.2 4.3002 125 3.5002C125.7 3.2002 126.5 2.9002 127.1 2.6002C127.2 2.6002 127.2 2.4002 127.4 2.3002C127.8 1.8002 128.9 1.7002 129.1 1.2002Z" fill="white"/>
<path fill-rule="evenodd" clip-rule="evenodd" d="M121.6 8.6001C119.1 10.1001 116.6 12.0001 113.9 13.5001C112.1 14.6001 110.4 15.8001 108.7 16.9001C108.2 17.3001 107.5 17.5001 107.2 18.1001C106.6 18.1001 106.1 18.7001 105.5 19.0001C101.5 21.6001 97.5 24.4001 93.8 27.2001C92.4 28.3001 90.9 29.2001 89.7 30.2001C89.4 30.4001 89.3 30.6001 89.2 30.8001C89 30.8001 89 30.7001 88.7 30.9001C88.2 31.1001 87.6 31.7001 87 32.1001C86.4 32.5001 85.7 32.9001 85.5 33.4001C85.4 33.1001 84.8 33.7001 84.5 33.9001C80.5 36.6001 77 39.6001 72.5 42.2001C73.9 42.0001 75.3 40.8001 76.8 39.8001C79.7 37.8001 82.7 35.5001 85.7 33.5001C87.8 32.1001 89.8 30.8001 91.7 29.4001C93.6 28.0001 95.5 26.6001 97.5 25.2001C105.6 19.5001 113.8 14.3001 121.6 8.6001Z" fill="white"/>
<path fill-rule="evenodd" clip-rule="evenodd" d="M119 7.5C117 8.3 114.9 9.3 112.9 10.4C113 10.7 113.1 11.2 113.1 11.4C115.2 10.4 117.3 9.4 119.4 8.3C119.2 8.2 119 7.7 119 7.5Z" fill="white"/>
<path fill-rule="evenodd" clip-rule="evenodd" d="M117.1 10.2998C114.3 11.4998 111.5 13.0998 108.7 14.1998C108.6 14.8998 108.2 15.6998 108.1 16.1998C110.8 14.1998 114.2 12.3998 117.1 10.2998Z" fill="white"/>
<path fill-rule="evenodd" clip-rule="evenodd" d="M111.5 11.2002C111.6 11.5002 111.7 11.7002 111.7 12.0002C112.1 11.9002 112.5 11.7002 112.9 11.4002C112.8 11.2002 112.6 10.9002 112.6 10.7002C112.3 10.7002 111.9 11.1002 111.5 11.2002Z" fill="white"/>
<path fill-rule="evenodd" clip-rule="evenodd" d="M111.1 11.5C110.9 11.7 110.7 11.6 110.5 11.8C110.6 12 110.8 12.3 110.8 12.5C111 12.6 111.2 12.4 111.4 12.2C111.3 12 111.3 11.7 111.1 11.5Z" fill="white"/>
<path fill-rule="evenodd" clip-rule="evenodd" d="M110.6 12.5999C110.6 12.3999 110.3 12.0999 110.1 11.8999C109.9 11.9999 109.7 12.0999 109.5 12.2999C109.6 12.4999 109.6 12.6999 109.8 12.8999C110 12.8999 110.3 12.6999 110.6 12.5999Z" fill="white"/>
<path fill-rule="evenodd" clip-rule="evenodd" d="M109.1 12.5C108.8 12.7 108.6 12.7 108.3 12.9C108.5 13.1 108.4 13.3 108.6 13.5C108.9 13.4 108.7 13.1 108.9 13C109.1 13 108.9 13.3 109.1 13.4C109.2 13.3 109.3 13.3 109.4 13.2C109.2 12.9 109.3 12.7 109.1 12.5Z" fill="white"/>
<path fill-rule="evenodd" clip-rule="evenodd" d="M108.2 13.7002C108.1 13.5002 108 13.3002 107.9 13.2002C107.7 13.2002 107.4 13.4002 107.2 13.5002C107.3 13.7002 107.3 13.9002 107.4 14.0002C107.6 13.9002 107.9 13.8002 108.2 13.7002Z" fill="white"/>
<path fill-rule="evenodd" clip-rule="evenodd" d="M108.3 14.5C106.7 14.6 107 16.5 106.4 17.4C108 16.8 107.8 15.4 108.3 14.5Z" fill="white"/>
<path fill-rule="evenodd" clip-rule="evenodd" d="M106.7 13.6001C106.4 13.7001 106.1 13.8001 105.9 14.0001C106 14.2001 106.1 14.4001 106 14.5001C106.3 14.5001 106.7 14.2001 107 14.1001C106.8 14.0001 106.9 13.8001 106.7 13.6001Z" fill="white"/>
<path fill-rule="evenodd" clip-rule="evenodd" d="M106.7 15.1001C106.4 15.2001 105.9 15.2001 105.7 15.4001C105.4 15.7001 105.4 16.9001 105 17.3001C105.3 17.2001 105.7 16.9001 106 16.9001C106.3 16.3001 106.5 15.7001 106.7 15.1001Z" fill="white"/>
<path fill-rule="evenodd" clip-rule="evenodd" d="M105.8 14.7002C105.8 14.6002 105.5 14.5002 105.5 14.2002C105 14.4002 104.6 14.6002 104.5 15.0002C104.3 15.2002 104.2 14.8002 104.1 14.8002C101.4 16.1002 98.8 17.2002 96.1 18.5002C96.2 18.7002 96.1 18.8002 96.2 19.0002C99.4 17.6002 102.6 16.0002 105.8 14.7002Z" fill="white"/>
<path fill-rule="evenodd" clip-rule="evenodd" d="M105.1 15.6001C104.6 15.9001 104.1 15.9001 103.8 16.3001C103.4 16.7001 103.5 18.0001 103.2 18.4001C103.6 18.0001 104.1 18.0001 104.4 17.7001C104.6 17.5001 104.7 16.9001 104.8 16.6001C105 16.3001 105.2 15.9001 105.1 15.6001Z" fill="white"/>
<path fill-rule="evenodd" clip-rule="evenodd" d="M106.1 17.2002C105.7 17.6002 104.7 18.1002 104.6 18.7002C105.2 18.4002 106 17.8002 106.1 17.2002Z" fill="white"/>
<path fill-rule="evenodd" clip-rule="evenodd" d="M103.5 16.5C100 18.1 96.5 20.1 93 21.5C92.8 23 92.4 24.5 92.1 25.9C92.6 25.4 93.2 25.2 93.6 24.8C93.9 24.4 94.1 23.3 94.3 22.8C94.6 22.1 94.9 21.5 95.1 20.9C95 21.9 94.5 23.3 94.3 24.3C96.9 22.5 99.5 20.7 102.4 18.9C102.9 18.1 103.1 17.3 103.5 16.5Z" fill="white"/>
<path fill-rule="evenodd" clip-rule="evenodd" d="M104.2 18.7002C103.5 19.0002 102.6 19.6002 102.5 20.1002C103.2 19.8002 104.2 19.3002 104.2 18.7002Z" fill="white"/>
<path fill-rule="evenodd" clip-rule="evenodd" d="M102.2 20.1001C100.8 20.9001 98.2 22.7001 96.2 23.9001C95.5 24.3001 94.6 24.6001 94.2 25.1001C93.8 25.5001 93.7 26.2001 93.6 26.6001C95.9 25.0001 98.6 23.1001 101 21.4001C101.5 20.9001 102 20.7001 102.2 20.1001Z" fill="white"/>
<path fill-rule="evenodd" clip-rule="evenodd" d="M95.6 18.7002C95.3 18.8002 94.9 19.0002 94.6 19.2002C94.7 19.4002 94.5 19.5002 94.6 19.6002C95.1 19.5002 95.8 19.2002 95.6 18.7002Z" fill="white"/>
<path fill-rule="evenodd" clip-rule="evenodd" d="M94.1 19.5C93.9 19.5 93.6 19.7 93.4 19.9C93.4 20 93.4 20.1 93.5 20.2C93.7 20.1 93.9 20 94.2 19.9C94.1 19.7 94.2 19.6 94.1 19.5Z" fill="white"/>
<path fill-rule="evenodd" clip-rule="evenodd" d="M92.9 20C92.6 20.1 92.4 20.3 92.1 20.4C92.1 20.5 92.1 20.6 92.2 20.7C92.5 20.6 92.7 20.5 93 20.3C92.9 20.2 93 20.1 92.9 20Z" fill="white"/>
<path fill-rule="evenodd" clip-rule="evenodd" d="M92.6 21.7998C92.4 21.8998 92 21.8998 91.7 22.0998C91.5 22.2998 91.5 22.9998 91.5 23.2998C91.3 24.4998 90.9 25.8998 90.7 26.8998C90.9 26.6998 91.2 26.4998 91.4 26.2998C92 24.8998 92.2 23.3998 92.6 21.7998Z" fill="white"/>
<path fill-rule="evenodd" clip-rule="evenodd" d="M91.7 20.7001C91.5 20.6001 91.2 20.9001 91 20.9001C91.1 21.0001 91 21.0001 91.1 21.1001C91.3 21.0001 91.5 21.0001 91.7 20.8001V20.7001Z" fill="white"/>
<path fill-rule="evenodd" clip-rule="evenodd" d="M91.3 22.3999C91 22.4999 90.7 22.4999 90.4 22.7999C90.1 23.0999 90.1 24.1999 90 24.6999C89.7 26.5999 89 28.5999 88.6 30.1999C89.7 29.7999 89.6 28.7999 89.8 27.9999C90.5 26.0999 90.9 23.9999 91.3 22.3999Z" fill="white"/>
<path fill-rule="evenodd" clip-rule="evenodd" d="M90.7 21.2002C90.4 21.2002 89.7 21.6002 89.5 21.8002C89.7 21.8002 90.5 21.5002 90.7 21.2002Z" fill="white"/>
<path fill-rule="evenodd" clip-rule="evenodd" d="M90.1 22.8999C89.8 22.8999 89.3 23.1999 89 23.2999C88.8 25.8999 88 28.5999 87.3 30.9999C87.6 30.7999 87.9 30.5999 88.3 30.3999C88.9 27.9999 89.4 25.3999 90.1 22.8999Z" fill="white"/>
<path fill-rule="evenodd" clip-rule="evenodd" d="M89 22.1C89 22.1 89 22 88.9 22C88.8 22.1 88.5 22.1 88.4 22.3C88.6 22.3 88.8 22.1 89 22.1Z" fill="white"/>
<path fill-rule="evenodd" clip-rule="evenodd" d="M91.4 27C90.2 27.4 90.5 28.4 90.1 29.1C91.2 28.7 91 27.7 91.4 27Z" fill="white"/>
<path fill-rule="evenodd" clip-rule="evenodd" d="M88.8 23.5C88.5 23.6 88.4 24 88.1 23.8C87.6 26.4 87 29.2 86.3 31.7C86.5 31.6 86.6 31.5 86.8 31.4C87.6 28.9 88 26.1 88.8 23.5Z" fill="white"/>
<path fill-rule="evenodd" clip-rule="evenodd" d="M88 22.3999C87.8 22.3999 87.3 22.5999 87.3 22.7999C87.5 22.7999 88 22.5999 88 22.3999Z" fill="white"/>
<path fill-rule="evenodd" clip-rule="evenodd" d="M87.7 24C87.5 24.2 86.9 24.2 86.6 24.5C86.5 24.6 86.4 26.2 86.3 26.5C86 28.5 85.6 30.8 85.2 32.5C85.3 32.4 85.5 32.3 85.6 32.2C85.9 31.9 86.1 30.7 86.2 30.2C86.8 28.1 87.1 26 87.7 24Z" fill="white"/>
<path fill-rule="evenodd" clip-rule="evenodd" d="M86.9 22.8998C86.7 22.7998 86.4 23.0998 86.2 23.0998C86.2 23.1998 86.2 23.2998 86.3 23.3998C86.5 23.2998 87 23.1998 86.9 22.8998Z" fill="white"/>
<path fill-rule="evenodd" clip-rule="evenodd" d="M86.9 23.2998C86.7 23.2998 86.5 23.3998 86.3 23.4998C86.4 23.5998 86.7 23.3998 86.9 23.2998Z" fill="white"/>
<path fill-rule="evenodd" clip-rule="evenodd" d="M85.7 23.3999C85.5 23.4999 85.4 23.4999 85.2 23.5999C85.3 23.7999 85.2 23.8999 85.4 24.0999C85.5 23.9999 85.7 23.8999 85.9 23.7999C85.8 23.6999 85.9 23.4999 85.7 23.3999Z" fill="white"/>
<path fill-rule="evenodd" clip-rule="evenodd" d="M86.4 24.7002C86 24.7002 85.6 25.1002 85.2 25.2002C85.1 28.1002 84.4 30.8002 83.8 33.5002C85.1 33.0002 84.9 31.9002 85.1 30.9002C85.6 28.8002 85.9 26.5002 86.4 24.7002Z" fill="white"/>
<path fill-rule="evenodd" clip-rule="evenodd" d="M78.5 26.5998C78.6 26.7998 78.7 26.9998 78.9 27.1998C80.9 26.3998 82.9 25.2998 85 24.2998C85 24.1998 84.9 23.9998 84.9 23.7998C82.8 24.5998 80.6 25.6998 78.5 26.5998Z" fill="white"/>
<path fill-rule="evenodd" clip-rule="evenodd" d="M78.1 26.7998C77.9 26.8998 77.7 26.9998 77.4 27.0998C77.5 27.2998 77.6 27.4998 77.8 27.6998C78 27.5998 78.2 27.4998 78.4 27.4998C78.3 27.2998 78.2 27.0998 78.1 26.7998Z" fill="white"/>
<path fill-rule="evenodd" clip-rule="evenodd" d="M77 27.2998C76.8 27.3998 76.6 27.3998 76.4 27.5998C76.6 27.7998 76.5 27.9998 76.7 28.1998C76.9 28.0998 77.1 27.9998 77.3 27.9998C77.3 27.7998 77.1 27.4998 77 27.2998Z" fill="white"/>
<path fill-rule="evenodd" clip-rule="evenodd" d="M76.1 27.8002C75.9 27.7002 75.6 27.9002 75.4 28.0002C75.6 28.2002 75.5 28.4002 75.6 28.7002C75.9 28.5002 76.1 28.5002 76.4 28.4002C76.3 28.2002 76 27.9002 76.1 27.8002Z" fill="white"/>
<path fill-rule="evenodd" clip-rule="evenodd" d="M74.2 28.4998C74.3 28.6998 74.4 28.8998 74.5 29.1998C74.7 28.9998 74.9 28.9998 75.2 28.7998C75.1 28.5998 75.1 28.3998 75 28.1998C74.8 28.0998 74.5 28.3998 74.2 28.4998Z" fill="white"/>
<path fill-rule="evenodd" clip-rule="evenodd" d="M73.7 28.7002C73.4 28.8002 73 29.0002 72.6 29.1002C72.8 29.4002 73 29.4002 73.1 29.7002C73.4 29.6002 73.6 29.5002 73.9 29.3002C73.9 29.1002 73.8 28.9002 73.7 28.7002Z" fill="white"/>
<path fill-rule="evenodd" clip-rule="evenodd" d="M73.8 33.9001C74.5 35.1001 74.2 36.1001 73.6 37.0001C74.4 36.5001 74.4 35.5001 74.7 34.7001C74.5 34.2001 74.1 33.7001 73.8 33.9001Z" fill="white"/>
<path fill-rule="evenodd" clip-rule="evenodd" d="M73.2 34.5002C73.1 34.3002 73 34.3002 72.9 34.2002C72.1 35.0002 71.3 35.8002 70.7 36.6002C71.4 36.2002 72.2 35.1002 73.1 34.6002C73.1 34.5002 73.2 34.5002 73.2 34.5002Z" fill="white"/>
<path fill-rule="evenodd" clip-rule="evenodd" d="M72.5 33.9999C72.3 33.8999 72.2 33.8999 72 33.8999C71.6 34.4999 70.9 34.8999 70.8 35.5999C71.3 35.1999 71.9 34.4999 72.5 33.9999Z" fill="white"/>
<path fill-rule="evenodd" clip-rule="evenodd" d="M73.2 35.6001C72.8 35.9001 72.4 36.5001 71.9 36.8001C72.2 36.9001 72.8 36.5001 73.1 36.2001C73.3 35.9001 73.1 35.7001 73.2 35.6001Z" fill="white"/>
<path fill-rule="evenodd" clip-rule="evenodd" d="M71.5 33.8999C71.4 33.8999 70.9 34.0999 71.1 34.2999C71.3 34.0999 71.3 33.9999 71.5 33.8999Z" fill="white"/>
<path fill-rule="evenodd" clip-rule="evenodd" d="M71.9 37.1L71.8 37C71.7 37 71.6 37.1 71.6 37.1C71.7 37.2 71.8 37.2 71.9 37.1Z" fill="white"/>
<path fill-rule="evenodd" clip-rule="evenodd" d="M67.9 41.6999C67.7 41.6999 67.4 41.3999 67.3 41.4999C67.1 41.5999 67.3 42.0999 67 42.2999C67.2 42.3999 67.4 42.3999 67.6 42.3999C67.7 42.1999 67.8 41.8999 67.9 41.6999Z" fill="white"/>
<path fill-rule="evenodd" clip-rule="evenodd" d="M69.1 43.8002C69 43.7002 68.8 43.8002 68.7 43.9002C68.8 44.0002 68.9 43.8002 69.1 43.8002Z" fill="white"/>
<path fill-rule="evenodd" clip-rule="evenodd" d="M67 41.4999C66.9 41.4999 66.7 41.3999 66.6 41.3999C66.6 41.6999 66.5 41.8999 66.4 42.0999C66.5 42.1999 66.6 42.1999 66.8 42.1999C66.9 41.9999 66.8 41.6999 67 41.4999Z" fill="white"/>
<path fill-rule="evenodd" clip-rule="evenodd" d="M66.2 41.3001C66.1 41.2001 65.9 41.3001 65.8 41.1001C65.6 41.4001 65.6 41.7001 65.4 41.9001C65.6 42.0001 65.7 42.1001 65.9 42.0001C66.1 41.8001 66.1 41.5001 66.2 41.3001Z" fill="white"/>
<path fill-rule="evenodd" clip-rule="evenodd" d="M65.5 40.9998C65.4 40.8998 65.2 40.8998 65.1 40.7998C64.9 41.0998 64.9 41.3998 64.7 41.6998C64.9 41.7998 65 41.7998 65.2 41.8998C65.3 41.5998 65.4 41.2998 65.5 40.9998Z" fill="white"/>
<path fill-rule="evenodd" clip-rule="evenodd" d="M64.6 40.7C64.4 40.6 64.1 40.3 64 40.4C63.8 40.5 63.9 41.2 63.6 41.4C63.8 41.6 64 41.5 64.2 41.7C64.4 41.3 64.4 41 64.6 40.7Z" fill="white"/>
<path fill-rule="evenodd" clip-rule="evenodd" d="M63.5 40.3C63.4 40.2 62.7 40 62.6 40C62.4 40.1 62.5 40.7 62.3 40.9C62.6 41 62.8 41.1 63.1 41.2C63.3 41 63.3 40.6 63.5 40.3Z" fill="white"/>
<path fill-rule="evenodd" clip-rule="evenodd" d="M62.1 40.1C61.9 40 61.7 40.1 61.6 40C61.5 40.1 61.4 40.3 61.4 40.5C61.5 40.6 61.7 40.7 61.9 40.7C62 40.6 62 40.3 62.1 40.1Z" fill="white"/>
<path fill-rule="evenodd" clip-rule="evenodd" d="M61.2 40.1001C61 40.1001 60.8 40.1001 60.6 40.1001C60.6 40.3001 60.9 40.3001 61.1 40.4001C61.1 40.3001 61.1 40.2001 61.2 40.1001Z" fill="white"/>
<path fill-rule="evenodd" clip-rule="evenodd" d="M62.7 42.8998C62.7 42.8998 62.6 42.8998 62.5 42.7998C62.3 43.4998 62.3 44.1998 62.2 44.8998C62.6 44.2998 62.4 43.4998 62.7 42.8998Z" fill="white"/>
<path fill-rule="evenodd" clip-rule="evenodd" d="M57.9 35.2002C52.5 37.5002 47.2 39.6002 41.9 41.7002C47.3 40.0002 52.8 37.7002 58.2 35.9002C58.1 35.7002 57.8 35.4002 57.9 35.2002Z" fill="white"/>
<path fill-rule="evenodd" clip-rule="evenodd" d="M58.5 36.3999C58.1 36.6999 58.2 37.3999 58.1 37.7999C58 38.2999 57.9 38.7999 57.9 39.2999C58.6 39.2999 58.6 38.6999 58.7 37.9999C58.7 37.3999 58.8 36.8999 58.5 36.3999Z" fill="white"/>
<path fill-rule="evenodd" clip-rule="evenodd" d="M61.9 42.6001C61.8 43.5001 61.6 44.6001 61.5 45.3001C61.9 45.0001 61.7 44.5001 61.8 44.1001C61.8 43.6001 61.9 43.1001 62 42.7001C62 42.6001 61.9 42.7001 61.9 42.6001Z" fill="white"/>
<path fill-rule="evenodd" clip-rule="evenodd" d="M61.2 42.2998C60.8 42.3998 60.9 42.8998 60.9 43.1998C60.8 44.0998 60.6 45.0998 60.6 45.9998C60.7 45.8998 60.9 45.6998 61.1 45.5998C61.2 44.4998 61.3 43.4998 61.4 42.4998C61.4 42.3998 61.3 42.3998 61.2 42.2998Z" fill="white"/>
<path fill-rule="evenodd" clip-rule="evenodd" d="M57.7 36.7001C57.6 36.6001 57.5 36.7001 57.4 36.8001C57.6 37.2001 57.4 37.7001 57.4 38.1001C57.3 38.5001 57.2 39.0001 57.3 39.3001C57.6 38.5001 57.6 37.6001 57.7 36.7001Z" fill="white"/>
<path fill-rule="evenodd" clip-rule="evenodd" d="M57 37C56.8 37 56.6 37.1 56.5 37.1C56.6 37.9 56.4 38.7 56.3 39.5C56.4 39.4 56.5 39.4 56.7 39.3C56.8 38.6 56.8 37.8 57 37Z" fill="white"/>
<path fill-rule="evenodd" clip-rule="evenodd" d="M60.4 43.1001C60.3 43.1001 60.2 43.3001 60 43.4001C59.9 44.5001 59.7 45.7001 59.6 46.7001C59.8 46.6001 59.9 46.4001 60.1 46.3001C60.2 45.2001 60.3 44.2001 60.4 43.1001Z" fill="white"/>
<path fill-rule="evenodd" clip-rule="evenodd" d="M55.6 37.5002C55.6 38.3002 55.3 39.1002 55.3 39.9002C55.9 39.8002 55.8 39.0002 55.9 38.5002C56 38.0002 56 37.6002 56.1 37.3002C56 37.2002 55.8 37.4002 55.6 37.5002Z" fill="white"/>
<path fill-rule="evenodd" clip-rule="evenodd" d="M59.6 43.8999C59.4 43.8999 59.4 44.0999 59.2 44.1999C59.1 45.1999 59 46.1999 58.9 47.1999C59.1 47.2999 59.2 46.9999 59.4 46.8999C59.4 45.8999 59.4 44.8999 59.6 43.8999Z" fill="white"/>
<path fill-rule="evenodd" clip-rule="evenodd" d="M55.3 37.6001C55.1 37.6001 54.8 37.8001 54.5 37.9001C54.7 38.7001 54.4 39.4001 54.3 40.2001C55.1 40.2001 54.9 39.6001 55.1 38.9001C55.1 38.3001 55.2 38.0001 55.3 37.6001Z" fill="white"/>
<path fill-rule="evenodd" clip-rule="evenodd" d="M58.6 44.7002C58.5 44.7002 58.4 44.9002 58.2 45.0002C58.3 46.0002 58 47.0002 58 47.9002C58.2 47.8002 58.3 47.7002 58.4 47.6002C58.4 46.6002 58.5 45.7002 58.6 44.7002Z" fill="white"/>
<path fill-rule="evenodd" clip-rule="evenodd" d="M54.4 37.8999C54.2 37.8999 54 37.9999 53.8 38.0999C53.9 38.8999 53.5 39.7999 53.5 40.3999C53.6 40.3999 53.8 40.2999 53.9 40.2999C54.1 39.4999 54.1 38.6999 54.4 37.8999Z" fill="white"/>
<path fill-rule="evenodd" clip-rule="evenodd" d="M53.6 38.2002C49.7 39.7002 45.9 41.0002 42 42.3002C42.1 43.0002 41.9 43.8002 41.9 44.5002C44.9 43.3002 48.3 42.4002 51.5 41.3002C51.9 41.2002 52.6 41.0002 52.9 40.8002C53.2 40.5002 53.4 38.6002 53.6 38.2002Z" fill="white"/>
<path fill-rule="evenodd" clip-rule="evenodd" d="M57.7 45.4999C57.6 45.3999 57.5 45.5999 57.4 45.6999C57.5 46.5999 57.2 47.5999 57.3 48.3999C57.6 48.2999 57.5 47.8999 57.5 47.6999C57.5 46.9999 57.6 46.2999 57.7 45.4999Z" fill="white"/>
<path fill-rule="evenodd" clip-rule="evenodd" d="M57 46.1001C56.8 46.1001 56.7 46.4001 56.5 46.4001C56.7 47.3001 56.4 48.1001 56.4 49.0001C56.5 49.1001 56.6 48.8001 56.8 48.8001C56.8 47.9001 56.9 47.0001 57 46.1001Z" fill="white"/>
<path fill-rule="evenodd" clip-rule="evenodd" d="M56.3 46.7998C56.1 46.7998 55.9 47.1998 55.6 47.2998C55.9 48.0998 55.7 48.7998 55.7 49.5998C55.9 49.6998 56 49.3998 56.2 49.2998C56.1 48.4998 56.1 47.5998 56.3 46.7998Z" fill="white"/>
<path fill-rule="evenodd" clip-rule="evenodd" d="M55.3 47.7002C55 47.7002 54.8 48.1002 54.6 48.2002C54.7 49.0002 54.6 49.7002 54.6 50.4002C54.9 50.3002 55 50.1002 55.2 50.0002C55.2 49.2002 55.2 48.4002 55.3 47.7002Z" fill="white"/>
<path fill-rule="evenodd" clip-rule="evenodd" d="M54.2 48.6001C52.7 49.7001 51.4 51.1001 50 52.3001C50.2 52.9001 50 53.4001 50.1 53.9001C51.5 52.8001 52.9 51.7001 54.3 50.7001C54 50.1001 54.2 49.3001 54.2 48.6001Z" fill="white"/>
<path fill-rule="evenodd" clip-rule="evenodd" d="M49.7 52.7002C49 53.2002 48.3 54.0002 47.6 54.6002C47.7 55.0002 47.6 55.5002 47.6 55.8002C48.4 55.3002 49 54.8002 49.7 54.3002C49.7 53.7002 49.7 53.2002 49.7 52.7002Z" fill="white"/>
<path fill-rule="evenodd" clip-rule="evenodd" d="M41.9 42.2998C41.7 42.2998 41.4 42.4998 41.2 42.4998C41.2 43.2998 41 43.9998 40.9 44.6998C41.6 44.5998 41.6 44.0998 41.7 43.4998C41.8 43.0998 41.8 42.6998 41.9 42.2998Z" fill="white"/>
<path fill-rule="evenodd" clip-rule="evenodd" d="M40.8 42.7002C40.5 42.8002 40.3 42.9002 40.1 43.0002C40.1 43.7002 40 44.5002 39.9 45.2002C40.1 45.1002 40.3 45.0002 40.5 45.0002C40.7 44.2002 40.8 43.4002 40.8 42.7002Z" fill="white"/>
<path fill-rule="evenodd" clip-rule="evenodd" d="M47.2 55C46.7 55.3 46.1 56 45.5 56.4C45.5 56.8 45.4 57.1 45.4 57.4C45.9 57 46.4 56.6 47 56.2C47.1 55.8 47.1 55.4 47.2 55Z" fill="white"/>
<path fill-rule="evenodd" clip-rule="evenodd" d="M39.7 43.1001C38.9 43.1001 39.1 43.8001 39 44.4001C38.9 44.9001 38.8 45.2001 38.9 45.5001C39.1 45.3001 39.3 45.4001 39.5 45.3001C39.6 44.5001 39.6 43.8001 39.7 43.1001Z" fill="white"/>
<path fill-rule="evenodd" clip-rule="evenodd" d="M38.8 43.3998C37.5 43.2998 38.1 45.1998 37.8 45.7998C38.1 45.6998 38.3 45.5998 38.5 45.4998C38.6 44.7998 38.7 44.0998 38.8 43.3998Z" fill="white"/>
<path fill-rule="evenodd" clip-rule="evenodd" d="M37.6 43.7002C37.3 43.8002 37 43.9002 36.6 44.0002C36.6 44.8002 36.5 45.5002 36.3 46.3002C36.6 46.3002 36.9 46.1002 37.3 46.0002C37.6 45.3002 37.6 44.5002 37.6 43.7002Z" fill="white"/>
<path fill-rule="evenodd" clip-rule="evenodd" d="M45.1 56.8999C44.9 56.8999 44.6 57.2999 44.4 57.3999C44.4 57.6999 44.5 57.9999 44.4 58.1999C44.7 58.1999 44.8 57.7999 45.1 57.6999C45 57.3999 45 57.0999 45.1 56.8999Z" fill="white"/>
<path fill-rule="evenodd" clip-rule="evenodd" d="M36.4 44.1002C35.5 43.9002 35.7 44.8002 35.6 45.4002C35.5 45.9002 35.4 46.3002 35.3 46.6002C36.7 46.6002 36.1 44.8002 36.4 44.1002Z" fill="white"/>
<path fill-rule="evenodd" clip-rule="evenodd" d="M44 57.7998C43.4 57.8998 43.8 58.5998 43.6 58.9998C44.2 58.7998 43.9 58.1998 44 57.7998Z" fill="white"/>
<path fill-rule="evenodd" clip-rule="evenodd" d="M35.4 44.4001C35.2 44.3001 35 44.7001 34.8 44.5001C34.7 45.3001 34.7 46.2001 34.3 46.9001C34.4 47.0001 34.7 46.8001 34.9 46.8001C35.2 46.1001 35.2 45.3001 35.4 44.4001Z" fill="white"/>
<path fill-rule="evenodd" clip-rule="evenodd" d="M43.4 58.4002C43.1 58.3002 43 58.7002 42.7 58.8002C42.8 59.2002 42.6 59.5002 42.7 59.9002C42.9 59.7002 43.2 59.5002 43.4 59.3002C43.2 58.9002 43.3 58.7002 43.4 58.4002Z" fill="white"/>
<path fill-rule="evenodd" clip-rule="evenodd" d="M34.4 44.8002C34.2 44.7002 34 44.9002 33.8 45.0002C33.8 45.8002 33.6 46.7002 33.6 47.4002C34.1 47.3002 34.2 46.5002 34.3 46.1002C34.4 45.5002 34.3 45.1002 34.4 44.8002Z" fill="white"/>
<path fill-rule="evenodd" clip-rule="evenodd" d="M42.2 59.2002C41.6 59.6002 41.8 60.2002 41.6 60.8002C41.8 60.6002 42.1 60.4002 42.3 60.2002C42 59.8002 42.3 59.5002 42.2 59.2002Z" fill="white"/>
<path fill-rule="evenodd" clip-rule="evenodd" d="M33.6 45.1001C33.3 45.1001 33.1 45.3001 32.8 45.4001C32.9 46.2001 32.8 46.9001 32.7 47.6001C33.4 47.7001 33.4 46.8001 33.5 46.3001C33.5 45.8001 33.4 45.3001 33.6 45.1001Z" fill="white"/>
<path fill-rule="evenodd" clip-rule="evenodd" d="M41.4 60C40.7 60.3 41 61.1 40.8 61.6C41 61.4 41.1 61.3 41.3 61.1C41.1 60.6 41.3 60.3 41.4 60Z" fill="white"/>
<path fill-rule="evenodd" clip-rule="evenodd" d="M32.6 45.3999C31.7 45.5999 30.6 46.0999 29.6 46.4999C29.6 46.9999 29.6 47.4999 29.5 47.8999C29.3 47.5999 29.5 46.9999 29.5 46.5999C29.3 46.5999 29.1 46.6999 28.8 46.7999C28.8 47.4999 28.7 48.2999 28.6 48.8999C29.3 48.7999 30 48.3999 30.6 48.2999C30.9 47.7999 30.7 47.1999 30.9 46.7999C31.3 47.0999 30.8 47.8999 31 48.1999C31.6 47.6999 31.1 46.8999 31.6 46.3999C31.9 46.8999 31.6 47.3999 31.6 47.8999C31.8 47.7999 32.1 47.7999 32.1 47.6999C32.4 46.9999 32.3 46.1999 32.6 45.3999Z" fill="white"/>
<path fill-rule="evenodd" clip-rule="evenodd" d="M40.5 60.7002C39.5 61.0002 39.8 62.0002 39.6 62.6002C39.9 62.5002 40.2 62.0002 40.6 61.8002C40.3 61.4002 40.4 61.1002 40.5 60.7002Z" fill="white"/>
<path fill-rule="evenodd" clip-rule="evenodd" d="M28.5 47.0001C28.2 46.9001 27.8 47.2001 27.5 47.3001C27.8 48.1001 27.5 48.7001 27.5 49.3001C27.7 49.2001 27.9 49.2001 28.1 49.1001C28.5 48.5001 28.4 47.7001 28.5 47.0001Z" fill="white"/>
<path fill-rule="evenodd" clip-rule="evenodd" d="M27.5 47.3999C27.3 47.3999 27.1 47.4999 26.9 47.5999C26.8 48.2999 26.6 49.0999 26.6 49.6999C26.8 49.5999 26.9 49.5999 27.1 49.4999C27.3 48.8999 27.2 48.0999 27.5 47.3999Z" fill="white"/>
<path fill-rule="evenodd" clip-rule="evenodd" d="M25.8 47.9C25.9 48.6 25.5 49.4 25.6 50C26.5 49.9 26.2 48.5 26.5 47.8C26.3 47.7 26 47.9 25.8 47.9Z" fill="white"/>
<path fill-rule="evenodd" clip-rule="evenodd" d="M25.4 48.0999C24.6 47.9999 24.6 48.6999 24.5 49.3999C24.4 49.8999 24.3 50.2999 24.4 50.4999C24.6 50.2999 24.9 50.3999 25.1 50.1999C25.3 49.8999 25.2 48.4999 25.4 48.0999Z" fill="white"/>
<path fill-rule="evenodd" clip-rule="evenodd" d="M33.6 68.8999C33.5 69.4999 33.2 69.9999 33.4 70.5999C33.5 70.0999 34.2 69.4999 33.6 68.8999Z" fill="white"/>
<path fill-rule="evenodd" clip-rule="evenodd" d="M32.8 67.8999C32.8 68.3999 32.4 68.7999 32.9 69.3999C33 68.8999 33.3 68.3999 32.8 67.8999Z" fill="white"/>
<path fill-rule="evenodd" clip-rule="evenodd" d="M32.1 66.8999C32.1 67.3999 31.8 67.8999 32.1 68.3999C32.2 67.8999 32.7 67.3999 32.1 66.8999Z" fill="white"/>
<path fill-rule="evenodd" clip-rule="evenodd" d="M31.4 65.8999C31.4 66.3999 31.3 66.8999 31.2 67.2999C31.3 67.3999 31.4 67.3999 31.5 67.5999C31.6 66.9999 32.1 66.2999 31.4 65.8999Z" fill="white"/>
<path fill-rule="evenodd" clip-rule="evenodd" d="M30.6 65.3999C30.4 65.7999 30.4 66.1999 30.3 66.5999C30.4 66.6999 30.5 66.7999 30.6 66.8999C30.8 66.3999 31.4 65.5999 30.6 65.3999Z" fill="white"/>
<path fill-rule="evenodd" clip-rule="evenodd" d="M19.9 47C20 47.6 19.9 48.1 20.1 48.7C20.2 48.8 20.4 48.7 20.5 48.9C21 48.4 20.3 47.8 19.9 47Z" fill="white"/>
<path fill-rule="evenodd" clip-rule="evenodd" d="M19 45.8999C19 46.3999 18.9 46.9999 19.5 47.5999C19.5 47.0999 19.3 46.2999 19 45.8999Z" fill="white"/>
<path fill-rule="evenodd" clip-rule="evenodd" d="M29.8 64.8999C29.6 65.2999 29.6 65.6999 29.5 66.0999C29.6 66.1999 29.7 66.1999 29.8 66.2999C29.9 65.8999 30.4 65.0999 29.8 64.8999Z" fill="white"/>
<path fill-rule="evenodd" clip-rule="evenodd" d="M18.1 45.1001C18.1 45.4001 18.1 45.7001 18.1 45.9001C18.3 46.0001 18.4 46.1001 18.6 46.3001C18.7 46.0001 18.6 45.4001 18.1 45.1001Z" fill="white"/>
<path fill-rule="evenodd" clip-rule="evenodd" d="M17.1 44.7001C17.2 45.0001 17.1 45.2001 17.2 45.4001C17.4 45.5001 17.6 45.7001 17.8 45.7001C17.7 45.2001 17.8 44.5001 17.1 44.7001Z" fill="white"/>
<path fill-rule="evenodd" clip-rule="evenodd" d="M16 44.2002C15.9 44.5002 16 44.8002 16 45.1002C16.3 45.2002 16.6 45.2002 16.8 45.4002C17 44.7002 16.5 44.4002 16 44.2002Z" fill="white"/>
<path fill-rule="evenodd" clip-rule="evenodd" d="M28.4 65.1C28.3 65 28.1 65 27.9 65C27.7 65.1 27.9 65.3 27.8 65.5C27.9 65.6 28.1 65.6 28.2 65.7C28.4 65.5 28.3 65.2 28.4 65.1Z" fill="white"/>
<path fill-rule="evenodd" clip-rule="evenodd" d="M15.1 43.7998C15 44.1998 15.1 44.5998 15 44.8998C15.2 44.9998 15.5 44.8998 15.8 45.0998C15.9 44.5998 15.8 43.8998 15.1 43.7998Z" fill="white"/>
<path fill-rule="evenodd" clip-rule="evenodd" d="M13.7 43.7998C13.9 44.1998 13.7 44.4998 13.8 44.8998C14.1 44.8998 14.3 44.9998 14.6 44.8998C14.6 44.4998 14.7 44.1998 14.6 43.7998C14.3 43.8998 14 43.7998 13.7 43.7998Z" fill="white"/>
<path fill-rule="evenodd" clip-rule="evenodd" d="M12.9 43.8998C13 44.2998 13 44.5998 12.9 44.8998C13.1 44.9998 13.3 44.8998 13.4 44.8998C13.5 44.4998 13.6 43.4998 12.9 43.8998Z" fill="white"/>
<path fill-rule="evenodd" clip-rule="evenodd" d="M12.5 43.9999C12.3 43.8999 12.1 43.9999 11.8 44.0999C11.8 44.3999 11.9 44.6999 11.8 44.9999C12 45.0999 12.2 44.8999 12.4 44.9999C12.5 44.6999 12.4 44.2999 12.5 43.9999Z" fill="white"/>
<path fill-rule="evenodd" clip-rule="evenodd" d="M10.7 44.3998C10.8 44.6998 10.7 44.8998 10.7 45.1998C10.9 45.2998 11.1 45.1998 11.3 45.0998C11.3 44.7998 11.5 43.8998 10.7 44.3998Z" fill="white"/>
<path fill-rule="evenodd" clip-rule="evenodd" d="M19.8 58.7002C19.6 58.6002 19.5 59.1002 19.3 59.2002C19.2 59.6002 19.2 60.1002 19.1 60.5002C19.9 60.3002 19.7 59.4002 19.8 58.7002Z" fill="white"/>
<path fill-rule="evenodd" clip-rule="evenodd" d="M10.4 44.5998C10.3 44.4998 10.1 44.6998 10 44.6998C10 44.9998 10 45.1998 10 45.4998C10.2 45.3998 10.3 45.4998 10.5 45.2998C10.4 45.0998 10.4 44.7998 10.4 44.5998Z" fill="white"/>
<path fill-rule="evenodd" clip-rule="evenodd" d="M18.7 60C18 60.3 17.8 61.1 17.9 61.5C18.1 61.4 18.3 61.3 18.5 61.1C18.7 60.8 18.6 60.4 18.7 60Z" fill="white"/>
<path fill-rule="evenodd" clip-rule="evenodd" d="M8.8 45.8998C8.7 45.8998 8.7 45.8998 8.6 45.8998C8.4 45.6998 8.5 45.5998 8.5 45.3998C8.3 45.4998 8.2 45.5998 8 45.6998C8 45.8998 8.1 46.0998 8 46.2998C7.8 46.3998 7.6 46.1998 7.6 45.9998C7 46.1998 7.1 46.5998 7 46.9998C7.9 46.5998 8.8 45.8998 9.7 45.5998C9.4 45.0998 9.6 44.6998 9.1 44.9998C8.9 45.1998 9.1 45.6998 8.8 45.8998Z" fill="white"/>
<path fill-rule="evenodd" clip-rule="evenodd" d="M17.8 59.7998C17.2 59.9998 16.2 60.6998 15.8 60.9998C16.6 60.6998 17.2 60.2998 17.8 59.7998Z" fill="white"/>
<path fill-rule="evenodd" clip-rule="evenodd" d="M17.6 61C17.5 61 17.2 61.2 17.1 61.3C17.1 61.6 17 61.8 17 62.1C17.2 62 17.3 61.9 17.5 61.8C17.5 61.6 17.5 61.3 17.6 61Z" fill="white"/>
<path fill-rule="evenodd" clip-rule="evenodd" d="M18.9 65.4998C18.6 65.3998 18.3 65.3998 18 65.2998C17.5 65.5998 17.2 65.8998 16.8 66.1998C17.4 66.2998 18.1 66.0998 18.9 65.4998Z" fill="white"/>
<path fill-rule="evenodd" clip-rule="evenodd" d="M27.8 83.7998C28.4 83.7998 28.1 83.0998 28.3 82.7998C27.7 82.7998 28 83.4998 27.8 83.7998Z" fill="white"/>
<path fill-rule="evenodd" clip-rule="evenodd" d="M6.7 46.7002C6 47.0002 5.7 47.6002 5.8 48.1002C6.1 47.9002 6.4 47.5002 6.8 47.2002C6.6 47.0002 6.6 46.8002 6.7 46.7002Z" fill="white"/>
<path fill-rule="evenodd" clip-rule="evenodd" d="M27.5 83.1998C27.3 83.0998 27.1 83.4998 26.9 83.3998C26.8 83.5998 26.9 83.7998 26.8 83.8998C27.3 84.1998 27.4 83.5998 27.5 83.1998Z" fill="white"/>
<path fill-rule="evenodd" clip-rule="evenodd" d="M17.4 66.4998C17.1 66.3998 16.8 66.4998 16.5 66.2998C16.2 66.4998 16 66.7998 15.7 66.9998C16.3 67.2998 16.9 67.0998 17.4 66.4998Z" fill="white"/>
<path fill-rule="evenodd" clip-rule="evenodd" d="M26.4 83.6001C26.1 83.6001 25.8 83.7001 25.9 84.1001C26.1 84.2001 26.2 84.1001 26.4 84.1001C26.3 83.9001 26.5 83.8001 26.4 83.6001Z" fill="white"/>
<path fill-rule="evenodd" clip-rule="evenodd" d="M16.4 67.4998C16.1 67.2998 15.7 67.5998 15.5 67.2998C15.4 67.4998 15.1 67.5998 15.2 67.7998C15.3 67.7998 15.4 67.7998 15.4 67.5998C15.7 67.8998 16.1 67.8998 16.4 67.4998Z" fill="white"/>
<path fill-rule="evenodd" clip-rule="evenodd" d="M25.6 83.7002C25.4 83.7002 25.3 83.7002 25.1 83.7002C25.1 83.9002 25 84.0002 25.1 84.2002C25.4 84.3002 25.5 84.0002 25.6 83.7002Z" fill="white"/>
<path fill-rule="evenodd" clip-rule="evenodd" d="M15.9 68.1999C15.6 68.0999 15.2 68.3999 14.9 68.2999C14.7 68.3999 14.7 68.5999 14.6 68.6999C15 68.6999 15.6 68.6999 15.9 68.1999Z" fill="white"/>
<path fill-rule="evenodd" clip-rule="evenodd" d="M24.7 83.7001C24.6 83.6001 24.4 83.6001 24.3 83.6001C24.3 83.8001 24.2 84.1001 24.2 84.3001C24.7 84.3001 24.6 83.9001 24.7 83.7001Z" fill="white"/>
<path fill-rule="evenodd" clip-rule="evenodd" d="M15.4 68.8999C15 68.8999 14.3 68.8999 14.2 69.3999C14.5 69.4999 14.8 69.2999 15.1 69.2999C15.3 69.1999 15.2 68.9999 15.4 68.8999Z" fill="white"/>
<path fill-rule="evenodd" clip-rule="evenodd" d="M23.9 83.4999C23.7 83.3999 23.5 83.3999 23.2 83.3999C23.3 83.5999 23.2 83.7999 23.2 84.0999C23.3 84.2999 23.5 84.1999 23.7 84.1999C23.8 83.9999 23.8 83.6999 23.9 83.4999Z" fill="white"/>
<path fill-rule="evenodd" clip-rule="evenodd" d="M15.1 69.7002C14.8 69.7002 14.3 69.8002 14 70.0002C14.3 70.0002 14.8 69.9002 15.1 69.7002Z" fill="white"/>
<path fill-rule="evenodd" clip-rule="evenodd" d="M22.5 83.1999C22.5 83.4999 22.5 83.7999 22.4 83.9999C22.9 84.4999 23.2 82.8999 22.5 83.1999Z" fill="white"/>
<path fill-rule="evenodd" clip-rule="evenodd" d="M9.70001 61.9998C9.80001 62.2998 9.60001 62.5998 9.70001 62.8998C9.90001 62.9998 10 63.1998 10.2 63.1998C10.2 62.6998 10.5 61.8998 9.70001 61.9998Z" fill="white"/>
<path fill-rule="evenodd" clip-rule="evenodd" d="M14.9 70.2002C14.6 70.3002 13.8 70.3002 13.9 70.7002C14.2 70.5002 14.7 70.5002 14.9 70.2002Z" fill="white"/>
<path fill-rule="evenodd" clip-rule="evenodd" d="M21.6 82.8001C21.6 83.2001 21.6 83.5001 21.5 83.8001C21.6 83.9001 21.8 83.9001 21.9 83.9001C22.1 83.5001 22.3 82.7001 21.6 82.8001Z" fill="white"/>
<path fill-rule="evenodd" clip-rule="evenodd" d="M14.6 70.7002C14.3 70.8002 13.6 70.8002 13.6 71.2002C13.9 71.2002 14.6 71.1002 14.6 70.7002Z" fill="white"/>
<path fill-rule="evenodd" clip-rule="evenodd" d="M8.90001 61.3999C8.70001 61.5999 8.80001 61.8999 8.70001 62.0999C8.90001 62.1999 9.10001 62.2999 9.30001 62.4999C9.40001 62.0999 9.40001 61.4999 8.90001 61.3999Z" fill="white"/>
<path fill-rule="evenodd" clip-rule="evenodd" d="M20.7 82.2002C20.7 82.6002 20.3 83.4002 21 83.6002C21.2 83.1002 21.4 82.4002 20.7 82.2002Z" fill="white"/>
<path fill-rule="evenodd" clip-rule="evenodd" d="M7.89999 60.7002C7.79999 61.0002 7.89999 61.3002 7.79999 61.7002C7.99999 61.8002 8.19999 62.0002 8.39999 62.1002C8.59999 61.5002 8.39999 61.0002 7.89999 60.7002Z" fill="white"/>
<path fill-rule="evenodd" clip-rule="evenodd" d="M14.4 71.3998C14.2 71.2998 13.8 71.5998 13.6 71.5998C13.5 71.6998 13.5 71.7998 13.5 71.9998C13.8 71.7998 14.4 71.7998 14.4 71.3998Z" fill="white"/>
<path fill-rule="evenodd" clip-rule="evenodd" d="M14.4 71.8999C13.9 72.2999 13.2 72.2999 13.2 72.8999C13.7 72.6999 14.7 72.4999 14.4 71.8999Z" fill="white"/>
<path fill-rule="evenodd" clip-rule="evenodd" d="M7.3 60.2002C7.3 60.6002 6.9 61.2002 7.3 61.5002C7.4 61.0002 7.7 60.6002 7.3 60.2002Z" fill="white"/>
<path fill-rule="evenodd" clip-rule="evenodd" d="M20 81.7998C19.8 82.1998 19.9 82.5998 19.8 82.9998C19.9 83.0998 20 83.0998 20.1 83.1998C20.2 82.6998 20.5 82.0998 20 81.7998Z" fill="white"/>
<path fill-rule="evenodd" clip-rule="evenodd" d="M6.6 59.3999C6.6 59.7999 6.3 60.1999 6.7 60.6999C6.7 60.2999 7 59.7999 6.6 59.3999Z" fill="white"/>
<path fill-rule="evenodd" clip-rule="evenodd" d="M19.2 81C19.1 81.4 19 81.9 19 82.3C19.1 82.4 19.3 82.5 19.4 82.6C19.4 82.1 19.9 81.4 19.2 81Z" fill="white"/>
<path fill-rule="evenodd" clip-rule="evenodd" d="M14.4 72.7002C14.1 72.9002 13.7 73.1002 13.3 73.3002C13.3 73.5002 13.2 73.6002 13.4 73.8002C13.9 73.5002 14.5 73.3002 14.4 72.7002Z" fill="white"/>
<path fill-rule="evenodd" clip-rule="evenodd" d="M5.89999 58.7002C5.89999 59.1002 5.59999 59.4002 5.99999 59.9002C6.09999 59.5002 6.29999 59.0002 5.89999 58.7002Z" fill="white"/>
<path fill-rule="evenodd" clip-rule="evenodd" d="M18.8 80.5C18.6 80.9 18.6 81.5 18.6 81.9C18.8 81.8 18.8 81.1 19 80.7C18.9 80.6 18.8 80.7 18.8 80.5Z" fill="white"/>
<path fill-rule="evenodd" clip-rule="evenodd" d="M5.30001 58C5.20001 58.1 5.30001 58.5 5.10001 58.2C5.10001 58.4 5.40001 58.7 5.50001 59C5.50001 58.7 5.70001 58.3 5.30001 58Z" fill="white"/>
<path fill-rule="evenodd" clip-rule="evenodd" d="M4.70001 57.1001C4.70001 57.2001 4.70001 57.4001 4.60001 57.5001C4.70001 57.7001 4.80001 57.8001 4.90001 58.0001C4.90001 57.7001 5.00001 57.5001 4.70001 57.1001Z" fill="white"/>
<path fill-rule="evenodd" clip-rule="evenodd" d="M18.1 79.7998C18.1 80.2998 17.7 80.6998 18.1 81.2998C18.1 80.8998 18.6 80.4998 18.1 79.7998Z" fill="white"/>
<path fill-rule="evenodd" clip-rule="evenodd" d="M17.7 79C17.7 79.6 17.4 80.1 17.6 80.7C17.7 80.2 18.1 79.7 17.7 79Z" fill="white"/>
<path fill-rule="evenodd" clip-rule="evenodd" d="M17.2 78.5C17.2 79 16.9 79.4 17.1 80C17.2 79.5 17.4 78.9 17.2 78.5Z" fill="white"/>
<path fill-rule="evenodd" clip-rule="evenodd" d="M13.3 74.2002C13.3 74.5002 13.3 74.8002 13.4 75.1002C13.7 74.9002 14 74.8002 14.3 74.6002C14.3 74.3002 14.3 74.0002 14.4 73.7002C13.9 73.6002 13.6 74.1002 13.3 74.2002Z" fill="white"/>
<path fill-rule="evenodd" clip-rule="evenodd" d="M16.6 77.7998C16.6 78.2998 16.2 78.5998 16.6 79.1998C16.7 78.6998 17 78.1998 16.6 77.7998Z" fill="white"/>
<path fill-rule="evenodd" clip-rule="evenodd" d="M16.2 77.1001C16.1 77.5001 15.9 77.8001 16.1 78.3001C16.1 77.9001 16.4 77.6001 16.2 77.1001Z" fill="white"/>
<path fill-rule="evenodd" clip-rule="evenodd" d="M21 86.8002C20.7 86.4002 20.2 86.3002 19.9 86.2002C19.1 87.2002 18.8 88.5002 18.4 89.6002C18 90.8002 17.8 92.0002 17.7 93.2002C18 92.3002 18.1 91.3002 18.4 90.4002C18.5 90.2002 18.7 90.0002 18.8 89.7002C18.8 89.6002 18.7 89.5002 18.8 89.4002C18.8 89.3002 19 89.3002 19 89.1002C19.1 88.9002 19.1 88.6002 19.2 88.5002C19.5 87.9002 20.3 87.4002 21 86.8002C20.9 86.8002 20.9 86.9002 21 86.8002Z" fill="white"/>
<path fill-rule="evenodd" clip-rule="evenodd" d="M16.7 84.7002C16.2 84.8002 15.5 85.5002 15.6 86.0002C15.9 85.7002 16.7 85.2002 16.7 84.7002Z" fill="white"/>
<path fill-rule="evenodd" clip-rule="evenodd" d="M16.4 86.0999C16.4 85.9999 16.3 85.9999 16.3 86.0999C15.8 86.7999 15.2 87.3999 15.3 88.1999C15.6 87.8999 15.9 87.5999 16.2 87.2999C16.2 86.8999 16.3 86.4999 16.4 86.0999Z" fill="white"/>
<path fill-rule="evenodd" clip-rule="evenodd" d="M16 88.3999C15.5 88.7999 15 89.5999 15 90.2999C15.3 90.0999 15.5 89.6999 15.9 89.3999C15.9 89.0999 15.9 88.6999 16 88.3999Z" fill="white"/>
<path fill-rule="evenodd" clip-rule="evenodd" d="M14.9 91.8C15.1 91.3 15.7 91 15.8 90.5C15.4 90.5 15.4 91.3 15 91.4C14.9 91.5 14.9 91.7 14.9 91.8Z" fill="white"/>
<path fill-rule="evenodd" clip-rule="evenodd" d="M15.6 93.2998C15.5 93.1998 15.5 93.2998 15.6 93.2998C15.3 93.6998 14.9 94.0998 15 94.5998C15.1 94.3998 15.4 94.1998 15.6 93.9998C15.5 93.7998 15.5 93.5998 15.6 93.2998Z" fill="white"/>
<path fill-rule="evenodd" clip-rule="evenodd" d="M15.6 94.7002C15.1 94.9002 14.8 95.6002 15 96.2002C15.2 96.1002 15.1 96.0002 15.3 96.0002C15.7 96.6002 15.9 97.3002 15.4 97.8002C15.5 98.0002 15.5 98.2002 15.6 98.4002C15.8 98.3002 15.8 98.1002 16.1 98.0002C15.7 96.8002 15.6 95.7002 15.6 94.7002Z" fill="white"/>
<path fill-rule="evenodd" clip-rule="evenodd" d="M15.3 96.4998C15.1 96.3998 15.1 96.8998 15.2 97.1998C15.5 96.9998 15.3 96.7998 15.3 96.4998Z" fill="white"/>
<path fill-rule="evenodd" clip-rule="evenodd" d="M16.1 98.5C15.9 98.8 15.6 99 15.9 99.4C16.1 99.3 16.1 99.1 16.3 99C16.2 98.8 16.3 98.7 16.1 98.5Z" fill="white"/>
<path fill-rule="evenodd" clip-rule="evenodd" d="M16.5 99.7002C16.4 99.9002 16.2 100.1 16.3 100.4C16.4 100.2 16.7 100 16.5 99.7002Z" fill="white"/>
<path fill-rule="evenodd" clip-rule="evenodd" d="M16.9 100.6C16.8 100.8 16.7 100.9 16.6 101.1C16.7 101.2 16.8 100.9 16.9 100.8C17 100.8 16.9 100.7 16.9 100.6Z" fill="white"/>
<path fill-rule="evenodd" clip-rule="evenodd" d="M93.5 25.6001C93 25.8001 92.6 26.2001 92 26.5001C91.8 27.1001 91.6 27.6001 91.4 28.2001C92.6 27.6001 93.1 26.6001 93.5 25.6001Z" fill="white"/>
<path fill-rule="evenodd" clip-rule="evenodd" d="M59.5 39.1999C59.4 38.5999 59.6 38.0999 59.7 37.5999C60 37.4999 60.2 37.2999 60.2 36.9999C60.2 36.1999 58.9 35.1999 58.8 34.7999C59.3 34.5999 59.7 34.4999 60.2 34.2999C61.4 35.5999 61.3 36.6999 61.2 37.6999C61.1 38.1999 60.8 38.6999 61.2 39.0999C61.2 38.5999 61.7 38.1999 61.9 37.7999C62.4 36.7999 62.5 34.8999 61.1 33.9999C64.3 32.7999 67.5 31.7999 71 29.6999C71.2 29.6999 71.3 30.0999 71.6 29.8999C71.9 29.7999 71.5 29.5999 71.7 29.4999C72.1 29.2999 72.5 29.1999 72.8 29.0999C72.9 29.3999 72.9 29.5999 73 29.8999C71.6 30.4999 70.2 30.8999 68.8 31.3999C69 31.4999 69.2 31.3999 69.2 31.4999C70.7 31.1999 72.2 30.7999 73.8 30.1999C74.6 30.1999 75.6 29.7999 76.5 29.3999C79 28.2999 81.6 26.8999 83.9 25.9999C83.5 27.8999 83.2 30.0999 82.8 31.9999C82.6 32.6999 82.5 33.3999 82.5 33.9999C83 32.6999 83.3 31.2999 83.5 29.9999C83.7 28.5999 84 27.1999 84.2 25.8999C84.5 25.6999 84.9 25.5999 85.2 25.3999C84.7 27.3999 84.4 29.7999 83.9 31.7999C83.7 32.4999 83.6 33.1999 83.3 33.8999C80.8 35.6999 78.1 37.5999 75.4 39.3999C73.6 40.5999 71.5 41.8999 69.9 42.2999C69.3 42.4999 68.6 42.6999 68.1 42.4999C68.2 42.2999 68.2 41.9999 68.3 41.6999C68.9 41.6999 69.5 42.1999 70.1 41.7999C68.9 41.0999 67.5 40.9999 66.2 40.4999C66.1 40.3999 66.2 40.2999 66 40.0999C65.8 40.0999 65.9 40.2999 65.8 40.2999C63.9 39.0999 61.7 38.9999 59.5 39.1999ZM82 33.4999C81.3 33.7999 80.5 34.2999 79.7 34.7999C78.9 35.3999 78 35.8999 77.7 36.5999C79 35.6999 81 34.6999 82.1 33.5999C82.1 33.5999 82.1 33.5999 82 33.4999ZM73.2 33.2999C73.3 32.5999 72.5 32.5999 72.1 32.5999C71.3 32.6999 70.1 32.7999 69.6 33.7999C69.2 34.4999 68.7 35.8999 68.7 36.3999C68.7 36.9999 69.9 38.4999 70.5 38.7999C70.7 38.8999 71.1 38.7999 71.5 38.7999C72.2 38.7999 72.7 39.0999 73.2 38.9999C73.9 38.7999 74.7 37.9999 75 37.4999C75.3 37.0999 75.8 36.1999 75.6 35.6999C75.5 35.2999 75.2 35.3999 75.3 34.7999C74.8 33.5999 74 33.4999 73.2 33.2999ZM65.1 38.5999C65.2 38.7999 65.2 38.5999 65.4 38.5999C65.6 38.8999 66 38.9999 66.4 39.1999C66.7 39.3999 67.2 39.7999 67.7 39.4999C67.4 38.8999 66 38.2999 65.1 38.5999Z" fill="white"/>
<path fill-rule="evenodd" clip-rule="evenodd" d="M73.2 34.7002C72.9 34.9002 72.8 35.2002 72.5 35.5002C72.7 35.3002 73.4 35.1002 73.2 34.7002Z" fill="white"/>
<path fill-rule="evenodd" clip-rule="evenodd" d="M33.8 71.5998C34 71.2998 34.1 70.8998 34.2 70.5998C34.2 70.3998 34 70.4998 34 70.3998C34.1 70.0998 34.2 69.8998 34.2 69.4998C34.3 69.2998 34.5 69.4998 34.4 69.1998C34.1 68.1998 33.6 67.0998 33 66.1998C32.4 65.3998 31.6 64.7998 30.7 64.2998C29.7 63.7998 28.7 63.1998 27.8 63.4998C28 63.3998 28.1 63.6998 28.2 63.8998C28 63.9998 27.7 63.9998 27.6 64.1998C28.1 64.4998 28.7 64.5998 29.2 64.7998C29.1 65.1998 29.1 65.6998 28.8 65.8998C28.3 65.7998 28.8 65.1998 28.5 64.8998C28.3 64.5998 27.9 64.6998 27.6 64.7998C27.5 64.9998 27.6 65.2998 27.4 65.3998C25.6 64.8998 23.1 65.2998 20.8 66.5998C18.7 67.6998 17.8 69.2998 16.8 70.5998C17.3 68.1998 21.1 65.3998 24.2 64.3998C24.9 64.1998 25.4 64.1998 26 64.1998C24.8 63.2998 22.9 64.1998 21.2 65.1998C20.5 65.5998 19.7 65.9998 19.1 66.4998C16.9 67.9998 16 69.5998 15.4 71.5998C15 73.1998 15.2 74.8998 15.8 76.4998C15.7 76.7998 15.7 77.4998 15.5 77.4998C14.9 75.7998 14.7 73.9998 14.8 72.3998C14.9 71.2998 15 70.6998 15.5 69.7998C15.7 69.4998 15.8 68.9998 16 68.7998C16.6 67.9998 17.7 67.4998 18.4 66.5998C18.5 66.4998 18.6 66.5998 18.8 66.4998C18.7 66.3998 18.7 66.2998 18.8 66.1998C19.3 65.6998 20.7 65.1998 20.8 64.5998C20.3 64.5998 19.9 65.0998 19.4 65.1998C19 65.2998 18.6 65.0998 18.2 65.0998C20.1 63.8998 21.9 63.4998 23.7 62.6998C24.6 62.8998 25.6 62.6998 26.5 62.6998C27.5 62.6998 28.5 63.0998 29.6 62.9998C30.2 63.4998 31.2 63.4998 31.8 63.7998C32.3 63.9998 32.8 64.4998 33.3 64.2998C33.6 64.1998 33.8 63.8998 34 63.7998C35.5 62.6998 37.5 61.5998 38.9 60.4998C37.5 61.6998 35.9 62.8998 34.8 64.1998C34.5 64.4998 33.9 65.0998 34.3 65.4998C34.5 65.3998 34.4 65.1998 34.6 64.9998C34.8 64.6998 35.2 64.5998 35.5 64.3998C36.8 63.5998 38.1 62.3998 39.2 61.5998C39.3 61.8998 38.8 62.5998 39.2 62.9998C39 63.1998 38.9 63.3998 38.7 63.5998C38.6 63.4998 39 62.9998 38.6 62.8998C38.2 63.3998 38.3 63.9998 38.1 64.5998C38.2 64.3998 38.4 64.4998 38.6 64.3998C38.8 63.7998 39.5 63.3998 40 62.8998C41.2 61.7998 42.5 60.6998 43.9 59.5998C45.8 58.1998 47.5 56.5998 49.3 55.2998C55 51.3998 60 47.0998 65.7 43.2998C66.1 43.3998 66.6 43.2998 66.9 43.4998C60.9 47.1998 56.3 51.2998 50.9 55.4998C46.9 58.6998 42.3 62.0998 38.7 65.2998C38.2 65.7998 37.5 66.2998 37.1 66.6998C37 66.8998 36.8 67.1998 36.7 67.4998C36.3 68.1998 35.9 68.9998 35.8 69.6998C35.8 69.8998 35.7 70.0998 35.9 70.3998C35.8 72.0998 36 73.8998 35.8 75.4998C35.7 76.2998 35.5 77.0998 35.3 77.8998C35.1 78.6998 34.9 79.5998 34.5 80.2998C34.3 80.5998 34 80.9998 33.7 81.3998C33.1 82.0998 32.6 82.8998 31.7 83.4998C30.8 84.0998 29.8 84.7998 28.7 85.2998C27.8 85.6998 26.6 85.7998 25.7 85.8998C23.7 86.0998 22.2 85.7998 20.4 85.3998C20.1 85.2998 19.7 85.0998 19.5 85.1998C19.2 85.2998 19 85.6998 18.9 85.8998C18 86.7998 17.8 87.9998 17.4 89.1998C16.8 91.1998 16.5 93.2998 16.5 95.2998C16.5 95.8998 16.5 96.3998 16.6 96.8998C16.8 97.9998 17.3 99.0998 17.2 100.1C16.7 98.3998 16.5 96.7998 16.3 95.2998C16.1 93.4998 16.4 91.7998 16.5 90.0998C16.7 88.0998 17.3 86.0998 17.1 84.0998C17.1 83.8998 17.1 83.4998 16.8 83.3998C16.5 83.4998 16.7 83.7998 16.5 83.8998C16.2 83.9998 15.9 84.0998 15.6 84.2998C15.4 83.9998 15.9 83.5998 16.1 83.8998C15.9 83.4998 16.7 83.2998 16.7 82.9998C16.5 82.7998 16.2 83.1998 16.1 82.9998C15.7 82.4998 15.7 81.7998 15.4 81.1998C15 80.4998 14.5 79.8998 14.1 79.1998C13.6 78.1998 13.5 77.1998 13.2 76.2998C13.4 76.0998 13.9 76.0998 13.9 75.7998C13.7 75.6998 13.5 75.9998 13.2 76.0998C13.2 75.7998 13 75.3998 13.2 75.1998C13.4 74.9998 13.7 74.8998 14 74.6998C14.3 75.5998 14.2 76.7998 14.7 77.8998C15.6 79.8998 17.1 81.6998 18.3 83.0998C18.5 83.1998 18.7 83.2998 18.9 83.3998C19 83.5998 18.8 83.6998 19 83.8998C19.2 83.9998 19.3 83.5998 19.5 83.7998C19.7 83.7998 19.7 83.8998 19.8 84.1998C20.1 84.0998 20.4 84.3998 20.7 84.4998C21.8 84.8998 23.3 84.9998 24.7 84.8998C26.2 84.7998 27.6 84.6998 29 83.9998C30.9 83.0998 32.3 81.6998 33 80.4998C33.3 79.8998 33.7 78.9998 33.9 78.2998C34.4 76.8998 34.6 75.4998 34.7 73.9998C34.7 73.2998 34.9 72.4998 34.6 71.8998C34.2 73.1998 34.3 74.7998 33.9 76.1998C33 78.8998 32.2 81.5998 28.3 83.2998C28.3 82.8998 28.1 82.1998 28.8 81.8998C29 82.0998 28.6 82.4998 29 82.6998C29.4 82.3998 29.2 81.9998 29.3 81.5998C29.6 81.3998 29.8 81.1998 30 81.0998C30.1 81.0998 30.1 81.3998 30.3 81.2998C30.5 80.6998 31 80.1998 31.5 79.6998C31.6 79.6998 31.5 79.9998 31.7 79.9998C31.9 79.6998 31.9 79.2998 31.9 78.8998C33.3 76.7998 33.8 74.3998 33.4 71.8998C33.3 71.4998 33.1 71.0998 33.3 70.7998C34 70.9998 33.6 71.4998 33.8 71.5998ZM35.1 67.8998C35.7 67.6998 34.3 65.3998 33.9 65.7998C33.5 66.0998 34.7 67.8998 35.1 67.8998Z" fill="white"/>
<path fill-rule="evenodd" clip-rule="evenodd" d="M41.7 45.5998C42.1 45.3998 42.6 45.2998 43 45.1998C41.1 45.8998 39.2 46.6998 37.3 47.3998C37.4 47.2998 37.6 47.2998 37.6 47.1998C35.4 48.1998 33.3 48.6998 31.1 49.5998C29.5 50.1998 27.8 50.8998 26.2 51.3998C25.7 51.5998 24.9 51.6998 24.5 51.9998C24.1 52.2998 24.3 52.8998 24.1 53.3998C24 53.6998 23.8 53.8998 23.7 54.0998C23.6 54.2998 23.7 54.5998 23.7 54.7998C23.6 55.2998 23.3 55.9998 23.2 56.5998C23.1 57.1998 23.1 58.0998 22.8 58.4998C22.2 59.3998 21.5 60.2998 20.4 61.1998C19.4 61.9998 18.3 62.9998 17.2 63.6998C14.9 65.0998 11.9 65.2998 10 64.7998C9.40002 64.5998 8.60002 64.0998 7.80001 63.6998C7.10002 63.2998 6.30001 62.9998 5.60001 62.4998C5.00001 61.7998 4.40001 60.9998 3.80001 60.0998C3.20001 59.1998 2.40001 58.4998 2.00001 57.5998C1.40001 56.2998 1.40001 54.5998 1.50001 53.2998C1.60001 50.3998 2.70001 48.0998 4.70001 45.7998C5.70002 44.6998 7.10002 43.3998 8.60002 42.5998C9.10002 42.3998 9.60002 42.2998 10.1 42.1998C10.6 42.0998 11.2 41.8998 11.7 41.7998C12.9 41.5998 14.4 41.8998 15.5 42.0998C15.9 42.1998 16.4 42.1998 16.8 42.2998C18 42.6998 18.9 43.3998 19.9 44.1998C20.2 44.4998 20.5 44.6998 20.8 44.8998C21.4 45.4998 21.9 46.1998 22.5 46.7998C22.7 46.9998 23.1 46.9998 23.3 47.1998C23.8 47.4998 24 47.7998 24.6 48.0998C24 48.8998 23.9 50.1998 23.7 51.2998C22.9 52.0998 22.4 52.8998 22.5 53.8998C22.4 54.1998 22.4 54.4998 22.3 54.8998C22.2 55.1998 22 55.5998 22.2 55.7998C22.5 55.6998 22.3 55.1998 22.6 55.1998C22.5 55.1998 22.7 55.3998 22.7 55.1998C23.3 53.9998 23.5 52.6998 24.4 51.5998C30.8 49.6998 37.3 46.8998 43.8 44.5998C43.8 44.5998 43.7 44.5998 43.7 44.6998C43.1 44.8998 42.3 45.1998 41.7 45.5998ZM12.1 63.7998C11.8 63.5998 11.5 63.4998 11.1 63.3998C11.1 63.0998 11.2 62.7998 11.1 62.4998C11 62.7998 11.1 63.0998 11 63.3998C10.8 63.3998 10.7 63.2998 10.6 63.2998C10.7 63.1998 10.6 62.3998 10.7 62.2998C10.8 62.1998 11.7 62.4998 11.9 62.4998C13.1 62.6998 14.5 62.5998 15.6 62.0998C15.7 62.1998 15.5 62.5998 15.9 62.6998C16.4 62.3998 15.9 61.8998 16.6 61.6998C16.7 61.7998 16.6 62.1998 16.5 62.4998C16.1 62.7998 15.7 62.7998 15.3 62.9998C15.6 63.3998 16.5 63.0998 17 62.8998C18.2 62.2998 19.6 61.2998 20.4 60.4998C20.8 59.9998 21 59.5998 21.3 58.9998C21.7 58.1998 22.6 57.5998 22.4 56.6998C21.9 56.9998 21.7 57.6998 21.3 58.0998C21.3 56.3998 21.4 54.2998 21.4 52.4998C21.4 52.3998 21.5 52.5998 21.5 52.3998C21.5 51.7998 21.6 51.0998 21.4 50.2998C21.2 49.6998 20.7 49.2998 21.1 48.7998C21.5 49.2998 21.8 50.0998 22.3 50.3998C22.4 49.7998 22.1 49.1998 21.8 48.5998C21.3 47.5998 20.8 46.4998 20.1 45.5998C19.7 45.0998 18.6 44.0998 18 43.7998C17.8 43.6998 17.5 43.7998 17.2 43.6998C16.6 43.4998 16 42.8998 15.4 42.7998C15 42.6998 14.5 42.7998 14 42.7998C12.7 42.7998 11.2 42.7998 9.70002 43.4998C8.90001 43.8998 8.10001 44.2998 7.20001 44.8998C6.20001 45.5998 4.80001 46.5998 4.20001 47.5998C3.50001 48.5998 3.00001 49.6998 3.10001 50.6998C1.90001 52.9998 2.30001 56.0998 4.50002 59.3998C5.50002 60.8998 6.60001 62.1998 7.90001 62.6998C8.20002 62.7998 8.50001 62.6998 8.80001 62.8998C9.20002 63.0998 9.50002 63.4998 9.90001 63.5998C10.3 63.6998 10.6 63.5998 11 63.6998C11.4 63.7998 11.7 63.8998 12.1 63.7998Z" fill="white"/>
<path fill-rule="evenodd" clip-rule="evenodd" d="M20.8 56.3999C20.4 57.1999 20.2 58.3999 20.2 59.4999C21.2 58.5999 20.5 57.3999 20.8 56.3999Z" fill="white"/>
<path fill-rule="evenodd" clip-rule="evenodd" d="M5.39999 47.8999C4.79999 48.6999 4.09999 49.4999 3.79999 50.3999C3.59999 51.0999 3.59999 51.7999 3.59999 52.5999C3.49999 53.8999 3.39999 55.1999 4.19999 56.7999C4.39999 56.2999 3.89999 55.7999 3.79999 55.3999C3.69999 54.9999 3.89999 54.5999 3.79999 54.2999C3.69999 53.6999 3.59999 53.1999 3.59999 52.6999C3.59999 51.6999 3.89999 50.7999 4.39999 49.8999C4.59999 49.4999 4.99999 49.0999 5.29999 48.5999C5.39999 48.3999 5.59999 47.9999 5.39999 47.8999Z" fill="white"/>
<path fill-rule="evenodd" clip-rule="evenodd" d="M15.6 91.8999C15.3 91.9999 15.3 92.4999 15 92.7999C15.4 92.6999 15.7 92.2999 15.6 91.8999Z" fill="white"/>
</g>
</svg>
