<svg width="131" height="125" viewBox="0 0 131 125" fill="none" xmlns="http://www.w3.org/2000/svg">
<g opacity="0.2" clip-path="url(#clip0)">
<path fill-rule="evenodd" clip-rule="evenodd" d="M1.5 93.1C4.2 90.9 10.3 90.6 14.3 90.3C10.9 84.8 8 78 6 70.4C5 66.6 4.1 62.6 3.2 58.6C1.4 50.3 1.63913e-06 42 0.100002 34.1C0.200002 30.2 0.100002 26.5 0.900002 23.1C1.6 19.9 2.3 16.5 3.3 13.3C3.8 11.8 4.2 10.1 4.8 8.59998C5.8 6.29998 6.5 3.89998 8.6 2.69998C9.2 2.39998 9.7 2.29998 9.6 1.69998C10.1 1.99998 10.5 1.39998 11 1.09998C11.6 0.799983 12.2 0.699983 12.9 0.599983C14.4 -0.700017 16 0.399983 17.1 1.09998C17.9 1.59998 18.9 2.09998 19.4 2.79998C19.6 3.09998 19.7 3.59998 19.8 3.99998C20.9 6.79998 21.9 9.99998 22.4 13.4C23 17.3 23.5 21.4 23.5 24.9C23.5 28.5 23.3 32.2 23.8 36C24.3 39.9 25.2 43.9 25.8 47.9C27 56.1 28.3 64.2 30.1 71.4C31.9 78.7 34.5 85.6 35.9 92.9C38.2 93.1 40.3 93.4 42.4 93.7C44.5 94 46.5 94.5 48.7 94.9C51.6 95.4 54.9 96.5 58.3 96.3C59.6 96.2 61.7 95.9 62.7 95.5C62.7 95.4 62.9 95 62.9 95.3C63.9 94.8 65.7 93.8 67 93.2C67.5 93.2 68 93.1 68.6 93.1C69.1 93.1 69.7 93 70.3 93.1C70.8 93.2 71.3 93.5 71.9 93.5C73.8 93.8 75.4 94.3 77 94.8C81.5 96.1 86 97.2 90.5 98.4C95 99.6 99.3 101 103.8 102.2C106 102.8 108.3 103.5 110.5 104.1C112.7 104.7 114.9 105.5 117.1 106.1C118.7 106.6 120.5 107 122.1 107.6C122.6 107.8 123.1 108.2 123.6 108.3C123.9 108.4 123.9 108.5 124.2 108.1C124.2 108.5 124.4 108.7 124.7 108.8C125.9 109.6 127.6 109.8 128.7 110.8C129.1 111.1 129.3 111.5 129.7 111.9C130.1 112.3 130.3 112.7 130.5 113.3C130.6 113.9 130.1 114.7 130.4 115.4C130.3 115.8 129.9 115.2 130 115.6C129.9 117.8 128.5 118.9 127.2 120.3C126.5 121 125.8 121.9 125 122.5C124.1 123.2 122.9 123.6 121.8 123.9C121.8 124.2 121.9 124.5 121.5 124.5C121.3 123.9 120.8 124.2 119.9 124.3C118.2 124.5 116.3 124.4 115.1 124.4C112.8 124.3 110.9 124.3 109 124C104.9 123.6 101.2 122.9 97.4 122.4C89.5 121.3 82.4 119.5 75.1 118C71.4 117.3 67.6 116.6 64.1 115.7C60.6 114.7 57.2 113.6 53.5 112.7C50.1 111.9 46.4 110.8 42.9 109.8C40.3 109.1 37.7 108.3 35.1 107.4C34.6 107.2 33.1 106.3 32.6 106.4C32.1 106.4 31.9 106.8 31.4 106.9C29.4 107.4 27.7 106.9 26.4 106.4C25.1 105.8 24.2 104.6 23.2 103.5L23.1 103.4C22.3 102.8 21 102.3 19.9 101.9C17.5 100.9 15.4 100.3 12.6 99.9C11.3 99.7 9.8 99.4 8.5 99.5C6.9 99.6 5.4 100.1 3.7 100C2 99.9 0.100002 98 0.100002 95.7C1.63913e-06 94.8 1 93.5 1.5 93.1Z" fill="#0F0B0B"/>
<path fill-rule="evenodd" clip-rule="evenodd" d="M115.9 123C115.9 122.8 115.5 122.8 115.4 122.8C113.7 122.4 111.8 121.8 110.1 121.4C110.3 121.7 110.5 122 110.6 122.4C112.4 122.5 114.1 122.8 115.9 123Z" fill="white"/>
<path fill-rule="evenodd" clip-rule="evenodd" d="M123.2 110.8C122.2 110.2 120.8 110 119.6 109.8C118.8 113.9 117.8 117.8 116.8 121.7C117.3 121.9 118 122 118.7 122.1C119.5 118.6 120 114.9 121.2 111.7C120.9 115.5 119.7 118.6 119.2 122.2C119.6 122 120.7 122.6 121.1 122.4C121.5 122.2 121.7 120.1 121.8 119.6C122.2 116.6 122.7 113.3 123.2 110.8Z" fill="white"/>
<path fill-rule="evenodd" clip-rule="evenodd" d="M121.9 121.9C122.3 121.9 122.5 121.8 122.7 121.6C122.9 119.8 123.2 118 123.5 116.2C123.8 114.4 124.2 112.7 124.4 111C124.3 110.9 124.1 110.9 123.9 110.8C123.1 114.5 122.6 118.3 121.9 121.9Z" fill="white"/>
<path fill-rule="evenodd" clip-rule="evenodd" d="M123.2 121.5C124.2 121.2 124.7 120.6 125.2 120C125.4 118 125.9 115.9 126.2 113.9C126.3 113.3 126.7 112.4 126 112.1C125.4 114.7 125.2 117.6 124.6 120.3C124.2 120.1 124.4 119.5 124.4 119.2C124.6 117.2 124.9 115.4 125.2 113.4C125.3 112.8 125.9 111.7 124.9 111.6C124.4 114.8 123.8 118.1 123.2 121.5Z" fill="white"/>
<path fill-rule="evenodd" clip-rule="evenodd" d="M116.3 121.5C117.3 117.5 118.3 113.6 119.2 109.5C116.4 108.8 113.8 107.8 111.1 107.1C110.1 111.1 109.1 115.1 108.2 119.1C110.8 120.1 113.6 120.8 116.3 121.5Z" fill="white"/>
<path fill-rule="evenodd" clip-rule="evenodd" d="M109.9 122.2C110 121.9 109.6 121.6 109.6 121.2C109.3 121.1 109 121 108.7 121C108.7 121.4 109 121.6 109 122C109.2 122.1 109.6 122 109.9 122.2Z" fill="white"/>
<path fill-rule="evenodd" clip-rule="evenodd" d="M125.8 119.2C127.1 117.7 128.7 116.2 128.4 113.7C128.2 113.6 128.2 113.5 128 113.4C127.5 114.7 127.5 116.5 126.7 117.7C126.4 116.9 126.8 116 127 115.1C127.1 114.7 127.2 114.2 127.3 113.8C127.4 113.4 127.5 112.9 127.1 112.7C126.6 114.8 126.2 117 125.8 119.2Z" fill="white"/>
<path fill-rule="evenodd" clip-rule="evenodd" d="M108.2 121.7C108.1 121.4 107.9 121.1 107.9 120.6C107.6 120.6 107.3 120.5 107.1 120.4C107 120.7 107.4 121.1 107.5 121.5C107.8 121.6 107.9 121.8 108.2 121.7Z" fill="white"/>
<path fill-rule="evenodd" clip-rule="evenodd" d="M106.4 120.3C106.1 120.2 105.6 120.2 105.4 120C105.3 120.4 105.7 120.8 105.8 121.2C106.1 121.3 106.4 121.3 106.6 121.4C106.9 121.2 106.4 120.7 106.4 120.3Z" fill="white"/>
<path fill-rule="evenodd" clip-rule="evenodd" d="M105 121.1C104.9 120.7 104.7 120.4 104.6 119.9C104.4 119.8 104.2 119.7 104 119.7C104.1 120.2 104.3 120.5 104.5 120.9C104.6 121 104.7 121.1 105 121.1Z" fill="white"/>
<path fill-rule="evenodd" clip-rule="evenodd" d="M102.8 119.5C102.9 120 103.1 120.3 103.2 120.8C103.3 120.9 103.5 120.8 103.6 120.9C103.7 120.6 103.4 119.5 102.8 119.5Z" fill="white"/>
<path fill-rule="evenodd" clip-rule="evenodd" d="M100.4 121C100.3 120.7 99.9 120.8 99.7 120.7C99.8 121 100.2 120.9 100.4 121Z" fill="white"/>
<path fill-rule="evenodd" clip-rule="evenodd" d="M102.6 120.6C102.5 120.1 102.2 119.8 102.1 119.3C101.9 119.3 101.7 119.2 101.4 119.2C101.5 119.7 101.7 120 101.8 120.5C102 120.5 102.3 120.6 102.6 120.6Z" fill="white"/>
<path fill-rule="evenodd" clip-rule="evenodd" d="M101.1 120.3C101.3 120 100.8 119.5 100.8 119C100.5 118.9 100.3 118.8 99.9 118.7C100.1 119.1 100.2 119.6 100.4 120.1C100.6 120.2 100.9 120.2 101.1 120.3Z" fill="white"/>
<path fill-rule="evenodd" clip-rule="evenodd" d="M107.7 119.1C108.8 115.1 109.6 110.9 110.8 107C110.2 106.9 109.7 106.7 109.1 106.7C108.1 110.6 107.4 114.8 106.4 118.7C106.8 118.9 107.3 119 107.7 119.1Z" fill="white"/>
<path fill-rule="evenodd" clip-rule="evenodd" d="M99.4 118.5C99.2 118.5 99.1 118.5 99 118.4C98.9 118.9 99.3 119.4 99.4 119.9C100.4 120.3 99.5 119 99.4 118.5Z" fill="white"/>
<path fill-rule="evenodd" clip-rule="evenodd" d="M98.4 118.2C97.9 118.1 97.5 117.9 97 117.9C97.2 118.4 97.3 119 97.5 119.5C97.9 119.6 98.4 119.7 98.8 119.8C99 119.4 98.5 118.8 98.4 118.2Z" fill="white"/>
<path fill-rule="evenodd" clip-rule="evenodd" d="M108.6 106.5C108.3 106.4 108.1 106.4 107.8 106.3C106.7 110.2 105.9 114.3 104.8 118.2C105.2 118.3 105.7 118.4 106.1 118.6C106.9 114.6 107.7 110.5 108.6 106.5Z" fill="white"/>
<path fill-rule="evenodd" clip-rule="evenodd" d="M96.6 117.8C96.2 117.7 95.8 117.6 95.3 117.6C95.5 118.1 95.7 118.5 95.8 119.1C96.2 119.2 96.7 119.3 97 119.4C97.2 119 96.7 118.3 96.6 117.8Z" fill="white"/>
<path fill-rule="evenodd" clip-rule="evenodd" d="M104.2 118.1H104.3C105.1 114.1 106 110.1 107 106.2C106.6 106.2 106.4 106 106 106C104.9 109.8 104 113.8 103.1 117.8C103.4 118 103.9 118 104.2 118.1Z" fill="white"/>
<path fill-rule="evenodd" clip-rule="evenodd" d="M95.3 119C95.3 118.5 94.9 118.1 94.9 117.5C90.4 116.3 85.6 115.5 81 114.5C80.7 114.5 80.7 114.5 80.6 114.7C80.4 114.3 79.5 114 79.2 114.4C79.2 114.2 79.2 114.1 79.1 114C77.7 113.6 76.2 113.3 74.7 112.9C74.6 113.3 75.1 113.7 75.1 114.2C81.5 116.4 88.7 117.3 95.3 119Z" fill="white"/>
<path fill-rule="evenodd" clip-rule="evenodd" d="M102.6 117.7C103.6 113.7 104.3 109.6 105.5 105.7C105 105.7 104.7 105.5 104.2 105.5C103.2 109.5 102.1 113.3 101.3 117.4C101.7 117.6 102.1 117.6 102.6 117.7Z" fill="white"/>
<path fill-rule="evenodd" clip-rule="evenodd" d="M103.7 105.4C101.8 105 100 104.4 98 104C97.2 108.1 96.2 112.1 95.1 116C97 116.4 99.1 117 100.9 117.3C101.7 113.3 102.8 109.4 103.7 105.4Z" fill="white"/>
<path fill-rule="evenodd" clip-rule="evenodd" d="M97.6 103.9C97.1 103.8 96.6 103.6 96.1 103.6C95.6 105.9 95 108.8 94.3 111.3C94.1 112 93.6 113.2 93.7 113.8C93.8 114.2 94.3 114.4 94.4 114.8C94 114.9 93.9 114.2 93.5 114.4C93.5 114.9 93.3 115.2 93.2 115.7C93.7 115.7 94.1 115.9 94.6 116C95.8 112 96.7 108 97.6 103.9Z" fill="white"/>
<path fill-rule="evenodd" clip-rule="evenodd" d="M92.8 115.5C93 115 93 114.4 93.2 113.9C92.7 113.6 92.4 113.1 91.9 112.8C91.8 113.3 91.7 113.8 91.6 114.3C91.9 114.7 92.4 115 92.8 115.5Z" fill="white"/>
<path fill-rule="evenodd" clip-rule="evenodd" d="M91.2 114.5C90.9 114.2 90.7 113.8 90.2 113.6C90.2 114.1 90 114.4 90 114.8C90.5 114.9 91.2 115.2 91.2 114.5Z" fill="white"/>
<path fill-rule="evenodd" clip-rule="evenodd" d="M89.6 114.7C88.5 113.6 87.4 112.4 86.4 111.1C86.1 110.7 85.5 110.2 85.9 109.6C86.3 109.7 86.2 110.1 86.4 110.3C87.3 111.8 88.8 112.8 89.7 114.3C90.4 112.9 89 111.9 88.2 111C87.6 110.3 87 109.6 86.6 108.9C87 108.9 87.2 109.4 87.5 109.7C88.3 110.5 89.2 111.6 90.1 112.4C90 111.9 90.5 111.4 90.4 110.9C90.3 110.5 89.7 110.1 89.4 109.7C88.4 108.6 87.2 107.4 86.6 106C87.4 106.5 87.9 107.4 88.5 108.1C89.1 108.8 89.8 109.5 90.4 110.2C91.1 107.6 91.7 104.9 92.5 102.4C90.2 101.5 87.3 101.3 84.9 100.6C83.7 104.7 82.5 108.8 81.3 113C84 113.7 86.8 114.2 89.6 114.7Z" fill="white"/>
<path fill-rule="evenodd" clip-rule="evenodd" d="M91.2 113.9C91.5 113 91.7 111.8 90.7 111.5C90.4 112.5 90.3 113.3 91.2 113.9Z" fill="white"/>
<path fill-rule="evenodd" clip-rule="evenodd" d="M93.3 113.4C94.1 110.1 94.8 106.7 95.6 103.3C95.2 103.3 95 103 94.5 103.1C93.7 106.1 92.8 109 92.1 112.1C92.4 112.6 92.9 112.9 93.3 113.4Z" fill="white"/>
<path fill-rule="evenodd" clip-rule="evenodd" d="M91.6 111.7C92.4 108.8 93 105.8 93.9 103C93.6 102.7 93.2 102.7 92.8 102.6C92.6 104.5 91.8 106.7 91.3 108.7C91 109.9 90.5 111.1 91.6 111.7Z" fill="white"/>
<path fill-rule="evenodd" clip-rule="evenodd" d="M74.6 114.1C74.7 113.9 74.3 113.3 74.2 112.8C74 112.7 73.7 112.7 73.4 112.7C73.4 113.2 73.7 113.4 73.8 113.8C74 113.9 74.3 114 74.6 114.1Z" fill="white"/>
<path fill-rule="evenodd" clip-rule="evenodd" d="M84.4 100.7C84.1 100.6 83.8 100.5 83.4 100.5C82.2 104.7 80.9 108.7 79.8 112.9C80.1 113 80.5 113.1 80.9 113.1C82 108.9 83 104.6 84.4 100.7Z" fill="white"/>
<path fill-rule="evenodd" clip-rule="evenodd" d="M73.1 113.6C73.2 113.3 72.9 112.9 72.9 112.5C72.7 112.5 72.5 112.4 72.3 112.4C72.6 112.9 72.6 113.5 73.1 113.6Z" fill="white"/>
<path fill-rule="evenodd" clip-rule="evenodd" d="M82.9 100.3C82.6 100 82.2 100 81.8 99.8C80.6 104.1 79.1 108.1 77.9 112.3C78.4 112.4 79 112.6 79.4 112.6C80.4 108.5 81.6 104.3 82.9 100.3Z" fill="white"/>
<path fill-rule="evenodd" clip-rule="evenodd" d="M72.2 113.3C72 112.9 71.9 112.6 71.7 112.2C71.4 112.1 71 112.1 70.8 112C70.7 112.3 71.1 112.6 71.1 113C71.5 113.2 71.8 113.3 72.2 113.3Z" fill="white"/>
<path fill-rule="evenodd" clip-rule="evenodd" d="M77.5 112.3C78.6 108.6 79.8 104.8 80.9 101.1C81 100.6 81.4 100.1 81.2 99.6C80.9 99.6 80.9 100 80.8 100.2C79.4 104.1 78 108.1 76.7 112.1C77 112.2 77.2 112.3 77.5 112.3Z" fill="white"/>
<path fill-rule="evenodd" clip-rule="evenodd" d="M70.2 112.9H70.3C70.2 112.6 70 112.3 70 111.9C66.3 111.4 63.7 109.6 60.4 108.7C60.4 109.4 60.9 110.2 61.2 110.9C64.2 111.5 67.3 112 70.2 112.9Z" fill="white"/>
<path fill-rule="evenodd" clip-rule="evenodd" d="M76.3 112C76.3 111.7 76.4 111.6 76.5 111.3C76.4 111.1 76.2 111 76.1 110.9C76 111.2 75.9 111.6 75.8 111.9C75.9 111.9 76 112.1 76.3 112Z" fill="white"/>
<path fill-rule="evenodd" clip-rule="evenodd" d="M75.1 111.6C75.4 111.4 75.3 110.9 75.5 110.6C75.3 110.3 75 110.2 74.8 110C74.6 110.2 74.5 110.6 74.4 110.9C74.6 111.2 75 111.3 75.1 111.6Z" fill="white"/>
<path fill-rule="evenodd" clip-rule="evenodd" d="M73.8 111.5C74 111.5 73.7 111.2 73.9 111.2C73.5 110.9 73.2 110.6 72.8 110.4C72.8 110.7 72.6 110.9 72.6 111.2C73 111.3 73.4 111.4 73.8 111.5Z" fill="white"/>
<path fill-rule="evenodd" clip-rule="evenodd" d="M76.4 111.1C76.7 110.7 76.7 110.2 76.9 109.7C76.7 109.7 76.6 109.5 76.5 109.3C76.2 109.8 75.8 110.7 76.4 111.1Z" fill="white"/>
<path fill-rule="evenodd" clip-rule="evenodd" d="M72.2 111.1C72.4 110.9 72.4 110.5 72.5 110.2C72.2 109.8 71.8 109.6 71.4 109.4C70.9 110.2 71.4 111 72.2 111.1Z" fill="white"/>
<path fill-rule="evenodd" clip-rule="evenodd" d="M74 110.6C74.2 110.4 74.2 110 74.4 109.7C74.1 109.3 73.8 109.1 73.5 108.8C73.3 109 73.3 109.4 73.1 109.7C73.3 110.1 73.7 110.3 74 110.6Z" fill="white"/>
<path fill-rule="evenodd" clip-rule="evenodd" d="M75.6 110.2C75.8 109.9 75.9 109.4 76.1 109C75.9 108.7 75.7 108.5 75.4 108.4C75.3 108.8 75.2 109.2 75 109.5C75.1 109.8 75.4 109.9 75.6 110.2Z" fill="white"/>
<path fill-rule="evenodd" clip-rule="evenodd" d="M70.5 110.6C70.6 110.2 69.7 109.8 69.3 109.5C69.3 109.7 69.2 109.9 69.1 110C69.5 110.4 70.1 110.4 70.5 110.6Z" fill="white"/>
<path fill-rule="evenodd" clip-rule="evenodd" d="M77 109.6C78.2 106.2 79.5 102.9 80.6 99.4C80.3 99.4 80.1 99.2 79.8 99.2C79.1 101.4 78.3 104.1 77.4 106.6C77.1 107.5 76.2 108.9 77 109.6Z" fill="white"/>
<path fill-rule="evenodd" clip-rule="evenodd" d="M70.8 110C70.9 109.7 71 109.4 71.1 109.1C70.7 108.7 70.4 108.3 69.9 108.1C69.8 108.4 69.7 108.7 69.6 109C69.9 109.3 70.4 109.6 70.8 110Z" fill="white"/>
<path fill-rule="evenodd" clip-rule="evenodd" d="M73.1 108.5C72.8 108.2 72.4 108 72.2 107.6C72 107.9 71.9 108.3 71.8 108.6C72.1 109 72.4 109.2 72.7 109.5C73 109.3 72.8 108.8 73.1 108.5Z" fill="white"/>
<path fill-rule="evenodd" clip-rule="evenodd" d="M74.5 109.2C74.7 108.9 74.8 108.4 75 108.1C74.8 107.7 74.3 107.5 74 107.1C73.8 107.5 73.7 107.9 73.6 108.4C73.9 108.6 74.2 108.9 74.5 109.2Z" fill="white"/>
<path fill-rule="evenodd" clip-rule="evenodd" d="M98.2 103C98.2 103.2 98.2 103.3 98.1 103.4C99.8 104.1 101.9 104.4 103.8 104.9C103.9 104.9 103.9 104.8 103.9 104.8C101.9 104.3 100.2 103.4 98.2 103Z" fill="white"/>
<path fill-rule="evenodd" clip-rule="evenodd" d="M69 109.2C68.9 108.9 68.6 108.9 68.4 108.7C68.2 108.9 68.2 109.4 68 109.6C68.4 110.1 68.9 109.9 69 109.2Z" fill="white"/>
<path fill-rule="evenodd" clip-rule="evenodd" d="M76.1 108.6C76.2 108.6 76.2 108.5 76.1 108.6C76.8 106.8 77.3 105 77.9 103.3C78.5 101.5 78.9 99.7 79.8 98.1C80.1 98.4 79.8 98.7 79.8 99C80.1 99 80.3 99.1 80.6 99.1C80.9 98.9 80.9 98.5 81.1 98.2C80.3 97.9 79.4 97.6 78.5 97.4C78 100.5 77 103.2 76.1 106C76.1 106.2 76.1 106.2 76.2 106.3C75.8 106.5 75.7 107.3 75.5 107.8C75.7 108.1 75.9 108.3 76.1 108.6Z" fill="white"/>
<path fill-rule="evenodd" clip-rule="evenodd" d="M59.7 108.4C59.4 108.3 59.1 108.1 58.7 108C59 108.9 59.5 109.6 59.8 110.5C60 110.6 60.3 110.5 60.5 110.6C60.6 110.1 59.9 109.2 59.7 108.4Z" fill="white"/>
<path fill-rule="evenodd" clip-rule="evenodd" d="M67.6 109.5C67.8 109.2 67.7 108.7 67.9 108.4C65.5 106.4 63.2 104.1 60.9 101.9C60.8 102.2 60.7 102.5 60.6 102.8C62.8 105.3 65.3 107.2 67.6 109.5Z" fill="white"/>
<path fill-rule="evenodd" clip-rule="evenodd" d="M59.4 110.5C58.9 109.6 58.5 108.8 58.1 107.7C57.8 107.6 57.4 107.5 57.1 107.4C57.4 108.4 57.9 109.2 58.1 110.3C58.5 110.4 58.9 110.5 59.4 110.5Z" fill="white"/>
<path fill-rule="evenodd" clip-rule="evenodd" d="M71.2 108.4C71.5 108.2 71.4 107.6 71.7 107.3C71.4 106.9 71 106.7 70.6 106.3C70.4 106.6 70.3 107 70.2 107.4C70.4 107.9 70.9 107.9 71.2 108.4Z" fill="white"/>
<path fill-rule="evenodd" clip-rule="evenodd" d="M69.1 108.6C69.3 108.4 69.3 108 69.5 107.7C69.4 107.4 69.1 107.4 69 107.1C68.8 107.4 68.8 107.7 68.6 108C68.6 108.4 68.9 108.4 69.1 108.6Z" fill="white"/>
<path fill-rule="evenodd" clip-rule="evenodd" d="M57.4 110.2C57.2 109.3 56.6 108.2 56.3 107.2C52.5 105.6 48.8 103.9 44.7 102.6C45.5 104.1 46.4 105.5 47.1 107.2C46.6 107.2 46.4 106.6 46.2 106.3C45.5 105.1 44.7 103.7 44 102.4C43.6 102.3 43.2 102.1 42.8 102C43.8 103.6 44.6 105.4 45.5 107.1C49.6 108.1 53.5 109.2 57.4 110.2Z" fill="white"/>
<path fill-rule="evenodd" clip-rule="evenodd" d="M73.1 107.9C73.4 107.6 73.3 107.1 73.6 106.7C73.3 106.4 73 106.2 72.7 105.9C72.5 106.3 72.4 106.7 72.3 107.2C72.5 107.4 72.8 107.7 73.1 107.9Z" fill="white"/>
<path fill-rule="evenodd" clip-rule="evenodd" d="M75 107.5C75.3 107.2 75.3 106.7 75.5 106.2C75.2 105.8 74.8 105.4 74.4 105.2C74.3 105.7 74.1 106.1 74 106.6C74.3 106.9 74.7 107.1 75 107.5Z" fill="white"/>
<path fill-rule="evenodd" clip-rule="evenodd" d="M68.4 106.9C66.1 104.7 63.7 102.6 61.5 100.2C61.3 100.5 61.2 100.9 61.1 101.3C63.3 103.7 65.6 105.8 68 107.8C68.3 107.6 68.3 107.2 68.4 106.9Z" fill="white"/>
<path fill-rule="evenodd" clip-rule="evenodd" d="M97.7 103.4C97.8 103.3 97.9 103.1 97.9 102.9C97.4 102.8 96.9 102.6 96.3 102.6C96.3 102.8 96.3 102.9 96.2 103C96.6 103.2 97.2 103.2 97.7 103.4Z" fill="white"/>
<path fill-rule="evenodd" clip-rule="evenodd" d="M69.6 107C69.9 106.6 70.3 105.6 69.5 105.4C69.4 105.8 69.3 106.2 69.1 106.5C69.2 106.8 69.4 106.8 69.6 107Z" fill="white"/>
<path fill-rule="evenodd" clip-rule="evenodd" d="M71.7 106.7C72 106.4 72 105.9 72.1 105.4C71.8 105.1 71.4 104.9 71.2 104.5C71 104.8 70.8 105.3 70.7 105.7C71 106.2 71.4 106.4 71.7 106.7Z" fill="white"/>
<path fill-rule="evenodd" clip-rule="evenodd" d="M73.6 106.2C73.9 105.9 73.9 105.2 74.1 104.8C73.9 104.5 73.6 104.2 73.2 104C73.2 104.6 72.9 105 72.8 105.5C73.1 105.7 73.3 105.9 73.6 106.2Z" fill="white"/>
<path fill-rule="evenodd" clip-rule="evenodd" d="M76 103.6C75.7 103.4 75.4 103.2 75.1 102.9C74.9 103.5 74.7 104.1 74.5 104.7C74.8 105.2 75.2 105.4 75.5 105.9C76.5 103.2 77.3 100.3 78.1 97.3C77.1 97 76.2 96.5 75.1 96.4C75.2 96.6 75.2 97 75 97.2C75.1 97.4 75.3 97.3 75.4 97.5C75.4 97.7 75.1 97.6 74.9 97.7C74.7 99 74.2 100.1 73.9 101.4C74.2 101.6 74.4 101.9 74.6 102.2C75.3 100.7 75.5 98.9 76.4 97.5C76.3 99.5 75.5 100.9 75.1 102.6C75.5 102.9 75.8 103.1 76 103.6Z" fill="white"/>
<path fill-rule="evenodd" clip-rule="evenodd" d="M95.9 102.5C95.7 102.2 95.1 102.4 94.8 102.2C94.7 102.3 94.7 102.5 94.6 102.6C95 102.7 95.8 103.2 95.9 102.5Z" fill="white"/>
<path fill-rule="evenodd" clip-rule="evenodd" d="M69 105.1C67.3 103.3 65.4 101.7 63.7 99.9C63.1 100 62.5 99.9 61.9 99.9C61.9 100.1 62.2 100.4 62.5 100.7C64.4 102.5 66.6 104.5 68.5 106.2C68.9 105.9 68.9 105.5 69 105.1Z" fill="white"/>
<path fill-rule="evenodd" clip-rule="evenodd" d="M94.2 102C90.5 101.2 87.2 100 83.7 99.1C83.6 99.4 83.6 99.7 83.5 100C83.8 100.1 84.2 100.1 84.5 100.2C84.7 100 84.8 99.7 85 99.4C85 99.7 84.9 99.9 85 100.2C88 100.9 91.2 101.4 94 102.4C94.2 102.4 94.2 102.2 94.2 102Z" fill="white"/>
<path fill-rule="evenodd" clip-rule="evenodd" d="M70.1 105.4C70.3 105.1 70.4 104.6 70.6 104.2C70.5 104 70.3 103.9 70.1 103.8C70 104.2 69.8 104.6 69.7 105C69.8 105.2 70 105.2 70.1 105.4Z" fill="white"/>
<path fill-rule="evenodd" clip-rule="evenodd" d="M72.2 105C72.6 104.1 72.9 103.2 71.9 102.6C71.6 103.1 71.5 103.6 71.3 104.1C71.6 104.4 71.9 104.7 72.2 105Z" fill="white"/>
<path fill-rule="evenodd" clip-rule="evenodd" d="M74.2 104.3C74.4 103.7 74.5 103.1 74.8 102.5C74.6 102.2 74.3 102 74.1 101.7C73.8 102.2 73.8 102.9 73.5 103.5C73.6 103.8 73.9 104 74.2 104.3Z" fill="white"/>
<path fill-rule="evenodd" clip-rule="evenodd" d="M69.2 104.6C69.4 104.2 69.5 103.8 69.6 103.3C68.3 102.2 67.1 100.9 65.8 99.7C65.3 99.8 64.9 99.8 64.4 99.9C64.4 100.2 64.6 100.3 64.8 100.5C66.2 101.8 67.8 103.2 69.2 104.6Z" fill="white"/>
<path fill-rule="evenodd" clip-rule="evenodd" d="M70.8 103.6C70.9 103 71.8 101.9 70.8 101.7C70.7 102.4 69.9 103.3 70.8 103.6Z" fill="white"/>
<path fill-rule="evenodd" clip-rule="evenodd" d="M59.3 105.2C59.6 104.4 59.8 103.6 60.1 102.8C59.8 102.6 59.6 102.3 59.4 102C59 102.7 58.9 103.6 58.5 104.2C58.5 103.6 58.7 102.9 58.9 102.1C59.2 101.2 60 100 58.9 99.7C58.2 100.8 58.2 102.5 57.4 103.6C57.4 102.3 58.1 101.1 58.2 99.7C57.9 99.8 57.8 99.6 57.5 99.7C57.1 100.8 56.8 101.9 56.4 102.9C57.3 103.8 58.3 104.5 59.3 105.2Z" fill="white"/>
<path fill-rule="evenodd" clip-rule="evenodd" d="M42.2 101.9C41.8 101.8 41.4 101.7 41 101.6C42.1 103.2 42.9 105.1 43.9 107C44.2 107.1 44.6 107.1 44.9 107.2C45 107.2 45 107.2 45 107.1C44.1 105.3 43.1 103.6 42.2 101.9Z" fill="white"/>
<path fill-rule="evenodd" clip-rule="evenodd" d="M72.8 103C73.1 102.4 73.2 101.8 73.3 101.2C73.1 100.9 72.9 100.6 72.5 100.5C72.4 101.1 72.1 101.6 71.9 102.1C72.2 102.5 72.6 102.6 72.8 103Z" fill="white"/>
<path fill-rule="evenodd" clip-rule="evenodd" d="M43.3 106.8H43.4C42.4 105 41.5 103.2 40.5 101.5C39.7 101.3 39 101 38.2 100.9C39.2 102.6 40.2 104.3 41 106.2C41.3 106.3 41.7 106.3 41.9 106.5C41.3 104.7 40 103.2 39.3 101.4C40.1 101.8 40.6 102.9 41.1 103.8C41.6 104.8 42.1 105.8 42.5 106.7C42.7 106.6 43 106.7 43.3 106.8Z" fill="white"/>
<path fill-rule="evenodd" clip-rule="evenodd" d="M69.8 102.8C70.1 102.4 70.2 101.8 70.4 101.3C69.6 100.3 68.7 99.6 67.8 98.7C67.3 98.9 66.9 99.3 66.3 99.5C67.4 100.6 68.6 101.7 69.8 102.8Z" fill="white"/>
<path fill-rule="evenodd" clip-rule="evenodd" d="M53.8 104.6C54 104.1 53.6 103.6 53.3 103.5C53.2 103.7 53.4 104.1 53.4 104.4C53.5 104.5 53.7 104.5 53.8 104.6Z" fill="white"/>
<path fill-rule="evenodd" clip-rule="evenodd" d="M71.4 101.7C71.8 101.2 71.8 100.5 72.1 100C71.9 99.8 71.8 99.6 71.5 99.5C71.4 100.1 71.2 100.7 70.9 101.2C71.1 101.4 71.3 101.4 71.4 101.7Z" fill="white"/>
<path fill-rule="evenodd" clip-rule="evenodd" d="M83.3 98.9C82.9 98.9 82.6 98.6 82.1 98.6C82.1 99 81.9 99.1 81.9 99.5C82.3 99.5 82.6 99.8 83 99.8C83.1 99.5 83.3 99.2 83.3 98.9Z" fill="white"/>
<path fill-rule="evenodd" clip-rule="evenodd" d="M37.5 100.7C37.2 100.6 36.9 100.6 36.5 100.5C37.5 102.1 38.4 103.8 39.3 105.7C39.6 105.8 40 105.8 40.2 105.9C40.3 105.9 40.3 105.9 40.3 105.8C39.5 104.1 38.5 102.4 37.5 100.7Z" fill="white"/>
<path fill-rule="evenodd" clip-rule="evenodd" d="M52.7 104.2C52.9 104 52.7 103.1 52.5 103C52.5 103.2 52.6 103.9 52.7 104.2Z" fill="white"/>
<path fill-rule="evenodd" clip-rule="evenodd" d="M51.5 102.1C51.5 102.6 51.5 103.1 51.6 103.7C51.7 103.8 51.8 103.8 51.9 103.9C52.2 103.4 52 102.2 51.5 102.1Z" fill="white"/>
<path fill-rule="evenodd" clip-rule="evenodd" d="M73.4 100.7C73.9 99.7 74.1 98.5 74.4 97.4C74.1 97.4 73.9 97.3 73.6 97.3C73.4 98.2 73.1 99 72.8 99.9C72.9 100.3 73.3 100.3 73.4 100.7Z" fill="white"/>
<path fill-rule="evenodd" clip-rule="evenodd" d="M60.2 102.5C60.4 102.3 60.4 101.8 60.6 101.5C60.4 101.2 60.2 100.8 59.8 100.7C59.7 101 59.7 101.4 59.5 101.6C59.7 101.9 60 102.2 60.2 102.5Z" fill="white"/>
<path fill-rule="evenodd" clip-rule="evenodd" d="M38.8 105.6C37.9 104 37.2 102.2 36 100.9C35.9 101.9 36.6 102.6 37.1 103.4C37.5 104.1 37.7 104.8 38.1 105.4C38.3 105.5 38.5 105.6 38.8 105.6Z" fill="white"/>
<path fill-rule="evenodd" clip-rule="evenodd" d="M81.8 98.4C81.3 98.2 81.4 98.9 81.2 99.2C81.6 99.6 81.7 98.7 81.8 98.4Z" fill="white"/>
<path fill-rule="evenodd" clip-rule="evenodd" d="M70.5 100.7C70.8 100.2 70.9 99.5 71.1 99C70.6 98.4 70 97.9 69.5 97.3C69 96.8 68.2 96.3 68.1 95.5C68.3 95.4 68.3 95.5 68.5 95.5C68.6 96.2 69.6 96.7 70 97.3C70.1 96.6 71.1 96.5 71.9 96.4C72 96.1 72.2 95.9 72.1 95.6C71.5 95.6 70.8 95.4 70.1 95.3C69.3 95.1 68.5 94.7 67.5 95C66.7 95.2 65.9 95.7 65.5 96C66.1 96.7 66.9 97.3 67.5 98C67.9 97.8 68.2 97.6 68.7 97.5C68.8 97.8 68.3 98.2 68.1 98.5C68.9 99.3 69.7 100 70.5 100.7Z" fill="white"/>
<path fill-rule="evenodd" clip-rule="evenodd" d="M55.8 102.8C56.2 101.8 56.5 100.8 56.8 99.7C54.5 99.5 52.4 99.2 50.8 98.3C51.2 98.2 51.7 98.4 52.2 98.5C53.6 98.9 55.3 99.2 57 99.3C57.2 99.1 57.2 98.8 57.3 98.4C54.3 98 51.5 97.2 48.4 97C48.4 97.3 48.9 97.4 49.2 97.6C51.3 99.2 53.7 101.1 55.8 102.8Z" fill="white"/>
<path fill-rule="evenodd" clip-rule="evenodd" d="M37.3 105.3C37 104.4 36.5 103.3 35.8 102.6C35.8 103.5 35.4 104.1 34.8 104.6C35.6 104.9 36.5 105 37.3 105.3Z" fill="white"/>
<path fill-rule="evenodd" clip-rule="evenodd" d="M50.4 101.4C50.6 102.1 50.3 103 51 103.1C51.2 102.6 50.8 101.2 50.4 101.4Z" fill="white"/>
<path fill-rule="evenodd" clip-rule="evenodd" d="M72.2 99.5C72.5 98.8 72.7 98 73 97.3C72.9 97.1 72.5 97.2 72.3 97.2C72.1 97.8 71.9 98.4 71.7 99C71.8 99.2 72.1 99.3 72.2 99.5Z" fill="white"/>
<path fill-rule="evenodd" clip-rule="evenodd" d="M49.9 102.6C49.9 102 49.8 100.6 49.3 100.7C49.4 101.3 49.5 101.9 49.6 102.5C49.7 102.4 49.8 102.5 49.9 102.6Z" fill="white"/>
<path fill-rule="evenodd" clip-rule="evenodd" d="M60.7 100.9C60.9 100.7 61 100.3 61.1 99.9C60.7 100 60.3 99.8 60 99.9C59.9 100.4 60.5 100.6 60.7 100.9Z" fill="white"/>
<path fill-rule="evenodd" clip-rule="evenodd" d="M48.6 102.3C48.7 102.2 48.9 102.2 49.1 102.2C49 101.2 48.8 99.8 48.1 99.8C48.2 100.6 48.5 101.4 48.6 102.3Z" fill="white"/>
<path fill-rule="evenodd" clip-rule="evenodd" d="M71.2 98.5C71.5 98.2 71.6 97.7 71.7 97.2C71.1 97.2 70.8 97.5 70.2 97.5C70.5 97.9 70.9 98.1 71.2 98.5Z" fill="white"/>
<path fill-rule="evenodd" clip-rule="evenodd" d="M65.3 99.1C64.8 98.6 64.3 98 63.8 97.5C63.3 97.6 62.9 97.8 62.4 98C62.8 98.5 63.3 98.8 63.7 99.4C64.2 99.3 64.6 99.1 65.3 99.1Z" fill="white"/>
<path fill-rule="evenodd" clip-rule="evenodd" d="M67.3 98.2C66.8 97.5 66 97 65.6 96.2C65.2 96.6 64.7 97 64.1 97.3C64.6 97.9 65.3 98.4 65.8 99C66.3 98.8 66.8 98.5 67.3 98.2Z" fill="white"/>
<path fill-rule="evenodd" clip-rule="evenodd" d="M63.2 99.3C62.8 99 62.5 98.5 62.2 98.2C62.1 98.6 61.9 98.9 61.9 99.4C62.3 99.3 62.7 99.4 63.2 99.3Z" fill="white"/>
<path fill-rule="evenodd" clip-rule="evenodd" d="M60.7 99.4C60.8 99.4 60.7 99.1 60.8 99.1C61 99.1 61.1 99.2 61.2 99.4C61.5 99.1 61.4 98.6 61.6 98.3C61.4 98.3 60.9 98.5 60.5 98.5C60.3 98.7 60.4 99.1 60.2 99.4C60.2 99.5 60.6 99.3 60.7 99.4Z" fill="white"/>
<path fill-rule="evenodd" clip-rule="evenodd" d="M59.7 99.3C59.8 99 59.9 98.8 59.9 98.5C59.6 98.5 59.3 98.6 59 98.6C58.9 98.8 58.7 99 58.9 99.2C59.2 99.4 59.4 99.4 59.7 99.3Z" fill="white"/>
<path fill-rule="evenodd" clip-rule="evenodd" d="M74.6 97C74.8 96.8 74.9 96.4 75 96.1C74.2 96.1 73.5 95.8 72.7 95.8C72.7 96.1 72.6 96.2 72.6 96.5C73 96.4 73.3 96.7 73.5 96.4C73.7 96.7 74.2 96.8 74.6 97Z" fill="white"/>
<path fill-rule="evenodd" clip-rule="evenodd" d="M58.4 99.1C58.3 98.8 58.1 98.7 57.9 98.5C57.7 98.7 57.6 99 57.6 99.3C57.9 99.2 58.3 99.5 58.4 99.1Z" fill="white"/>
<path fill-rule="evenodd" clip-rule="evenodd" d="M44.6 100.2C44.6 100.2 44.6 100.1 44.6 100.2C44.5 99.7 44.3 99.2 44.1 98.8C43.9 98.4 43.7 97.9 43.2 97.9C43.7 98.6 43.7 99.9 44.6 100.2Z" fill="white"/>
<path fill-rule="evenodd" clip-rule="evenodd" d="M43.2 99.6C43.3 99.1 42.6 98.4 42.5 97.8C42.3 97.8 42.1 97.8 42 97.7C42.1 98.2 42.6 98.9 42.8 99.5C42.9 99.5 43.1 99.5 43.2 99.6Z" fill="white"/>
<path fill-rule="evenodd" clip-rule="evenodd" d="M42.1 99.3C42.1 98.8 41.5 98.2 41.5 97.5C40.9 97.3 40.2 97.2 39.6 97.1C40.1 97.7 40.2 98.8 41.1 99C40.9 98.5 40.7 98 40.4 97.5C41.3 97.2 41.4 98.6 41.8 99.2C41.8 99.2 42 99.3 42.1 99.3Z" fill="white"/>
<path fill-rule="evenodd" clip-rule="evenodd" d="M24 101.7C23 99.8 21.5 97.9 20.3 96C20.2 96.3 20 96.5 20 96.9C20.4 97.1 20.8 97.2 21 97.6C21.1 97.8 20.8 97.7 20.7 97.8C21.8 99.1 22.7 100.6 24 101.7Z" fill="white"/>
<path fill-rule="evenodd" clip-rule="evenodd" d="M38.5 97C38.9 97.6 39 98.5 39.6 98.8C39.7 98.8 39.7 98.8 39.7 98.7C39.5 98.2 39.1 97.7 38.8 97.3C38.8 97.2 38.9 96.8 38.5 97Z" fill="white"/>
<path fill-rule="evenodd" clip-rule="evenodd" d="M34.4 99.2C34.8 97.8 33.3 97.2 32.6 96.6C32.6 96.8 32.7 97 32.7 97.2C33.7 97.6 33.7 98.5 34.4 99.2Z" fill="white"/>
<path fill-rule="evenodd" clip-rule="evenodd" d="M37.6 96.8C38 97.3 38 98.3 38.6 98.6C38.7 98.6 38.7 98.6 38.7 98.5C38.4 97.9 38.2 97 37.6 96.8Z" fill="white"/>
<path fill-rule="evenodd" clip-rule="evenodd" d="M28.9 99.9C28.6 99.4 28 99.5 27.5 99.2C27.5 99.8 28.1 100.2 28.9 99.9Z" fill="white"/>
<path fill-rule="evenodd" clip-rule="evenodd" d="M43.1 97.4C42.8 96.6 42.2 95.5 41 95.6C41.6 96.4 42.1 97.2 43.1 97.4Z" fill="white"/>
<path fill-rule="evenodd" clip-rule="evenodd" d="M36.9 98.3C37 98.3 37 98.3 37.1 98.3C36.9 97.7 36.6 97.2 36.4 96.7C36.2 97.3 36.9 97.9 36.9 98.3Z" fill="white"/>
<path fill-rule="evenodd" clip-rule="evenodd" d="M20.8 100.6C20.9 100.2 20.3 99.7 20.1 99.3C16.1 97.4 11.2 96.9 5.7 96.8C4.9 96.8 4.1 97 3.2 97.1C2.7 97.3 2.6 97.9 2.8 98.6C4 98.6 5.1 98.2 6.2 98C8.9 97.6 11.4 97.6 13.8 97.9C15 98 16.2 98.7 17.3 99.1C18.7 99.5 19.8 99.9 20.8 100.6Z" fill="white"/>
<path fill-rule="evenodd" clip-rule="evenodd" d="M32.3 98.1C32.6 97.9 32.1 97.6 32.2 97.3C29.4 96.1 26.6 94.8 23.8 93.6C23.8 94.1 23.9 94.5 24.3 94.7C24.8 94.4 25.8 94.5 25.9 95.3C26.5 95.6 27.1 96.1 27.8 96.2C28.1 96.2 28.4 96.1 28.6 96.1C29.3 96.1 29.5 96.5 30.1 96.8C30.3 96.9 30.5 96.8 30.6 96.9C31.2 97.2 31.5 98 32.3 98.1Z" fill="white"/>
<path fill-rule="evenodd" clip-rule="evenodd" d="M41.1 96.8C40.8 96.2 40.3 95.3 39.4 95.4C39.7 95.7 39.9 96.2 40.2 96.6C40.5 96.7 40.9 96.7 41.1 96.8Z" fill="white"/>
<path fill-rule="evenodd" clip-rule="evenodd" d="M27.7 98.7C27.6 98.6 27.5 98.5 27.4 98.5C27.3 98.7 27.5 98.7 27.7 98.7Z" fill="white"/>
<path fill-rule="evenodd" clip-rule="evenodd" d="M34.3 97.5C34.4 97.2 34.2 96.6 34.2 96.1C33.6 95.9 33 95.3 32.5 94.8C32.4 96.3 33.8 96.6 34.3 97.5Z" fill="white"/>
<path fill-rule="evenodd" clip-rule="evenodd" d="M39.4 96.5C39.5 96.2 38.8 95.6 38.5 95.2C38.3 95.3 38.3 95.1 38.1 95.2C38.4 95.8 38.7 96.4 39.4 96.5Z" fill="white"/>
<path fill-rule="evenodd" clip-rule="evenodd" d="M36.7 95C36.9 95.3 37.1 95.7 37.4 96C37.6 96 37.8 96 37.9 96.1C37.9 95.9 37.5 94.9 36.7 95Z" fill="white"/>
<path fill-rule="evenodd" clip-rule="evenodd" d="M26.8 96.5C26.6 96.3 26.2 96.3 26 96.1C25.7 96.4 25.5 96.7 24.8 96.6C24.4 96.4 24.2 95.9 24.2 95.2C23.9 95.1 23.5 95 23.3 94.8C22.7 95.4 21.7 95.1 21.7 94C21.2 93.8 20.8 93.5 20.2 93.3C20.9 94.2 20.9 95.2 21.6 95.9C22 96.4 23 96.6 23.6 96.9C24.3 97.2 25 97.6 25.6 97.9C25.9 97.3 26.1 96.7 26.8 96.5Z" fill="white"/>
<path fill-rule="evenodd" clip-rule="evenodd" d="M32.1 96.6C32 94.8 30.6 94.9 29.6 94.4C29.7 94.9 29.3 95 29.1 95.4C30.1 95.8 31 96.2 31.9 96.7C31.9 96.7 31.9 96.6 32.1 96.6Z" fill="white"/>
<path fill-rule="evenodd" clip-rule="evenodd" d="M36.6 95.9C36.5 95.7 36.4 95.6 36.3 95.4C36.2 95.4 36.3 95.7 36.3 95.8C36.5 95.8 36.5 96 36.6 95.9Z" fill="white"/>
<path fill-rule="evenodd" clip-rule="evenodd" d="M34.1 95.8C34.3 93.9 32.7 93.8 32 92.8C32 94.5 33.5 94.6 34.1 95.8Z" fill="white"/>
<path fill-rule="evenodd" clip-rule="evenodd" d="M31.6 94.7C31.6 94.3 31.4 93.7 31.2 93.4C30.7 93.2 30.3 93 29.8 92.8C29.1 93.3 28.4 92.8 28.2 92C26.4 91.2 24.6 90.3 22.9 89.4C22.7 89.6 22.9 90.1 22.9 90.5C23.3 90.7 23.8 91 24.2 91.1C24.2 91 24.2 90.8 24.3 90.8C25.2 91 26.3 90.7 26.4 92.2C26.9 92.4 27.4 92.8 27.9 92.7C29 93.7 30.5 94 31.6 94.7Z" fill="white"/>
<path fill-rule="evenodd" clip-rule="evenodd" d="M28 94.9C28.5 93.9 27.4 93.3 26.7 93C26.5 93.3 26.4 93.7 26 93.9C26.6 94.3 27.4 94.5 28 94.9Z" fill="white"/>
<path fill-rule="evenodd" clip-rule="evenodd" d="M19.6 96C19.7 95.9 19.7 95.8 19.8 95.7C19.7 95.4 19.4 95.3 19.1 95.2C19.2 95.5 19.4 95.8 19.6 96Z" fill="white"/>
<path fill-rule="evenodd" clip-rule="evenodd" d="M33.6 93.5C33.5 92.3 32.3 91.9 31.6 91.2C32 92.2 32.8 92.7 33.6 93.5Z" fill="white"/>
<path fill-rule="evenodd" clip-rule="evenodd" d="M16.3 95.7C15.7 94.9 15 94.1 14.4 93.3C14.2 93.4 14.2 93.2 14 93.3C14.6 94.1 15.2 94.8 15.8 95.6C16 95.6 16.1 95.8 16.3 95.7Z" fill="white"/>
<path fill-rule="evenodd" clip-rule="evenodd" d="M19.6 95C19.6 94.6 19.2 94.2 19 93.8C18.7 93.8 18.7 94.1 18.6 94.2C18.8 94.7 19.3 94.8 19.6 95Z" fill="white"/>
<path fill-rule="evenodd" clip-rule="evenodd" d="M31.1 93.3C31.2 92.5 30.7 91.1 29.8 91C29.7 91.2 29.8 91.7 29.6 91.7C29.7 92.8 30.7 92.7 31.1 93.3Z" fill="white"/>
<path fill-rule="evenodd" clip-rule="evenodd" d="M14.9 95.5C14.6 94.8 13.7 94.1 13.2 93.4C13 93.5 12.9 93.3 12.7 93.4C13.5 94 13.9 95.2 14.9 95.5Z" fill="white"/>
<path fill-rule="evenodd" clip-rule="evenodd" d="M13.4 95.1C12.9 94.5 12.4 94 11.9 93.4C11.7 93.4 11.5 93.4 11.2 93.4C12 93.9 12.2 95.2 13.4 95.1Z" fill="white"/>
<path fill-rule="evenodd" clip-rule="evenodd" d="M1.8 96.6C2.6 95.3 5.3 95.4 7.2 94.9C7 94.4 6.6 94.2 6.3 93.7C4.2 94.1 0.700002 93.9 1.8 96.6Z" fill="white"/>
<path fill-rule="evenodd" clip-rule="evenodd" d="M24.3 91.8C23.6 91.6 23 91 22.3 90.8C22.1 90.8 21.9 90.9 21.7 90.8C21.2 90.7 21.2 90.3 20.8 90C20 89.3 18.6 89.2 17.8 88.5C17.9 89.1 18.5 89.7 18.7 90.3C19.6 90.8 20.6 91.1 21.4 91.7C21.6 91.7 21.5 91.5 21.7 91.5C22.6 92 23.4 92.6 24.4 93C24.6 92.9 24.3 92.2 24.3 91.8Z" fill="white"/>
<path fill-rule="evenodd" clip-rule="evenodd" d="M11.7 94.9C11.1 94.4 10.9 93.5 9.9 93.5C10.5 93.9 10.7 95 11.7 94.9Z" fill="white"/>
<path fill-rule="evenodd" clip-rule="evenodd" d="M21.6 93.4C21.8 93.2 21.8 92.8 21.9 92.6C21 92.1 20 91.7 19.2 91.2C19.2 91.6 19.7 92 19.8 92.6C20.4 92.8 21 93.1 21.6 93.4Z" fill="white"/>
<path fill-rule="evenodd" clip-rule="evenodd" d="M33.1 91.5C32.7 90.7 31.8 90.2 31.3 89.8C31.7 90.7 32.6 91.2 33.1 91.5Z" fill="white"/>
<path fill-rule="evenodd" clip-rule="evenodd" d="M18.2 93.7C18.3 93.6 18.5 93.5 18.7 93.4C18.4 92.7 17.9 92.1 17.3 91.8C17.3 91.6 17.6 91.6 17.7 91.7C17.4 91.1 17.2 90.3 16.6 90C16.5 90.7 17.3 90.9 17 91.6C17.5 92.3 17.8 93 18.2 93.7Z" fill="white"/>
<path fill-rule="evenodd" clip-rule="evenodd" d="M10.4 94.8C9.8 94.3 9.6 93.3 8.5 93.6C8.9 94.2 9.2 95.1 10.4 94.8Z" fill="white"/>
<path fill-rule="evenodd" clip-rule="evenodd" d="M8.6 94.8C8.6 94.5 7.9 94 7.6 93.6C7.4 93.6 7.1 93.7 6.9 93.7C7.2 94.1 7.5 94.5 7.8 94.9C8.1 94.8 8.4 94.8 8.6 94.8Z" fill="white"/>
<path fill-rule="evenodd" clip-rule="evenodd" d="M28.2 91.5C28.4 91 29.3 90.8 29.6 91.1C29.3 90.6 28.7 90.5 28.2 90.2C27.8 90.4 27.6 90.8 27 90.8C27.3 91.1 27.8 91.2 28.2 91.5Z" fill="white"/>
<path fill-rule="evenodd" clip-rule="evenodd" d="M23.4 64.4C24.5 73 27.2 81 29.4 88.8C29.7 89.9 29.7 90.6 30.6 90.8C30.3 89.5 30 87.5 29.4 86.4C29.6 85.4 29 84 28.7 82.7C28.4 81.7 28.1 80.7 27.8 79.8C27.2 77.8 26.7 75.8 26 74.1C25.8 72.5 25.3 70.9 24.8 69.3C24.3 67.8 23.8 66.1 23.4 64.4Z" fill="white"/>
<path fill-rule="evenodd" clip-rule="evenodd" d="M32.7 90.1C32.7 89.1 31.5 88.9 31.1 88.2C31.2 89.2 32.2 89.4 32.7 90.1Z" fill="white"/>
<path fill-rule="evenodd" clip-rule="evenodd" d="M11.7 69.5C11.5 69 11.4 68.5 11.2 68C12.4 68.7 13.5 69.4 14.5 70.3C15.4 70.6 16.1 71.2 16.8 71.7C19.1 73.1 21.4 74.6 24.1 75.5C21.3 73.6 18.2 72.1 15.4 70.2C15.5 69.9 15.6 69.5 15.4 69.3C15.3 69 15 69.2 14.7 69C14.4 68.9 14.5 68.4 14.2 68.6C13.9 68.8 14.3 69.1 14 69.3C13.4 69.1 13 68.7 12.4 68.3C12 68 11.1 67.7 10.8 67.3C10.6 67 10.6 66.5 10.4 66.1C10 64.8 9.7 63.7 9.3 62.5C14 65.2 18.5 68.1 23.4 70.5C24.8 77.7 27.1 83.6 29 90.1C28.8 90.1 28.3 89.9 28.1 89.6C28.5 88.7 28 87.3 27.1 87.2C26.2 87.1 25.5 87.6 25.3 88.4C24.9 88.2 24.5 88 24.1 87.8C24 87.2 23.8 86.8 23.2 86.8C23.1 87.2 23.6 87.2 23.4 87.5C21.5 86.5 19.5 85.6 17.6 84.6C17.4 84 17.1 83.6 16.9 83C17.1 82.4 16.8 81.2 16.1 81.2C14.4 77.9 13.1 74 11.7 70.3C11.9 70.2 12.1 70.4 12.3 70.5C15.7 72.7 19.3 75 23 76.7C19.6 74 15.6 71.9 11.7 69.5ZM26.4 86.5C26.6 86 26.2 85.3 25.8 85.1C24.6 85.4 25.2 87.7 26.4 86.5ZM21.5 85.3C22.2 85.5 22.3 83.7 21.5 83.8C21 83.9 21 85.1 21.5 85.3ZM24.3 83.2C24.4 82.7 24.2 82 24 81.6C23.8 81.2 23.3 80.7 22.9 80.6C23.5 81.3 23.1 83.6 24.3 83.2ZM19.6 80.6C19.6 80.5 19.7 80.4 19.8 80.4C19.7 79.9 19.6 79.3 19.3 79C18.6 79 18.9 80.2 19.1 80.6C19.2 80.6 19.4 80.7 19.6 80.6ZM21.2 79.1C21.1 79.4 21 79.7 21.1 80.1C22 80.9 22.4 78.8 21.2 79.1ZM19.9 69.3C19.7 69.3 19.7 69.5 19.6 69.6C19.4 69.6 19.2 69.4 18.9 69.5C18.5 69.9 18.6 70.7 18.9 71C19.6 71.9 21.1 70.9 20.5 69.6C20.4 69.4 20.3 69.3 19.9 69.3Z" fill="white"/>
<path fill-rule="evenodd" clip-rule="evenodd" d="M24.6 88.5C24.3 88.6 24.5 88.9 24.2 88.9C23.8 88.9 23.7 88.5 23.7 88.1C21.9 87.2 20.1 86.4 18.4 85.4C18.5 85.9 18.9 86.4 19.1 87C21.5 88.1 23.9 89.3 26.2 90.5C26.3 89.6 25.4 88.8 24.6 88.5Z" fill="white"/>
<path fill-rule="evenodd" clip-rule="evenodd" d="M32.3 88.6C32.4 87.1 31.1 86.8 30.5 85.9C30.4 87.4 31.6 87.8 32.3 88.6Z" fill="white"/>
<path fill-rule="evenodd" clip-rule="evenodd" d="M21.6 88.8C19.8 87.8 17.9 86.9 16 85.9C16.4 86.4 16.5 87.2 17 87.6C17.4 87.9 18.2 88.2 18.8 88.5C19.5 88.8 20.2 89.1 20.7 89.5C21.1 89.3 21.1 88.9 21.6 88.8Z" fill="white"/>
<path fill-rule="evenodd" clip-rule="evenodd" d="M16.4 89.2C16.4 89 16.3 88.6 16.1 88.6C16.2 88.8 16 88.9 16.1 89.1C16.1 89.1 16.2 89.2 16.4 89.2Z" fill="white"/>
<path fill-rule="evenodd" clip-rule="evenodd" d="M31.7 86.7C31.1 83.8 30 81.1 29.3 78.1C29.1 77.9 28.8 77.7 28.6 77.5C28.4 77.3 28.1 76.9 28 77.1C28.3 78.1 29 78.4 29.4 79.2C29 79 28.8 78.6 28.5 78.3C29 80.4 29.8 82.6 30.2 84.9C30.7 85.5 31.2 86 31.7 86.7Z" fill="white"/>
<path fill-rule="evenodd" clip-rule="evenodd" d="M15.4 88.4C15.5 88.2 15.5 87.8 15.6 87.6C15.4 87.6 15.3 87.4 15.1 87.4C15 87.8 15.3 88.1 15.4 88.4Z" fill="white"/>
<path fill-rule="evenodd" clip-rule="evenodd" d="M18.6 86.8C18.7 86.7 18 85.4 17.8 85.2C17.2 84.5 15.5 84.2 14.8 83.5C14.9 84 15.3 84.7 15.6 85.3C16.6 85.7 17.7 86.2 18.6 86.8Z" fill="white"/>
<path fill-rule="evenodd" clip-rule="evenodd" d="M14.7 86.5C14.8 86 14.8 85.7 14.5 85.2C14.4 85.6 14.2 85.9 14.3 86.4C14.5 86.4 14.5 86.6 14.7 86.5Z" fill="white"/>
<path fill-rule="evenodd" clip-rule="evenodd" d="M13.9 85.5C14.1 85.4 13.9 85.1 14.1 85C14 84.9 13.8 84.8 13.6 84.8C13.6 85.1 13.8 85.3 13.9 85.5Z" fill="white"/>
<path fill-rule="evenodd" clip-rule="evenodd" d="M14.1 84.6C14.4 84.4 13.9 84.1 13.9 83.8C13.8 83.9 13.7 84.1 13.7 84.3C13.7 84.5 14 84.4 14.1 84.6Z" fill="white"/>
<path fill-rule="evenodd" clip-rule="evenodd" d="M13.1 83.8C13.4 83.7 13.3 83.2 13.7 83.3C13.6 83 13.5 82.8 13.4 82.5C13 82.8 13.1 83.4 13.1 83.8Z" fill="white"/>
<path fill-rule="evenodd" clip-rule="evenodd" d="M12.5 82.6C12.7 82.5 12.8 82.2 12.6 82.1C12.7 82 12.8 82 13 82C12.8 81.6 12.6 81.2 12.4 80.7C11.8 81.1 12.3 82 12.5 82.6Z" fill="white"/>
<path fill-rule="evenodd" clip-rule="evenodd" d="M28.4 75.1C28.5 74 27.5 73.7 27 73.1C26.9 74.1 27.9 74.5 28.4 75.1Z" fill="white"/>
<path fill-rule="evenodd" clip-rule="evenodd" d="M27.9 73.1C28 71.9 27 71.4 26.4 70.7C26.3 72.1 27.3 72.5 27.9 73.1Z" fill="white"/>
<path fill-rule="evenodd" clip-rule="evenodd" d="M27.3 71C27.4 70 26.4 69.7 26 69.2C25.9 70.1 26.9 70.4 27.3 71Z" fill="white"/>
<path fill-rule="evenodd" clip-rule="evenodd" d="M23.6 70.4C23.6 69.7 23.3 68.9 23.2 68C21.2 67.2 19.5 65.9 17.6 64.9C17.8 65.3 17.9 66.1 17.4 66.2C19.5 67.7 21.6 68.9 23.6 70.4Z" fill="white"/>
<path fill-rule="evenodd" clip-rule="evenodd" d="M26.8 69.1C26.9 68 25.9 67.8 25.5 67.2C25.4 68.4 26.4 68.6 26.8 69.1Z" fill="white"/>
<path fill-rule="evenodd" clip-rule="evenodd" d="M26.5 67.4C26.6 66.2 25.6 66 25.1 65.3C25 66.6 26 66.9 26.5 67.4Z" fill="white"/>
<path fill-rule="evenodd" clip-rule="evenodd" d="M23 67.8C22.9 66.3 22.3 64.9 22.1 63.4C20.7 62.9 19.5 62.1 18.2 61.4C18.2 61.7 18.7 62.3 18.5 62.8C19.7 63.6 21.3 64.1 22.2 65.3C21.7 65.5 21.3 64.9 20.8 64.8C20.9 65.4 20.9 66 20.4 66.1C21.2 66.7 22.3 67 23 67.8Z" fill="white"/>
<path fill-rule="evenodd" clip-rule="evenodd" d="M7.6 68.5C7.7 68.1 7.4 67.3 7.2 66.9C7.2 66.9 7.1 66.5 7.1 66.7C7.1 67.2 7.5 68 7.6 68.5Z" fill="white"/>
<path fill-rule="evenodd" clip-rule="evenodd" d="M26.1 65.6999C26.3 64.3999 25.1 64 24.6 63.7C24.7 65 25.6 65.0999 26.1 65.6999Z" fill="white"/>
<path fill-rule="evenodd" clip-rule="evenodd" d="M18.9 65.2C18.9 64.6 19.2 64.3 19.5 63.9C19 63.7 18.6 63.4 18.2 63.2C17.5 63.5 17.1 62.9 16.9 62.5C15.4 61.8 14 60.9 12.5 60.1C12.2 60.3 12 60.6 11.7 60.8C14.1 62.2 16.6 63.6 18.9 65.2Z" fill="white"/>
<path fill-rule="evenodd" clip-rule="evenodd" d="M25.8 64C26 62.5 24.7 62.4 24.2 61.6C24 63 25.1 63.4 25.8 64Z" fill="white"/>
<path fill-rule="evenodd" clip-rule="evenodd" d="M15.4 65.2C15.6 65 15.5 64.6 15.7 64.5C15.9 64.5 16 64.4 16.3 64.3C16.4 64 16 64 15.8 63.9C14.3 63 12.6 61.8 11 61C9.8 61.2 9.5 60.2 8.8 59.6C8.8 60.2 9.1 61.1 9.3 61.7C11.4 62.8 13.4 64 15.4 65.2Z" fill="white"/>
<path fill-rule="evenodd" clip-rule="evenodd" d="M22 62.9C22.1 61.9 20.9 61.5 20.2 61C16.1 58.5 11.7 55.8 7.6 53.5C7.7 53.8 7.7 54.2 7.8 54.5C8.3 54.9 8.8 55.1 9.3 55.4C9.8 55.7 10.3 56.2 10.8 56.3C11.1 56.4 11.4 56.3 11.7 56.4C12.2 56.6 12.3 57 12.7 57.3C13 57.5 13.5 57.7 13.9 57.9C16.3 59.6 19.5 61.4 22 62.9Z" fill="white"/>
<path fill-rule="evenodd" clip-rule="evenodd" d="M25.4 62C25.5 60.6 24.3 60.4 23.6 59.8C23.8 61.2 24.8 61.3 25.4 62Z" fill="white"/>
<path fill-rule="evenodd" clip-rule="evenodd" d="M19 44.7C19.6 50.3 20.7 56.2 21.7 61.4C21.6 61.4 21.5 61.3 21.5 61.2C19.5 59.8 17 58.4 14.5 56.9C12.8 55.9 10.9 54.7999 9.2 53.7999C8.6 53.4 7.7 53 7.5 52.7C7 51.8 7 49.8 6.8 48.5C6.1 44 5.6 40 5.5 36.2C9.9 39 14.4 42.1 19 44.7ZM15.7 56.5C15.8 57.1 15.9 57.5 16.6 57.2999C17.1 56.6999 16.1 55.7 15.7 56.5ZM12 50.5C11.8 50.4 11.4 50.4999 11.2 50.5999C11 51.0999 10.9 51.5 11 52C11.3 52.7 12.2 52.6 12.4 52C12.7 51.5 12.3 50.9 12 50.5ZM15.8 50.2C15.8 50.3 15.7 50.4 15.7 50.5C15.8 51.4 17.1 51.6 17.1 50.7C16.9 50.2 16.3 50.1 15.8 50.2ZM13.7 49.2999C14.2 49.4 14.8 49.1 14.7 48.5C14.5 47 12.2 48.9 13.7 49.2999ZM10.9 47C9.3 46.2 9.3 49.1 10.3 49.2C11.9 49.4 11.6 47.8 10.9 47ZM8 39.4C7.9 38.6 7.7 38 7.1 38C5.3 38 7.1 41.3 8 39.4Z" fill="white"/>
<path fill-rule="evenodd" clip-rule="evenodd" d="M17.8 61.0999C16.1 60.0999 14.5 59.1 12.7 58.2C12.8 58.6 12.9 59.1 12.8 59.4C14.1 60.1 15.5 60.7999 16.8 61.5999C17.1 61.4999 17.2 61.1999 17.8 61.0999Z" fill="white"/>
<path fill-rule="evenodd" clip-rule="evenodd" d="M25 60.1C24.7 58.2 24 53.7 23.5 51.4C23.4 50.9 23.4 50.4 23.3 50C23.1 49.5 22.2 49.1 21.8 48.8C22.1 52.2 22.8 55.7 23.4 58.9C23.9 59.4 24.6 59.6 25 60.1Z" fill="white"/>
<path fill-rule="evenodd" clip-rule="evenodd" d="M8.1 61C7.9 60.4 8 59.6 7.7 59C7.4 58.5 6.7 58.4 6.4 58.1C6.6 58.8 6.7 59.5 6.8 60.2C7.2 60.5 7.7 60.7 8.1 61Z" fill="white"/>
<path fill-rule="evenodd" clip-rule="evenodd" d="M10.5 59.4C10.6 59.4 10.7 59.3999 10.9 59.2999C10.9 58.8999 10.5 58.9 10.3 58.7C10.1 58.9 10.4 59.2 10.5 59.4Z" fill="white"/>
<path fill-rule="evenodd" clip-rule="evenodd" d="M11.4 58.7C11.7 58.3 11.3 57.2 10.7 57.6C11 58 11.2 58.4 11.4 58.7Z" fill="white"/>
<path fill-rule="evenodd" clip-rule="evenodd" d="M8.7 59C8.8 58.7 8.6 58.2 8.8 58C8.8 57.8 8.6 57.8 8.4 57.7C8.3 58 8.6 58.6 8.7 59Z" fill="white"/>
<path fill-rule="evenodd" clip-rule="evenodd" d="M5.4 59.1C5.5 59.2 5.4 58.6 5.4 58.5C5.2 58.4 5.4 59 5.4 59.1Z" fill="white"/>
<path fill-rule="evenodd" clip-rule="evenodd" d="M7.4 58.2C7.6 58 7.3 57.3 7.2 56.9C6.8 56.7 6.4 56.5 6.1 56.2C6 56.6 6.3 57.0999 6.3 57.5999C6.7 57.7999 7 58 7.4 58.2Z" fill="white"/>
<path fill-rule="evenodd" clip-rule="evenodd" d="M5.2 58.2C5.3 57.6 4.9 56.2 4.7 55.4C4.6 56.3 5.1 57.2 5.2 58.2Z" fill="white"/>
<path fill-rule="evenodd" clip-rule="evenodd" d="M9.9 56.6C9.3 56.1 8.6 55.7 7.8 55.4C7.9 55.9 8 56.4 8.1 56.9C8.3 57.1 8.6 57.2 8.9 57.4C9.4 57.2 9.4 56.8 9.9 56.6Z" fill="white"/>
<path fill-rule="evenodd" clip-rule="evenodd" d="M7 56.3C7 55.8 7 55.2 6.8 54.8C6.6 54.4 6 54.3 5.7 54C5.8 54.5 5.7 55.1 5.9 55.5C6.1 56 6.7 56 7 56.3Z" fill="white"/>
<path fill-rule="evenodd" clip-rule="evenodd" d="M4.6 55C4.5 53.7 4.3 52.1 3.9 51C4 52.3 4.3 53.8 4.6 55Z" fill="white"/>
<path fill-rule="evenodd" clip-rule="evenodd" d="M6.5 54C6.7 52.9 5.9 52.2 5.4 52.2C5.3 53.4 5.9 53.7 6.5 54Z" fill="white"/>
<path fill-rule="evenodd" clip-rule="evenodd" d="M6.2 52C5.5 48.3 4.7 41.6 4.6 37.4C4.5 36 4.7 34.9 3.6 34.8C3.8 39.1 4.2 44.2 5 49.2C5.2 50.8 5.1 51.7 6.2 52Z" fill="white"/>
<path fill-rule="evenodd" clip-rule="evenodd" d="M23.2 49.2C23.2 48.9 23.1 48.6 23 48.4C22.4 48.3 22 47.6 21.6 47.6C21.8 48.5 22.6 48.7 23.2 49.2Z" fill="white"/>
<path fill-rule="evenodd" clip-rule="evenodd" d="M23 47.9C23 46.7 21.9 46.6 21.4 46.2C21.6 47.3 22.5 47.3 23 47.9Z" fill="white"/>
<path fill-rule="evenodd" clip-rule="evenodd" d="M3.9 50.6C3.9 49 3.6 47.3 3.4 45.8C3.3 45.7 3 45.8 3 45.3C3.3 46.9 3.5 49.1 3.9 50.6Z" fill="white"/>
<path fill-rule="evenodd" clip-rule="evenodd" d="M22.8 46.4C22.7 45.8 21.7 45.4 21.4 45.1C21.6 45.8 22.3 45.9 22.8 46.4Z" fill="white"/>
<path fill-rule="evenodd" clip-rule="evenodd" d="M22.5 45.3C22.6 45.3 22.6 45.2 22.6 45.2C22.3 44.4 21.5 44.2 21.1 43.6C21 44.6 22.1 44.7 22.5 45.3Z" fill="white"/>
<path fill-rule="evenodd" clip-rule="evenodd" d="M22.3 43.7C22.5 42.7 21.2 42.5 20.8 41.8C20.7 43 21.9 43.1 22.3 43.7Z" fill="white"/>
<path fill-rule="evenodd" clip-rule="evenodd" d="M22.1 42.2C22.4 41.2 21 41.1 20.6 40.4C20.5 41.4 21.7 41.6 22.1 42.2Z" fill="white"/>
<path fill-rule="evenodd" clip-rule="evenodd" d="M18.7 41.6C19.1 40.1 17.9 39.9 17 39.3C13.2 37 9 34.1 5.4 32C5.5 32.4 5.3 32.9 5.4 33.3C5.5 33.7 6.3 33.9 6.8 34.2C7.5 34.7 8 35.1 8.7 35.2C8.9 35.3 9 35.5 9.1 35.7C12.4 37.5 15.5 39.6 18.7 41.6Z" fill="white"/>
<path fill-rule="evenodd" clip-rule="evenodd" d="M20.7 39.1C20.5 39.2 20.7 39.6 20.6 39.8C21.1 40 21.6 40.4 22 40.8C22.4 39.8 21 39.7 20.7 39.1Z" fill="white"/>
<path fill-rule="evenodd" clip-rule="evenodd" d="M21.9 39.3C22.1 39.1 22 38.6 21.9 38.2C21.4 38.1 21 37.8 20.7 37.5C20.3 38.5 21.5 38.7 21.9 39.3Z" fill="white"/>
<path fill-rule="evenodd" clip-rule="evenodd" d="M18.7 39.6C18.7 39 18.1 38.7 17.7 38.5C16.5 37.7 15.3 37 14.1 36.2C13.5 36.4 13 36.2 13 35.5C12.3 35.1 11.7 34.7 11.1 34.2C10.5 34.6 9.7 34.1 9.9 33.4C8.4 32.4 6.9 31.4 5.4 30.4C5 31.6 6 31.8 7 32.4C8.6 33.4 10.3 34.5 11.8 35.5C14.5 37.2 16.4 38.3 18.4 39.7C18.5 39.7 18.7 39.6 18.7 39.6Z" fill="white"/>
<path fill-rule="evenodd" clip-rule="evenodd" d="M18.5 38.3C18.9 37.1 17.6 36.7 16.9 36.2C13.2 33.6 9.2 30.7 5.5 28.4C5.6 28.9 5.5 29.3 5.5 29.8C7.1 30.9 8.8 31.9 10.4 33C10.7 33 10.7 32.8 10.9 32.7C11.2 32.9 11.5 33.2 11.6 33.7C12.3 33.9 12.7 34.7 13.5 34.9C13.7 35 13.9 34.8 14.1 34.9C14.4 35.1 14.3 35.3 14.6 35.6C15 36 15.9 36.4 16.6 36.9C17.2 37.4 17.9 37.9 18.5 38.3Z" fill="white"/>
<path fill-rule="evenodd" clip-rule="evenodd" d="M21.8 37.5C21.8 36.9 20.9 36.6 20.6 36.4C20.7 37 21.5 37.2 21.8 37.5Z" fill="white"/>
<path fill-rule="evenodd" clip-rule="evenodd" d="M21.8 36.5C22.1 35.7 21 35.6 20.7 35.1C20.5 35.8 21.5 36.1 21.8 36.5Z" fill="white"/>
<path fill-rule="evenodd" clip-rule="evenodd" d="M13 26.4C10.4 25.3 8.3 23.3 6 22C5.9 23.3 5.6 24.7 5.6 26.3C5.6 26.7 5.5 27.5 5.6 27.8C5.7 28.1 6.8 28.7 7.2 28.9C10 30.7 12.8 32.5 15.4 34.4C16.5 35.2 17.5 36 18.5 36.6C18.6 35.5 17.7 35.3 17 34.8C13.7 32.4 10.2 29.9 7.1 27.4C8.1 27.9 9 28.5 10 29.2C12.8 31.1 15.6 33.3 18.4 35.2C18.4 34.6 18.4 34 18.3 33.3C18.3 32.7 18.4 31.9 18.2 31.4C18 31 17.1 30.7 16.7 30.5C16.2 30.1 15.7 29.9 15.5 29.4C16 29.4 16.4 29.8 16.9 30.1C17.4 30.4 17.8 30.7 18.2 31.1C18.3 30.8 18.2 30.4 18.2 30C17.3 29.2 16.2 28.9 15.5 27.9C16 27.9 16.4 28.2 16.8 28.5C17.2 28.8 17.6 29.1 18.1 29.4C18.4 27.6 16.6 27.8 16.1 26.7C16.8 26.9 17.4 27.7 18 27.9C17.9 26.7 17.9 25.4 17.8 24.2C15.1 23.4 13 21.7 10.8 20.3C10.7 20.7 10.6 21 10.4 21.2C11.1 21.6 11.5 21.9 12.3 22.4C12.4 22.5 12.8 22.8 12.9 22.8C13.1 22.8 13.4 22.3 13.6 22.3C14.4 22.3 14 22.9 14.3 23.6C14.6 24.2 15.8 24.3 16 25C15.2 25.1 14.6 24.3 13.9 24.1C13.5 24 12.9 24.2 12.8 23.5C10.7 22.2 8.5 20.6 6.5 19.4C6.4 19.6 6.5 20 6.4 20.2C7.7 21.1 9 21.9 10.3 22.8C10.7 22.6 11.2 22.7 11.4 22.9C11.5 23.2 11.6 23.4 11.6 23.7C12.5 24.3 13.5 24.9 14.3 25.7C13.3 25.5 12.6 24.7 11.7 24.3C11.7 24.6 11.6 24.9 11.2 24.9C11.6 25.4 12.5 25.7 13 26.4Z" fill="white"/>
<path fill-rule="evenodd" clip-rule="evenodd" d="M21.8 35.3C22 34.5 21 34.3 20.7 33.9C20.6 34.8 21.4 34.8 21.8 35.3Z" fill="white"/>
<path fill-rule="evenodd" clip-rule="evenodd" d="M21.7 34.2C22.1 33.1 21.3 32.4 20.6 32C20.4 33.2 21.3 33.5 21.7 34.2Z" fill="white"/>
<path fill-rule="evenodd" clip-rule="evenodd" d="M21.8 32.2C22.1 31.4 21 31.2 20.8 30.6C20.5 31.4 21.4 31.7 21.8 32.2Z" fill="white"/>
<path fill-rule="evenodd" clip-rule="evenodd" d="M4.4 34.7C4.6 34.4 4.5 33.8 4.5 33.4C4.2 33.2 3.8 32.7 3.5 32.7C3.6 33.2 3.5 33.5999 3.6 34.0999C3.8 34.2999 4.1 34.4 4.4 34.7Z" fill="white"/>
<path fill-rule="evenodd" clip-rule="evenodd" d="M21.7 30.8C22 30 21.1 29.7 20.7 29.4C20.8 30.2 21.4 30.2 21.7 30.8Z" fill="white"/>
<path fill-rule="evenodd" clip-rule="evenodd" d="M2.5 33.4C2.5 33 2.8 32.1 2.4 31.9C2.5 32.4 2.3 33 2.5 33.4Z" fill="white"/>
<path fill-rule="evenodd" clip-rule="evenodd" d="M4.3 32.7C4.5 32 4.5 30.8 3.6 30.8C3.8 30.6 4.2 30.8 4.3 30.9C4.4 30.6 4.3 30.1 4.4 29.8C4.2 29.5 3.8 29.3 3.5 29.1C3.4 30 3.4 31 3.4 31.9C3.6 32.4 4.1 32.4 4.3 32.7Z" fill="white"/>
<path fill-rule="evenodd" clip-rule="evenodd" d="M21.6 29.3C21.9 28.7 21 28.3 20.7 28C20.7 28.8 21.4 28.9 21.6 29.3Z" fill="white"/>
<path fill-rule="evenodd" clip-rule="evenodd" d="M2.5 31.6C2.6 31.6 2.6 31.5 2.5 31.6C2.5 31.5 2.6 31.5 2.6 31.5C2.6 30.3 2.6 29 2.8 27.7C3 26.4 3 25.2 3.2 24C3.5 22.3 3.9 20.6 4.3 18.9C4.4 18.5 4.8 17.6 4 17.5C3.2 21.9 2 26.3 2.5 31.6Z" fill="white"/>
<path fill-rule="evenodd" clip-rule="evenodd" d="M21.6 28C22 27.3 21.1 27 20.8 26.5C20.4 27.3 21.4 27.5 21.6 28Z" fill="white"/>
<path fill-rule="evenodd" clip-rule="evenodd" d="M19.5 27.4C19.6 27.3 19.6 27.1 19.5 26.9C19.3 26.9 19.6 27.2 19.5 27.4Z" fill="white"/>
<path fill-rule="evenodd" clip-rule="evenodd" d="M4.4 29.2C4.7 28.3 4.5 27.1 3.7 27.1C3.6 28.1 3.5 29 4.4 29.2Z" fill="white"/>
<path fill-rule="evenodd" clip-rule="evenodd" d="M21.7 26.6C21.9 26 21.1 25.6 20.8 25.5C21 25.9 21.4 26.1 21.7 26.6Z" fill="white"/>
<path fill-rule="evenodd" clip-rule="evenodd" d="M19.5 26.1C19.7 26 19.6 25.5 19.5 25.3C19.3 25.4 19.5 25.8 19.5 26.1Z" fill="white"/>
<path fill-rule="evenodd" clip-rule="evenodd" d="M21.6 25.3C21.8 25.2 21.6 24.7 21.7 24.5C21.5 24.1 21.1 24.1 20.8 23.7C20.5 24.6 21.3 24.8 21.6 25.3Z" fill="white"/>
<path fill-rule="evenodd" clip-rule="evenodd" d="M4.5 27.1C4.8 25.2 4.9 23.2 5.3 21.3C5.3 21.1 5.1 21.2 5.1 21C5.1 20.8 5.3 21.1 5.4 20.9C5.4 20.5 5.8 20 5.4 19.7C5.7 19.6 5.7 19.1 5.8 18.7C5.6 18.5 5.3 18.1 5 18.2C4.5 20.9 3.6 23.3 3.6 26.4C3.9 26.8 4.2 26.9 4.5 27.1Z" fill="white"/>
<path fill-rule="evenodd" clip-rule="evenodd" d="M19.7 24.5C19.7 24.2 19.5 24.3 19.4 24C19.3 24.2 19.5 24.6 19.7 24.5Z" fill="white"/>
<path fill-rule="evenodd" clip-rule="evenodd" d="M21.7 23.7C21.8 23.4 21.8 23.1 21.7 22.7C21.4 22.9 21.2 22.3 20.8 22.3C20.8 23.1 21.5 23.2 21.7 23.7Z" fill="white"/>
<path fill-rule="evenodd" clip-rule="evenodd" d="M17.7 24C17.7 22.8 17.7 21.5 17.6 20.2C16.9 19.7 16.1 19.3 15.3 19C15.4 19.3 15.6 20.1 15.4 20.3C16.1 20.9 17 21 17.6 21.7C16.5 21.6 15.8 21.2 15 20.8C14.1 20.8 13.3 20.6 13.1 19.7C12.5 19.4 12 19.1 11.5 18.7C10.6 19.2 9.9 18.7 9.8 17.6C8.1 16.5 6.6 15.2 5 14C4.8 15.1 4.4 16 4.2 17.2C4.5 17.1 4.5 17.4 4.7 17.4C4.8 16.9 5.1 16.4 5 16C5.3 15.8 5.5 15.5 5.4 15C5.6 15.2 5.3 15.5 5.5 15.9C5.8 16.2 6 16.4 6.4 16.5C6.5 16.3 6.6 16 6.6 15.8C6.7 16 6.6 16.4 6.6 16.6C10 19.4 14 21.5 17.7 24Z" fill="white"/>
<path fill-rule="evenodd" clip-rule="evenodd" d="M19.6 23.4C19.9 23.1 19.6 22.4 19.3 22.3C19.1 22.6 19.3 23.2 19.6 23.4Z" fill="white"/>
<path fill-rule="evenodd" clip-rule="evenodd" d="M21.7 22.6C21.8 22.3 21.8 21.9 21.8 21.6C21.5 21.4 21.1 20.9 20.8 21C20.9 21.8 21.6 21.8 21.7 22.6Z" fill="white"/>
<path fill-rule="evenodd" clip-rule="evenodd" d="M9.6 23.9C9.6 23.5 9.6 23.1 9.8 22.8C8.6 22.1 7.5 21.1 6.3 20.4C6.3 20.8 6.2 21.1 6.2 21.4C7.2 22.4 8.4 23.1 9.6 23.9Z" fill="white"/>
<path fill-rule="evenodd" clip-rule="evenodd" d="M19.6 21.7C20 21.2 19.2 20.8 19 20.5C18.9 21.2 19.4 21.5 19.6 21.7Z" fill="white"/>
<path fill-rule="evenodd" clip-rule="evenodd" d="M21.7 20.9C21.8 20.7 21.7 20.3 21.7 19.9C21.4 19.8 21.2 19.5 20.9 19.3C20.6 20.1 21.5 20.3 21.7 20.9Z" fill="white"/>
<path fill-rule="evenodd" clip-rule="evenodd" d="M19.8 20.4C20.2 19.8 19.3 19.3 19 19.1C19.1 19.4 19 19.5 19 19.7C19.2 20 19.6 20.1 19.8 20.4Z" fill="white"/>
<path fill-rule="evenodd" clip-rule="evenodd" d="M21.7 19.1C21.9 18.4 21 18.1 20.8 18C20.8 18.6 21.4 18.7 21.7 19.1Z" fill="white"/>
<path fill-rule="evenodd" clip-rule="evenodd" d="M7.5 10.9C7.3 11.5 6.9 11.9 6.8 12.6C7 12.8 7.3 12.8 7.6 12.8C7.8 12.9 8 13 8 13.4C11.1 15.6 14.2 17.7 17.7 19.4C17.5 18.9 17.9 17.9 17.6 17.3C17.5 17.2 17.6 17.2 17.4 17.1C16.7 16.8 15.9 16.4 15 15.9C14.3 15.5 13.3 14.6 12.8 14.6C12.1 14.5 11.8 14.9 11.1 14.9C10.1 14.9 9.4 14 9.1 13.1C9 12.8 9.1 12.4 9 12.1C8.8 11.5 8.1 11.4 7.5 10.9Z" fill="white"/>
<path fill-rule="evenodd" clip-rule="evenodd" d="M19.9 19.1C20.3 18.3 19.3 18.1 19 17.5C18.6 18.3 19.6 18.6 19.9 19.1Z" fill="white"/>
<path fill-rule="evenodd" clip-rule="evenodd" d="M9 20.2C9.2 20 9.1 19.5 9.5 19.4C8.5 18.7 7.5 18 6.6 17.3C6.4 17.6 6.5 18.1 6.4 18.5C7.2 19.1 8.2 19.6 9 20.2Z" fill="white"/>
<path fill-rule="evenodd" clip-rule="evenodd" d="M13 19C13.1 18.6 13.3 18.2 14 18.2C12 16.9 9.8 15.6 7.9 14C7.9 14.6 7.2 14.9 6.8 14.3C6.8 13.8 7.1 13.2 6.6 13C6.2 13.2 6.2 13.7 6 14.1C7.2 15.3 8.7 16 9.9 17C10.8 16.1 11.9 16.9 11.8 18.2C12.2 18.6 12.7 18.7 13 19Z" fill="white"/>
<path fill-rule="evenodd" clip-rule="evenodd" d="M20.1 17.7C20.2 17.7 20.1 17.5 20.2 17.5C19.9 17 19.3 16.7 18.9 16.2C18.8 17 19.8 17.2 20.1 17.7Z" fill="white"/>
<path fill-rule="evenodd" clip-rule="evenodd" d="M17.5 17.1C17.6 16 17.4 14.8 17.2 13.6C16.1 13.3 15.1 12.4 14.2 12C14.5 13.2 14.1 13.8 13.5 14.3C14.8 15.3 16.3 15.9 17.5 17.1Z" fill="white"/>
<path fill-rule="evenodd" clip-rule="evenodd" d="M21.3 16.1C21.4 16 21.3 15.7 21.3 15.5C20.8 15.1 20.5 14.5 19.8 14.3C19.6 13.6 19 13.4 18.7 12.9C18.6 13.1 18.8 13.6 18.7 13.8C19.6 14.6 20.5 15.3 21.3 16.1Z" fill="white"/>
<path fill-rule="evenodd" clip-rule="evenodd" d="M6.2 17.1C6 16.8 5.7 16.5 5.3 16.4C5.3 16.8 5.2 17.2 5.1 17.6C5.2 17.9 5.6 17.9 5.7 18.1C6.2 17.9 6 17.4 6.2 17.1Z" fill="white"/>
<path fill-rule="evenodd" clip-rule="evenodd" d="M21.1 14.4C21.2 13.6 20.4 13.5 20.1 12.9C19.9 13.8 20.8 13.9 21.1 14.4Z" fill="white"/>
<path fill-rule="evenodd" clip-rule="evenodd" d="M19.6 13.2C19.7 12.5 19.2 11.9 18.8 11.6C18.6 11.4 18.8 11 18.5 11.1C18.6 11.6 18.6 12.1 18.7 12.6C18.9 12.8 19.4 12.8 19.6 13.2Z" fill="white"/>
<path fill-rule="evenodd" clip-rule="evenodd" d="M17.1 13.4C17.1 12.9 17.2 12.2 17 11.6C16.8 11.3 15.6 10.7 15.2 10.4C13.4 9.20001 11.6 7.80001 10 6.70001C9.9 7.10001 9.6 7.30001 9.4 7.60001C10.1 8.30001 10.9 8.80001 11.5 9.40001C12.9 9.30001 13.5 10.1 14 11.2C15 12 16.1 12.7 17.1 13.4Z" fill="white"/>
<path fill-rule="evenodd" clip-rule="evenodd" d="M12.5 13.5C13.1 13.6 13.4 12.9 13.2 12.1C13 12.6 12.9 13.2 12.5 13.5Z" fill="white"/>
<path fill-rule="evenodd" clip-rule="evenodd" d="M20.7 12C20.8 11.3 20.4 10.6 19.9 10.4C19.6 11.2 20.3 11.6 20.7 12Z" fill="white"/>
<path fill-rule="evenodd" clip-rule="evenodd" d="M6.1 12.7C6 12.5 5.8 12.3 5.5 12.3C5.4 12.7 5.3 13.1 5.1 13.5C5.2 13.8 5.5 13.8 5.7 14C6 13.7 5.8 13 6.1 12.7Z" fill="white"/>
<path fill-rule="evenodd" clip-rule="evenodd" d="M12.2 13C12.4 12.8 12.5 12.6 12.5 12.3C11.9 12 11.4 11.3 10.7 11.1C10.9 11.9 11.8 12.3 12.2 13Z" fill="white"/>
<path fill-rule="evenodd" clip-rule="evenodd" d="M12.5 12.1C12.8 12 12.5 11.5 12.5 11.3C12.2 11.2 12 10.9 11.6 10.9C11.8 11.4 12.3 11.5 12.5 12.1Z" fill="white"/>
<path fill-rule="evenodd" clip-rule="evenodd" d="M16.8 11C17 9.79998 16 9.49998 15.2 8.89998C13.9 7.89998 12.8 7.29998 11.5 6.19998C11.4 6.09998 11 5.59998 10.8 5.59998C10.6 5.59998 10.4 6.19998 10.3 6.29998C12.5 7.99998 14.7 9.39998 16.8 11Z" fill="white"/>
<path fill-rule="evenodd" clip-rule="evenodd" d="M19.1 10.5C19.3 9.69999 18.8 9.19999 18.4 8.79999C18.2 9.69999 18.7 10.1 19.1 10.5Z" fill="white"/>
<path fill-rule="evenodd" clip-rule="evenodd" d="M6.2 12.1C6.5 11.6 6.6 10.9 6.9 10.4C6.8 10.1 6.6 9.99996 6.4 9.89996C6.2 10.6 5.9 11.1 5.8 11.8C5.9 11.9 6.1 11.9 6.2 12.1Z" fill="white"/>
<path fill-rule="evenodd" clip-rule="evenodd" d="M9 11.3C9.4 10.5 9.9 9.8 11 9.6C10.5 9 9.8 8.6 9.2 8C8.6 8.6 8.2 9.5 7.8 10.3C8.1 10.7 8.7 10.9 9 11.3Z" fill="white"/>
<path fill-rule="evenodd" clip-rule="evenodd" d="M20.1 9.69996C20 8.59996 19.4 7.49996 19.1 6.39996C19.3 7.49996 19.4 9.09996 20.1 9.69996Z" fill="white"/>
<path fill-rule="evenodd" clip-rule="evenodd" d="M16.5 9.00001C16.6 9.00001 16.5 8.90001 16.5 8.90001C16.3 8.40001 15.9 8.00001 15.6 7.70001C14.4 6.70001 13.2 5.80001 12.1 4.70001C11.8 4.80001 11.6 5.00001 11.3 5.10001C12.7 6.50001 14.8 7.70001 16.5 9.00001Z" fill="white"/>
<path fill-rule="evenodd" clip-rule="evenodd" d="M18.6 8.3C18.8 8 18.4 7.8 18.3 7.5C18.1 7.9 18.4 8.1 18.6 8.3Z" fill="white"/>
<path fill-rule="evenodd" clip-rule="evenodd" d="M8.4 7.40001C8.2 7.10001 7.9 6.90001 7.7 6.70001C7.6 7.00001 7.3 7.40001 7.1 8.00001C6.8 8.60001 6.3 9.40001 7 9.80001C7.6 9.10001 7.6 8.00001 8.4 7.40001Z" fill="white"/>
<path fill-rule="evenodd" clip-rule="evenodd" d="M16.3 8.19998C16.4 8.19998 16.4 8.19998 16.4 8.09998C16 5.69998 14.9 4.29998 13.9 2.59998C13 2.79998 12 2.59998 11.2 2.79998C11.3 2.99998 11.5 3.19998 11.7 3.29998C12.8 2.29998 14 3.59998 12.6 4.19998C14 5.49998 15.2 6.79998 16.3 8.19998Z" fill="white"/>
<path fill-rule="evenodd" clip-rule="evenodd" d="M9.1 6.39999C8.8 6.39999 8.8 5.89999 8.9 5.69999C8.7 5.59999 8.6 5.29999 8.3 5.29999C8.1 5.59999 8 5.99999 7.8 6.39999C8 6.69999 8.4 6.79999 8.6 7.09999C8.9 6.89999 8.9 6.59999 9.1 6.39999Z" fill="white"/>
<path fill-rule="evenodd" clip-rule="evenodd" d="M9.2 5.3C9.5 5.1 9.7 4.9 9.8 4.6C9.5 4.4 9.3 4.2 9.2 4C8.9 4.2 8.9 4.6 8.6 4.7C8.7 5 9.1 5 9.2 5.3Z" fill="white"/>
<path fill-rule="evenodd" clip-rule="evenodd" d="M11.1 3.80001C11 3.50001 10.8 3.40001 10.6 3.20001C10.2 3.30001 9.9 3.50001 9.5 3.70001C9.9 4.40001 10.4 4.20001 11.1 3.80001Z" fill="white"/>
<path fill-rule="evenodd" clip-rule="evenodd" d="M101.3 121.1C101.1 121 100.9 120.9 100.7 120.9C100.8 121.1 101.1 121.1 101.3 121.1Z" fill="white"/>
<path fill-rule="evenodd" clip-rule="evenodd" d="M99.4 120.8C99.5 120.8 99.4 120.7 99.4 120.7C95.3 119.5 90.9 118.7 86.5 117.8C84.3 117.4 82.2 116.7 80.1 116.3C78 115.8 76 115 73.9 114.7C73.1 114.2 72 114 71 113.8C66.5 112.3 61.8 111.8 57 110.8C55.5 110.5 54 109.9 52.5 109.5C49.5 108.6 46.3 108 43.2 107.4C41.7 107.1 40.2 106.5 38.7 106.2C37.9 106 37.1 105.9 36.4 105.7C35.7 105.5 35 105.1 34.2 105.1C34.3 105.4 34.8 105.4 35 105.5C37.2 106.2 39.7 106.8 42 107.4C44.7 108.1 47.3 108.9 50 109.5C52.7 110.1 55.3 111.2 58 111.7C60.8 112.3 63.5 112.9 66.3 113.4C71.8 114.5 77.2 116.1 82.7 117.1C88.2 118.2 93.7 119.5 99.3 120.6C99.3 120.8 99.4 120.8 99.4 120.8Z" fill="white"/>
<path fill-rule="evenodd" clip-rule="evenodd" d="M91.9 115.2C91.9 115.1 91.7 114.8 91.5 114.8C91.5 114.9 91.4 115 91.5 115.1C91.6 115.1 91.8 115.2 91.9 115.2Z" fill="white"/>
<path fill-rule="evenodd" clip-rule="evenodd" d="M104.8 105.1C104.7 105 104.5 104.9 104.3 104.9C104.3 105.1 104.6 105 104.8 105.1Z" fill="white"/>
<path fill-rule="evenodd" clip-rule="evenodd" d="M66.4 109C64.5 107.2 62.4 105.2 60.4 103.4C60.2 104.1 59.9 104.7 59.7 105.4C61.7 106.9 64.1 107.9 66.4 109Z" fill="white"/>
<path fill-rule="evenodd" clip-rule="evenodd" d="M58.1 106.3C57.1 105.6 55.6 104.9 54.4 104.3C54.4 104.5 54.5 104.8 54.5 105C55.7 105.3 56.8 105.8 58.1 106.3Z" fill="white"/>
<path fill-rule="evenodd" clip-rule="evenodd" d="M51.3 104.2C50.9 103.7 50.2 102.8 49.4 103.1C49.2 102.8 48.9 102.6 48.6 102.5C48.5 102.5 48.6 102.7 48.5 102.8C47.7 102 47.9 99.9999 47.3 99.0999C47.7 98.9999 47.9 99.2 48.1 99.5C49 99.9 49.9 100.5 50.7 101.1C50.8 101.1 51 101.1 51.1 101C51.3 101.1 51.3 101.5 51.5 101.6C52.4 101.7 52.8 102.5 53.6 102.9C50.9 100.6 47.9 98 44.6 96.3C44.6 96.6 45.1 96.9 45.1 97.4C44.3 97.4 44.1 95.8999 42.9 96.1999C43.7 97.5999 44.7 98.7999 45.2 100.6C45.5 100.7 45.8 101 46.2 101.1C45.7 100.1 45.4 98.9 44.6 98.3C45.8 98.1 46.2 100.3 46.7 101.4C46.9 101.4 46.9 101.5 47.1 101.5C46.8 100.6 46.5 99.3 46.7 98.5C47 98.6 47 99.1 47.1 99.4C47.3 100.2 47.4 101.2 47.5 101.9C46.7 101.4 45.5 101.4 44.6 101.1C44.4 101 44.5 101.2 44.2 101.2C43.3 100.5 41.4 100.4 40.2 100.1C39 99.7999 37.8 99.5 36.6 99.4C36.6 99.6 36.6 99.8999 36.6 100.1C39.3 100.3 41.8 101.1 44.2 101.8C46.7 102.5 49 103.2 51.3 104.2Z" fill="white"/>
<path fill-rule="evenodd" clip-rule="evenodd" d="M23.1 98.3C23.3 98.2 23.6 98.6 23.6 98.9C25.4 101.2 27.5 103.3 30.1 104.5C30.4 104.3 30.8 104.1 31.1 103.9C31.2 103.4 30.7 103 30.8 102.5C30.9 101.9 31.9 101.7 32.1 102.6C32.6 102.2 32.5 101.4 32.7 100.8C33 100.7 33 101 33 101.2C33.1 101.2 33 100.9 33 100.8C33.4 102.2 33 103.4 32.4 104.3C31.8 104.5 31.5 104.8 31.4 105.3C31.8 105.3 32 105.1 32.4 105.1C32.4 105 32.4 104.9 32.4 104.8C32.7 104.7 32.9 104.9 33.3 104.8C34.1 103.3 35.3 102.1 34.7 99.5C34.4 99.4 34 99.4 33.8 99.2C33.9 99.5 34.2 100 34.5 100.3C33.7 99.8 33 98.5 31.8 98.4C31.9 99.2 32.1 100 31.5 100.4C31 100 31.5 98 30.5 98C30.8 98.7 30.8 99.6 30.5 100.1C30.6 100.1 30.6 100.1 30.7 100.1C30.7 100.2 30.5 100.1 30.5 100.1C30 100.8 29 101.4 28 101.2C26.9 101 26.2 99.7 25.9 98.5C24.6 98 23.4 97.3 22.1 96.8C22.5 97.6 23 98.2 23.5 99C23.6 98.8 23.2 98.6 23.1 98.3Z" fill="white"/>
<path fill-rule="evenodd" clip-rule="evenodd" d="M37.8 98.4C37.9 98.1 37.5 97.8 37.4 97.5C37.4 97.6 37.6 98.4 37.8 98.4Z" fill="white"/>
<path fill-rule="evenodd" clip-rule="evenodd" d="M29.3 99.4C29.2 98.5 28.4 98.6 28 98.1C28.2 98.6 28.8 99.1 29.3 99.4Z" fill="white"/>
<path fill-rule="evenodd" clip-rule="evenodd" d="M33.8 98.8C33.7 98.6 33.3 98.2 32.9 98C32.9 98.1 32.9 98.3 33 98.4C33.2 98.5 33.5 98.6 33.8 98.8Z" fill="white"/>
<path fill-rule="evenodd" clip-rule="evenodd" d="M19 97.7C19.1 97.5 18.7 97.4 18.7 97.1C14.8 96.1 10.9 94.8 5.7 95.7C8.7 95.8 11.6 95.7 14.2 96.3C15.9 96.7 17.6 97.1 19 97.7Z" fill="white"/>
<path fill-rule="evenodd" clip-rule="evenodd" d="M17.4 84.4C17.4 84.1 17 83.8 17 83.4C15.8 84 15.2 81.9 16 81.2C14.2 78.3 13 74.5 11.6 71.1C11.2 70.2 11.1 69.3 10.4 68.9C10.5 68.7 10.6 69 10.9 69C10.6 68.3 10.6 67.2 9.9 67C10 67 10.2 67 10.2 66.9C9.6 65.3 9.1 63.5 8.5 61.8C8 61.6 7.5 61.1 7.1 61C8.8 69.4 11.8 76.2 14.7 83.1C15.6 83.4 16.5 83.9 17.4 84.4Z" fill="white"/>
<path fill-rule="evenodd" clip-rule="evenodd" d="M11.7 80.6C11.9 80.5 12 80.2 12.2 80.1C10.6 76.8 9 72.7 7.7 69C8.8 73.2 10.1 77.1 11.7 80.6Z" fill="white"/>
<path fill-rule="evenodd" clip-rule="evenodd" d="M29 77.1C29.1 75.9 28.1 75.6 27.6 75C27.5 76.1 28.5 76.5 29 77.1Z" fill="white"/>
<path fill-rule="evenodd" clip-rule="evenodd" d="M11.3 39.1C13.7 40.8 16.4 42.5 19 43.8C18.8 43.4 19.1 42.8 18.9 42.4C18.7 41.9 16.9 41.2 16.4 40.9C14 39.4 11.3 37.7 9.1 36.3C8.6 36.9 7.6 36.4 7.9 35.5C7.1 35.1 6.3 34.4 5.6 34.1C5.7 34.5 5.5 34.9 5.7 35.3C5.8 35.6 6.5 35.9 6.8 36.1C7.9 36.8 9.3 37.7 10.3 38.4C10.4 38 10.5 37.6 10.8 37.4C11.5 37.6 12.2 38.7 11.3 39.1Z" fill="white"/>
<path fill-rule="evenodd" clip-rule="evenodd" d="M2.5 35C2.6 34.9 2.6 34.2 2.5 33.8C2.3 34.1 2.5 34.6 2.5 35Z" fill="white"/>
<path fill-rule="evenodd" clip-rule="evenodd" d="M21.5 17.9C21.6 17.7 21.6 17.4 21.5 17C20.6 16.2 19.7 15.4 18.9 14.4C18.5 15.6 19.7 15.9 20.2 16.6C20.4 16.6 20.3 16.3 20.2 16.1H20.3C20.6 16.2 20.4 16.6 20.5 17C20.9 17.3 21.3 17.6 21.5 17.9Z" fill="white"/>
<path fill-rule="evenodd" clip-rule="evenodd" d="M20.9 13.1C21 12.7 20.5 12.6 20.3 12.4C20.2 12.4 20.8 12.8 20.9 13.1Z" fill="white"/>
</g>
<defs>
<clipPath id="clip0">
<rect width="130.5" height="124.5" fill="white"/>
</clipPath>
</defs>
</svg>
