<svg width="22" height="22" viewBox="0 0 22 22" fill="none" xmlns="http://www.w3.org/2000/svg">
<path d="M15.5833 1.8335H6.41667C3.88536 1.8335 1.83333 3.88552 1.83333 6.41683V15.5835C1.83333 18.1148 3.88536 20.1668 6.41667 20.1668H15.5833C18.1146 20.1668 20.1667 18.1148 20.1667 15.5835V6.41683C20.1667 3.88552 18.1146 1.8335 15.5833 1.8335Z" stroke="white" stroke-width="2" stroke-linecap="round" stroke-linejoin="round"/>
<path d="M14.6667 10.4223C14.7798 11.1852 14.6495 11.9643 14.2943 12.6489C13.9391 13.3335 13.3771 13.8886 12.6882 14.2353C11.9993 14.5821 11.2186 14.7028 10.4571 14.5802C9.6957 14.4577 8.99228 14.0982 8.44694 13.5529C7.90159 13.0075 7.54209 12.3041 7.41956 11.5427C7.29704 10.7812 7.41773 10.0005 7.76447 9.31163C8.1112 8.62274 8.66634 8.06072 9.3509 7.70551C10.0355 7.3503 10.8146 7.21999 11.5775 7.33312C12.3557 7.44852 13.0761 7.81113 13.6324 8.3674C14.1887 8.92368 14.5513 9.64411 14.6667 10.4223Z" stroke="white" stroke-width="2" stroke-linecap="round" stroke-linejoin="round"/>
<path d="M16.0417 5.9585H16.0517" stroke="white" stroke-width="2" stroke-linecap="round" stroke-linejoin="round"/>
</svg>
