<svg width="109" height="62" viewBox="0 0 109 62" fill="none" xmlns="http://www.w3.org/2000/svg">
<path d="M54.5 1.75415L105.929 31L54.5 60.2459L3.07127 31L54.5 1.75415ZM54.5 0L53.7472 0.423415L2.31851 29.6693L0 31L2.31851 32.3307L53.7472 61.5766L54.5 62L55.2528 61.5766L106.681 32.3307L109 31L106.681 29.6693L55.2528 0.423415L54.5 0Z" fill="#CDA349"/>
<path d="M100.78 31L54.5 57.3122L8.22015 31L54.5 4.68783L100.78 31ZM54.5 4.02246C54.3795 4.02246 54.2892 4.0527 54.1989 4.11319L7.91904 30.4254C7.70827 30.5464 7.58783 30.7581 7.58783 30.9698C7.58783 31.2117 7.70827 31.4234 7.91904 31.5142L54.1989 57.8868C54.2892 57.9473 54.4097 57.9776 54.5 57.9776C54.5903 57.9776 54.7108 57.9473 54.8011 57.8868L101.081 31.5444C101.292 31.4234 101.412 31.2117 101.412 31C101.412 30.7581 101.292 30.5464 101.081 30.4556L54.8011 4.11319C54.7108 4.0527 54.5903 4.02246 54.5 4.02246Z" fill="#D2AC5B"/>
<path d="M68.5337 15.0749C68.3796 14.9255 68.1484 15.0002 67.9942 15.1497L54.6615 32.2617C54.5845 32.3365 54.5845 32.4859 54.5845 32.6354L55.8946 35.9233C55.7405 36.1475 55.5093 36.4464 55.201 36.8947C49.8063 32.8595 36.1653 25.4617 36.1653 25.4617C34.7781 24.7145 32.466 24.7145 31.233 25.7606C31.0788 25.9101 30.8476 26.1343 30.7706 26.3584L30.3081 27.1804C29.3833 28.7497 30.6935 31.2156 32.389 32.1123C32.389 32.1123 43.5638 37.4925 50.654 40.1826C51.2706 40.4068 51.81 40.631 52.3495 40.7804C52.2724 40.9299 52.1954 41.0046 52.1183 41.0793C50.1145 43.5453 49.8063 47.8793 50.3457 48.776C50.4999 49.0749 50.7311 49.0749 50.8081 49.0749H50.8852C51.1935 49.0002 51.5018 48.776 51.81 47.5057C52.5807 44.442 53.6597 43.0969 53.6597 43.0222L54.8157 41.453C55.5863 41.6024 56.0487 41.6024 56.2029 41.3782L57.513 39.1365C57.5901 38.987 57.436 38.6881 57.1277 38.3892L59.2856 35.4749C59.2856 35.4002 59.3627 35.4002 59.3627 35.3255C60.2875 34.1299 61.6747 32.4112 63.139 30.5431L64.6803 28.5255C65.7593 27.1804 66.8382 25.7606 67.8401 24.4156C68.7649 23.22 69.6127 22.0991 70.3063 21.1277C72.0788 18.6617 69.9209 16.0464 68.5337 15.0749ZM53.0431 42.5738C52.966 42.6486 51.8871 44.0683 51.0393 47.2815C50.9623 47.5057 50.8852 47.7299 50.8852 47.8793C50.7311 46.609 51.1164 43.3958 52.6578 41.453C52.8119 41.3035 52.889 41.1541 53.1202 40.9299C53.4284 41.0046 53.7367 41.1541 54.045 41.2288L53.0431 42.5738ZM55.6634 39.5848C55.3551 40.1079 54.7386 40.2574 54.2762 39.9585C53.7367 39.6595 53.5826 39.0617 53.8909 38.6134C54.1991 38.165 54.8157 37.9409 55.2781 38.2398C55.7405 38.5387 55.8946 39.1365 55.6634 39.5848ZM69.6897 20.6046C68.9961 21.576 68.1484 22.6969 67.2236 23.8925C66.2217 25.2376 65.1427 26.6574 64.0638 28.0024L62.5224 30.02C60.9811 31.9628 59.5939 33.7563 58.6691 34.9519C58.6691 35.0266 58.592 35.0266 58.592 35.1013L56.5882 37.7914C56.357 37.642 56.2029 37.4178 55.8946 37.2683C56.357 36.6705 56.6653 36.2222 56.7424 36.1475C56.8194 36.0727 56.8194 35.9233 56.8194 35.7738L55.4322 32.4859L68.3025 15.8969C68.3796 15.9716 68.4566 16.0464 68.6108 16.1958L56.2029 31.8881L56.8194 32.3365L69.1503 16.7936C69.998 17.6903 70.7687 19.1848 69.6897 20.6046Z" fill="#D5A353"/>
</svg>
