<svg width="125" height="55" viewBox="0 0 125 55" fill="none" xmlns="http://www.w3.org/2000/svg">
<path d="M6.24 14.08H9.84L14.32 27.48L15.42 27.68V29H9.12V27.68L10.54 27.48L9.86 25.08H5.08L4.4 27.5L5.96 27.68V29H0.639995L0.619995 27.68L1.78 27.46L6.24 14.08ZM7.72 17.56L7.42 16.16L7.1 17.58L5.48 23.54H9.44L7.72 17.56Z" fill="#D5A353"/>
<path d="M24.0406 20.96C24.8006 21.1333 25.4606 21.6067 26.0206 22.38C26.5806 23.1533 27.1673 24.1733 27.7806 25.44C28.0873 26.08 28.334 26.56 28.5206 26.88C28.7206 27.2 28.9073 27.3933 29.0806 27.46L29.8006 27.68V29H26.1806C25.8473 29 25.534 28.7467 25.2406 28.24C24.9606 27.7333 24.614 26.96 24.2006 25.92C23.694 24.68 23.2473 23.74 22.8606 23.1C22.474 22.4467 22.0273 22.12 21.5206 22.12H20.7606V27.46L22.5606 27.7V29H15.8806V27.68L17.3606 27.46V15.82L15.8806 15.54V14.14H22.2406V15.54L20.7606 15.82V20.9H22.0606L25.3806 15.8L23.9806 15.54V14.14H29.4806V15.54L27.7806 15.82L24.0406 20.96Z" fill="#D5A353"/>
<path d="M35.0291 14.08H38.6291L43.1091 27.48L44.2091 27.68V29H37.9091V27.68L39.3291 27.48L38.6491 25.08H33.8691L33.1891 27.5L34.7491 27.68V29H29.4291L29.4091 27.68L30.5691 27.46L35.0291 14.08ZM36.5091 17.56L36.2091 16.16L35.8891 17.58L34.2691 23.54H38.2291L36.5091 17.56Z" fill="#D5A353"/>
<path d="M58.6697 27.46C58.6697 28.02 58.6164 29.0533 58.5097 30.56C58.4164 32.08 58.3497 32.9133 58.3097 33.06H56.4897C56.4764 32.7133 56.3764 31.9867 56.1897 30.88C56.003 29.7867 55.8564 29.16 55.7497 29H47.1897C47.043 29.16 46.8564 29.7267 46.6297 30.7C46.403 31.6867 46.2364 32.4867 46.1297 33.1H44.2697C44.2697 32.8067 44.2764 32.54 44.2897 32.3C44.3297 29.8867 44.383 28.2733 44.4497 27.46H45.8697C46.443 26.6333 46.983 25.32 47.4897 23.52C47.9964 21.72 48.2497 19.4133 48.2497 16.6V15.82L46.1497 15.54V14.14H58.6697V15.54L56.7497 15.82V27.46H58.6697ZM49.8497 16.72C49.863 19.3067 49.683 21.5133 49.3097 23.34C48.9364 25.1667 48.523 26.54 48.0697 27.46H53.3497V15.62H49.8497V16.72Z" fill="#D5A353"/>
<path d="M61.6184 15.82L60.0584 15.54V14.14H70.9984L71.2584 17.68H69.6784L68.9784 15.66L65.0384 15.46V20.66L67.4784 20.6L67.8384 18.96H69.2184V23.98H67.8384L67.4984 22.24L65.0384 22.18V27.62L69.4184 27.34L70.6384 24.76L72.3384 25.24L71.8584 29H60.0784V27.68L61.6184 27.48V15.82Z" fill="#D5A353"/>
<path d="M75.683 15.82L73.563 15.54V14.14H80.363L82.483 22.5L82.963 24.72L83.363 22.5L85.463 14.14H92.223V15.54L90.043 15.82L91.643 27.46L93.183 27.68V29H86.443V27.68L88.143 27.46L87.303 18.84L86.943 15.32L86.243 18.52L83.623 28.42H81.003L78.203 18.8L77.283 15.3L77.043 18.84L76.303 27.46L78.343 27.68V29H72.563V27.68L74.223 27.48L75.683 15.82Z" fill="#D5A353"/>
<path d="M100.607 14.14V15.52L98.8466 15.82V24.66L100.007 22.58L104.687 16.24V15.82L103.047 15.54V14.14H109.587V15.54L108.067 15.82V27.46L109.627 27.68V29H103.067V27.68L104.687 27.46V18.48L103.647 20.54L98.8466 26.9V27.46L100.587 27.68V29H93.9466V27.68L95.4666 27.48V15.8L93.9666 15.54V14.14H100.607Z" fill="#D5A353"/>
<path d="M118.376 22.7L117.196 22.68C116.863 22.88 116.556 23.2933 116.276 23.92C116.009 24.5467 115.703 25.4 115.356 26.48C115.063 27.36 114.829 28 114.656 28.4C114.496 28.8 114.329 29 114.156 29H110.336V27.68L111.036 27.46C111.223 27.4067 111.396 27.2333 111.556 26.94C111.729 26.6467 111.929 26.22 112.156 25.66C112.569 24.7133 112.969 23.94 113.356 23.34C113.743 22.74 114.229 22.3267 114.816 22.1C113.869 21.8733 113.136 21.3867 112.616 20.64C112.109 19.8933 111.856 19.0533 111.856 18.12C111.856 16.6667 112.309 15.62 113.216 14.98C114.123 14.3267 115.569 14 117.556 14C118.103 14 118.736 14.0267 119.456 14.08C119.616 14.08 119.849 14.0933 120.156 14.12C120.463 14.1333 120.756 14.14 121.036 14.14H124.276V15.54L122.736 15.82V27.48L124.376 27.68V29H117.556V27.68L119.316 27.48V22.68L118.376 22.7ZM119.316 15.44C119.236 15.44 119.076 15.4267 118.836 15.4C118.609 15.36 118.303 15.34 117.916 15.34C117.116 15.34 116.503 15.5467 116.076 15.96C115.663 16.3733 115.456 17.0867 115.456 18.1C115.456 20.2867 116.289 21.38 117.956 21.38C118.703 21.38 119.156 21.3533 119.316 21.3V15.44Z" fill="#D5A353"/>
<path d="M3.22 40.82L1.72 40.54V39.14H4.88C5.33333 39.14 5.93333 39.1133 6.68 39.06C6.84 39.0467 7.04 39.0333 7.28 39.02C7.52 39.0067 7.8 39 8.12 39C9.57333 39 10.7133 39.1333 11.54 39.4C12.3667 39.6667 12.94 40.0467 13.26 40.54C13.5933 41.0333 13.76 41.6533 13.76 42.4C13.76 43.4 13.4467 44.2267 12.82 44.88C12.2067 45.5333 11.42 45.9267 10.46 46.06C11.7933 46.06 12.84 46.36 13.6 46.96C14.3733 47.56 14.76 48.4067 14.76 49.5C14.76 50.9267 14.2667 52.0533 13.28 52.88C12.3067 53.7067 10.6467 54.12 8.3 54.12C7.92666 54.12 7.56666 54.1067 7.22 54.08C6.87333 54.0667 6.62666 54.06 6.48 54.06C6 54.02 5.48 54 4.92 54H1.68V52.68L3.22 52.46V40.82ZM6.6 45.56C6.84 45.5867 7.38 45.6 8.22 45.6C8.95333 45.6 9.49333 45.3533 9.84 44.86C10.1867 44.3533 10.36 43.6467 10.36 42.74C10.36 41.9 10.1733 41.2867 9.8 40.9C9.42666 40.5133 8.82 40.32 7.98 40.32C7.78 40.32 7.54666 40.3333 7.28 40.36C7.01333 40.3733 6.78666 40.3933 6.6 40.42V45.56ZM6.6 52.58C6.86666 52.6867 7.39333 52.74 8.18 52.74C9.16666 52.74 9.88 52.48 10.32 51.96C10.7733 51.44 11 50.6867 11 49.7C11 48.7667 10.7933 48.1 10.38 47.7C9.96666 47.3 9.31333 47.1 8.42 47.1C7.68666 47.1 7.08 47.1133 6.6 47.14V52.58Z" fill="#D5A353"/>
<path d="M22.4759 54.22C20.2359 54.22 18.5759 53.5467 17.4959 52.2C16.4159 50.84 15.8759 48.9733 15.8759 46.6C15.8759 45.0667 16.1559 43.7267 16.7159 42.58C17.2893 41.42 18.0893 40.5267 19.1159 39.9C20.1426 39.2733 21.3426 38.96 22.7159 38.96C25.0093 38.96 26.6959 39.6 27.7759 40.88C28.8693 42.1467 29.4159 43.96 29.4159 46.32C29.4159 47.88 29.1293 49.26 28.5559 50.46C27.9826 51.6467 27.1693 52.5733 26.1159 53.24C25.0759 53.8933 23.8626 54.22 22.4759 54.22ZM22.6559 40.28C21.6959 40.28 20.9493 40.8067 20.4159 41.86C19.8959 42.9133 19.6359 44.4867 19.6359 46.58C19.6359 48.7133 19.8959 50.3 20.4159 51.34C20.9359 52.3667 21.6759 52.88 22.6359 52.88C23.5826 52.88 24.3159 52.32 24.8359 51.2C25.3693 50.0667 25.6359 48.4467 25.6359 46.34C25.6359 44.2067 25.3826 42.6667 24.8759 41.72C24.3693 40.76 23.6293 40.28 22.6559 40.28Z" fill="#D5A353"/>
<path d="M30.6448 52.68L32.1848 52.48V40.8L30.7248 40.52V39.14H33.8048C34.0582 39.14 34.3315 39.1333 34.6248 39.12C34.9315 39.1067 35.1648 39.0933 35.3248 39.08C36.0448 39.0267 36.6582 39 37.1648 39C38.5915 39 39.7248 39.14 40.5648 39.42C41.4048 39.6867 42.0115 40.1133 42.3848 40.7C42.7715 41.2733 42.9648 42.0333 42.9648 42.98C42.9648 43.8867 42.7248 44.7333 42.2448 45.52C41.7648 46.3067 41.0582 46.8467 40.1248 47.14C40.7382 47.3667 41.2515 47.7933 41.6648 48.42C42.0915 49.0333 42.5315 49.82 42.9848 50.78C43.2515 51.34 43.4648 51.76 43.6248 52.04C43.7848 52.3067 43.9515 52.46 44.1248 52.5L44.7048 52.68V54H40.9048C40.7048 54 40.4982 53.7867 40.2848 53.36C40.0715 52.9333 39.7982 52.2667 39.4648 51.36C39.0515 50.2533 38.6915 49.4 38.3848 48.8C38.0915 48.1867 37.7648 47.8133 37.4048 47.68H35.6048V52.48L37.3848 52.68V54H30.6448V52.68ZM37.1448 46.38C37.8382 46.38 38.3782 46.1133 38.7648 45.58C39.1515 45.0333 39.3448 44.2133 39.3448 43.12C39.3448 42.16 39.1515 41.46 38.7648 41.02C38.3915 40.5667 37.7582 40.34 36.8648 40.34C36.3848 40.34 35.9648 40.3733 35.6048 40.44V46.32C35.7782 46.36 36.0648 46.38 36.4648 46.38C36.8648 46.38 37.0915 46.38 37.1448 46.38Z" fill="#D5A353"/>
<path d="M51.7337 54.22C49.4937 54.22 47.8337 53.5467 46.7537 52.2C45.6737 50.84 45.1337 48.9733 45.1337 46.6C45.1337 45.0667 45.4137 43.7267 45.9737 42.58C46.5471 41.42 47.3471 40.5267 48.3737 39.9C49.4004 39.2733 50.6004 38.96 51.9737 38.96C54.2671 38.96 55.9537 39.6 57.0337 40.88C58.1271 42.1467 58.6737 43.96 58.6737 46.32C58.6737 47.88 58.3871 49.26 57.8137 50.46C57.2404 51.6467 56.4271 52.5733 55.3737 53.24C54.3337 53.8933 53.1204 54.22 51.7337 54.22ZM51.9137 40.28C50.9537 40.28 50.2071 40.8067 49.6737 41.86C49.1537 42.9133 48.8937 44.4867 48.8937 46.58C48.8937 48.7133 49.1537 50.3 49.6737 51.34C50.1937 52.3667 50.9337 52.88 51.8937 52.88C52.8404 52.88 53.5737 52.32 54.0937 51.2C54.6271 50.0667 54.8937 48.4467 54.8937 46.34C54.8937 44.2067 54.6404 42.6667 54.1337 41.72C53.6271 40.76 52.8871 40.28 51.9137 40.28Z" fill="#D5A353"/>
<path d="M61.4427 40.82L59.9827 40.54V39.14H63.1027C63.5427 39.14 64.136 39.1133 64.8827 39.06C65.056 39.0467 65.316 39.0333 65.6627 39.02C66.0227 39.0067 66.3427 39 66.6227 39C69.0493 39 70.876 39.6067 72.1027 40.82C73.3293 42.0333 73.9426 43.7733 73.9426 46.04C73.9426 47.6 73.6426 48.9933 73.0426 50.22C72.4426 51.4467 71.5826 52.4133 70.4626 53.12C69.3426 53.8133 68.0226 54.16 66.5026 54.16C66.0893 54.16 65.4693 54.1333 64.6427 54.08C63.8693 54.0267 63.3693 54 63.1427 54H59.9027V52.68L61.4427 52.46V40.82ZM64.8226 52.52C65.2893 52.6667 65.8226 52.7267 66.4226 52.7C67.6226 52.6867 68.5493 52.18 69.2027 51.18C69.8693 50.1667 70.2027 48.62 70.2027 46.54C70.2027 44.62 69.876 43.12 69.2226 42.04C68.5826 40.9467 67.5693 40.4 66.1826 40.4C65.8626 40.4 65.576 40.42 65.3226 40.46C65.0693 40.5 64.9026 40.5267 64.8226 40.54V52.52Z" fill="#D5A353"/>
<path d="M79.7166 39.08H83.3166L87.7966 52.48L88.8966 52.68V54H82.5966V52.68L84.0166 52.48L83.3366 50.08H78.5566L77.8766 52.5L79.4366 52.68V54H74.1166L74.0966 52.68L75.2566 52.46L79.7166 39.08ZM81.1966 42.56L80.8966 41.16L80.5766 42.58L78.9566 48.54H82.9166L81.1966 42.56Z" fill="#D5A353"/>
<path d="M2.2876 7.08838C1.9624 7.08838 1.67676 7.04443 1.43066 6.95654V6.22705C1.70312 6.35303 1.97998 6.41602 2.26123 6.41602C2.5835 6.41602 2.84131 6.34277 3.03467 6.19629C3.23096 6.04688 3.42578 5.76855 3.61914 5.36133L1.11865 0.575684H1.94482L3.84326 4.22754C3.9165 4.37109 3.97363 4.51172 4.01465 4.64941H4.0498C4.13184 4.40332 4.18896 4.24805 4.22119 4.18359L5.79883 0.575684H6.58984L4.5376 5.17236C4.2915 5.72021 4.06885 6.11865 3.86963 6.36768C3.67334 6.6167 3.45068 6.7998 3.20166 6.91699C2.95557 7.03125 2.65088 7.08838 2.2876 7.08838Z" fill="#191514"/>
<path d="M8.00488 2.18408V3.94189C8.00488 4.50439 8.32568 4.78564 8.96729 4.78564C9.23389 4.78564 9.48877 4.74463 9.73193 4.6626C9.9751 4.58057 10.2505 4.44141 10.5581 4.24512V2.18408H11.2876V7.00049H10.5581V4.8208C10.2505 5.03174 9.96484 5.18115 9.70117 5.26904C9.44043 5.354 9.14453 5.39648 8.81348 5.39648C8.33301 5.39648 7.95654 5.27051 7.68408 5.01855C7.41162 4.7666 7.27539 4.42529 7.27539 3.99463V2.18408H8.00488Z" fill="#191514"/>
<path d="M14.8735 7.08838C14.1616 7.08838 13.5991 6.87158 13.186 6.43799C12.7759 6.00439 12.5708 5.40234 12.5708 4.63184C12.5708 3.85547 12.7612 3.23877 13.1421 2.78174C13.5259 2.32471 14.04 2.09619 14.6846 2.09619C15.2881 2.09619 15.7656 2.29541 16.1172 2.69385C16.4688 3.08936 16.6445 3.6123 16.6445 4.2627V4.72412H13.3267C13.3413 5.28955 13.4834 5.71875 13.7529 6.01172C14.0254 6.30469 14.4077 6.45117 14.8999 6.45117C15.4185 6.45117 15.9312 6.34277 16.438 6.12598V6.77637C16.1802 6.8877 15.9355 6.9668 15.7041 7.01367C15.4756 7.06348 15.1987 7.08838 14.8735 7.08838ZM14.6758 2.70703C14.2891 2.70703 13.98 2.83301 13.7485 3.08496C13.52 3.33691 13.3853 3.68555 13.3442 4.13086H15.8623C15.8623 3.6709 15.7598 3.31934 15.5547 3.07617C15.3496 2.83008 15.0566 2.70703 14.6758 2.70703Z" fill="#191514"/>
<path d="M17.6421 4.11328C17.6421 3.05859 17.7974 2.23682 18.1079 1.64795C18.4185 1.05615 18.9106 0.687012 19.5845 0.540527C20.4224 0.361816 21.1606 0.216797 21.7993 0.105469L21.9355 0.74707C20.9189 0.916992 20.1924 1.05176 19.7559 1.15137C19.3311 1.24805 19.0117 1.47656 18.7979 1.83691C18.5869 2.19727 18.4712 2.68799 18.4507 3.30908H18.5034C18.6851 3.06299 18.9194 2.86963 19.2065 2.729C19.4937 2.58838 19.7939 2.51807 20.1074 2.51807C20.6992 2.51807 21.1606 2.70996 21.4917 3.09375C21.8228 3.47754 21.9883 4.00928 21.9883 4.68896C21.9883 5.44189 21.7964 6.03076 21.4126 6.45557C21.0288 6.87744 20.4941 7.08838 19.8086 7.08838C19.1318 7.08838 18.6016 6.8291 18.2178 6.31055C17.834 5.79199 17.6421 5.05957 17.6421 4.11328ZM19.8745 6.47754C20.7681 6.47754 21.2148 5.90771 21.2148 4.76807C21.2148 3.68115 20.8091 3.1377 19.9976 3.1377C19.7749 3.1377 19.5596 3.18457 19.3516 3.27832C19.1465 3.36914 18.9575 3.49072 18.7847 3.64307C18.6147 3.79541 18.4829 3.95215 18.3892 4.11328C18.3892 4.88379 18.5107 5.47119 18.7539 5.87549C18.9971 6.27686 19.3706 6.47754 19.8745 6.47754Z" fill="#191514"/>
<path d="M23.9922 2.18408V4.20117H26.6904V2.18408H27.4199V7.00049H26.6904V4.82959H23.9922V7.00049H23.2627V2.18408H23.9922Z" fill="#191514"/>
<path d="M29.6963 4.1748H31.0103C31.6226 4.1748 32.0752 4.28906 32.3682 4.51758C32.6641 4.74316 32.812 5.08154 32.812 5.53271C32.812 6.01611 32.6553 6.38232 32.3418 6.63135C32.0312 6.87744 31.5728 7.00049 30.9663 7.00049H28.9668V2.18408H29.6963V4.1748ZM34.3501 7.00049H33.6206V2.18408H34.3501V7.00049ZM29.6963 4.80322V6.38965H30.9312C31.7046 6.38965 32.0913 6.11865 32.0913 5.57666C32.0913 5.30713 32.002 5.11084 31.8232 4.98779C31.6445 4.86475 31.3398 4.80322 30.9092 4.80322H29.6963Z" fill="#191514"/>
<path d="M36.5869 2.18408V5.23828L36.5562 6.03809L36.543 6.28857L39.1489 2.18408H40.0586V7.00049H39.3774V4.05615L39.3906 3.47607L39.4126 2.90479L36.811 7.00049H35.9014V2.18408H36.5869ZM37.9624 1.54688C37.4204 1.54688 37.0249 1.44287 36.7759 1.23486C36.5269 1.02393 36.3877 0.678223 36.3584 0.197754H37.0439C37.0703 0.502441 37.1494 0.714844 37.2812 0.834961C37.416 0.955078 37.6489 1.01514 37.98 1.01514C38.2817 1.01514 38.5044 0.950684 38.6479 0.821777C38.7944 0.692871 38.8838 0.484863 38.916 0.197754H39.606C39.5708 0.660645 39.4229 1.00195 39.1621 1.22168C38.9014 1.43848 38.5015 1.54688 37.9624 1.54688Z" fill="#191514"/>
<path d="M48.6411 8.66602H47.9116V7.00049H43.9434V2.18408H44.6729V6.37207H47.2305V2.18408H47.96V6.37207H48.6411V8.66602Z" fill="#191514"/>
<path d="M51.6118 7.08838C50.8999 7.08838 50.3374 6.87158 49.9243 6.43799C49.5142 6.00439 49.3091 5.40234 49.3091 4.63184C49.3091 3.85547 49.4995 3.23877 49.8804 2.78174C50.2642 2.32471 50.7783 2.09619 51.4229 2.09619C52.0264 2.09619 52.5039 2.29541 52.8555 2.69385C53.207 3.08936 53.3828 3.6123 53.3828 4.2627V4.72412H50.0649C50.0796 5.28955 50.2217 5.71875 50.4912 6.01172C50.7637 6.30469 51.146 6.45117 51.6382 6.45117C52.1567 6.45117 52.6694 6.34277 53.1763 6.12598V6.77637C52.9185 6.8877 52.6738 6.9668 52.4424 7.01367C52.2139 7.06348 51.937 7.08838 51.6118 7.08838ZM51.4141 2.70703C51.0273 2.70703 50.7183 2.83301 50.4868 3.08496C50.2583 3.33691 50.1235 3.68555 50.0825 4.13086H52.6006C52.6006 3.6709 52.498 3.31934 52.293 3.07617C52.0879 2.83008 51.7949 2.70703 51.4141 2.70703Z" fill="#191514"/>
<path d="M55.3604 2.18408V4.20117H58.0586V2.18408H58.7881V7.00049H58.0586V4.82959H55.3604V7.00049H54.6309V2.18408H55.3604Z" fill="#191514"/>
<path d="M63.5825 2.80811H62.0181V7.00049H61.2886V2.80811H59.7417V2.18408H63.5825V2.80811Z" fill="#191514"/>
<path d="M66.7773 7.08838C66.4639 7.08838 66.1768 7.03125 65.916 6.91699C65.6582 6.7998 65.4414 6.62109 65.2656 6.38086H65.2129C65.248 6.66211 65.2656 6.92871 65.2656 7.18066V9.1626H64.5361V2.18408H65.1294L65.2305 2.84326H65.2656C65.4531 2.57959 65.6714 2.38916 65.9204 2.27197C66.1694 2.15479 66.4551 2.09619 66.7773 2.09619C67.416 2.09619 67.9082 2.31445 68.2539 2.75098C68.6025 3.1875 68.7769 3.7998 68.7769 4.58789C68.7769 5.37891 68.5996 5.99414 68.2451 6.43359C67.8936 6.87012 67.4043 7.08838 66.7773 7.08838ZM66.6719 2.71582C66.1797 2.71582 65.8237 2.85205 65.604 3.12451C65.3843 3.39697 65.2715 3.83057 65.2656 4.42529V4.58789C65.2656 5.26465 65.3784 5.74951 65.604 6.04248C65.8296 6.33252 66.1914 6.47754 66.6895 6.47754C67.1055 6.47754 67.4307 6.30908 67.665 5.97217C67.9023 5.63525 68.021 5.1709 68.021 4.5791C68.021 3.97852 67.9023 3.51855 67.665 3.19922C67.4307 2.87695 67.0996 2.71582 66.6719 2.71582Z" fill="#191514"/>
</svg>
