<svg width="125" height="55" viewBox="0 0 125 55" fill="none" xmlns="http://www.w3.org/2000/svg">
<path d="M6.24 14.08H9.84L14.32 27.48L15.42 27.68V29H9.12V27.68L10.54 27.48L9.86 25.08H5.08L4.4 27.5L5.96 27.68V29H0.639995L0.619995 27.68L1.78 27.46L6.24 14.08ZM7.72 17.56L7.42 16.16L7.1 17.58L5.48 23.54H9.44L7.72 17.56Z" fill="#D5A353"/>
<path d="M24.0406 20.96C24.8006 21.1333 25.4606 21.6067 26.0206 22.38C26.5806 23.1533 27.1673 24.1733 27.7806 25.44C28.0873 26.08 28.334 26.56 28.5206 26.88C28.7206 27.2 28.9073 27.3933 29.0806 27.46L29.8006 27.68V29H26.1806C25.8473 29 25.534 28.7467 25.2406 28.24C24.9606 27.7333 24.614 26.96 24.2006 25.92C23.694 24.68 23.2473 23.74 22.8606 23.1C22.474 22.4467 22.0273 22.12 21.5206 22.12H20.7606V27.46L22.5606 27.7V29H15.8806V27.68L17.3606 27.46V15.82L15.8806 15.54V14.14H22.2406V15.54L20.7606 15.82V20.9H22.0606L25.3806 15.8L23.9806 15.54V14.14H29.4806V15.54L27.7806 15.82L24.0406 20.96Z" fill="#D5A353"/>
<path d="M35.0291 14.08H38.6291L43.1091 27.48L44.2091 27.68V29H37.9091V27.68L39.3291 27.48L38.6491 25.08H33.8691L33.1891 27.5L34.7491 27.68V29H29.4291L29.4091 27.68L30.5691 27.46L35.0291 14.08ZM36.5091 17.56L36.2091 16.16L35.8891 17.58L34.2691 23.54H38.2291L36.5091 17.56Z" fill="#D5A353"/>
<path d="M58.6697 27.46C58.6697 28.02 58.6164 29.0533 58.5097 30.56C58.4164 32.08 58.3497 32.9133 58.3097 33.06H56.4897C56.4764 32.7133 56.3764 31.9867 56.1897 30.88C56.003 29.7867 55.8564 29.16 55.7497 29H47.1897C47.043 29.16 46.8564 29.7267 46.6297 30.7C46.403 31.6867 46.2364 32.4867 46.1297 33.1H44.2697C44.2697 32.8067 44.2764 32.54 44.2897 32.3C44.3297 29.8867 44.383 28.2733 44.4497 27.46H45.8697C46.443 26.6333 46.983 25.32 47.4897 23.52C47.9964 21.72 48.2497 19.4133 48.2497 16.6V15.82L46.1497 15.54V14.14H58.6697V15.54L56.7497 15.82V27.46H58.6697ZM49.8497 16.72C49.863 19.3067 49.683 21.5133 49.3097 23.34C48.9364 25.1667 48.523 26.54 48.0697 27.46H53.3497V15.62H49.8497V16.72Z" fill="#D5A353"/>
<path d="M61.6184 15.82L60.0584 15.54V14.14H70.9984L71.2584 17.68H69.6784L68.9784 15.66L65.0384 15.46V20.66L67.4784 20.6L67.8384 18.96H69.2184V23.98H67.8384L67.4984 22.24L65.0384 22.18V27.62L69.4184 27.34L70.6384 24.76L72.3384 25.24L71.8584 29H60.0784V27.68L61.6184 27.48V15.82Z" fill="#D5A353"/>
<path d="M75.683 15.82L73.563 15.54V14.14H80.363L82.483 22.5L82.963 24.72L83.363 22.5L85.463 14.14H92.223V15.54L90.043 15.82L91.643 27.46L93.183 27.68V29H86.443V27.68L88.143 27.46L87.303 18.84L86.943 15.32L86.243 18.52L83.623 28.42H81.003L78.203 18.8L77.283 15.3L77.043 18.84L76.303 27.46L78.343 27.68V29H72.563V27.68L74.223 27.48L75.683 15.82Z" fill="#D5A353"/>
<path d="M100.607 14.14V15.52L98.8466 15.82V24.66L100.007 22.58L104.687 16.24V15.82L103.047 15.54V14.14H109.587V15.54L108.067 15.82V27.46L109.627 27.68V29H103.067V27.68L104.687 27.46V18.48L103.647 20.54L98.8466 26.9V27.46L100.587 27.68V29H93.9466V27.68L95.4666 27.48V15.8L93.9666 15.54V14.14H100.607Z" fill="#D5A353"/>
<path d="M118.376 22.7L117.196 22.68C116.863 22.88 116.556 23.2933 116.276 23.92C116.009 24.5467 115.703 25.4 115.356 26.48C115.063 27.36 114.829 28 114.656 28.4C114.496 28.8 114.329 29 114.156 29H110.336V27.68L111.036 27.46C111.223 27.4067 111.396 27.2333 111.556 26.94C111.729 26.6467 111.929 26.22 112.156 25.66C112.569 24.7133 112.969 23.94 113.356 23.34C113.743 22.74 114.229 22.3267 114.816 22.1C113.869 21.8733 113.136 21.3867 112.616 20.64C112.109 19.8933 111.856 19.0533 111.856 18.12C111.856 16.6667 112.309 15.62 113.216 14.98C114.123 14.3267 115.569 14 117.556 14C118.103 14 118.736 14.0267 119.456 14.08C119.616 14.08 119.849 14.0933 120.156 14.12C120.463 14.1333 120.756 14.14 121.036 14.14H124.276V15.54L122.736 15.82V27.48L124.376 27.68V29H117.556V27.68L119.316 27.48V22.68L118.376 22.7ZM119.316 15.44C119.236 15.44 119.076 15.4267 118.836 15.4C118.609 15.36 118.303 15.34 117.916 15.34C117.116 15.34 116.503 15.5467 116.076 15.96C115.663 16.3733 115.456 17.0867 115.456 18.1C115.456 20.2867 116.289 21.38 117.956 21.38C118.703 21.38 119.156 21.3533 119.316 21.3V15.44Z" fill="#D5A353"/>
<path d="M3.22 40.82L1.72 40.54V39.14H4.88C5.33333 39.14 5.93333 39.1133 6.68 39.06C6.84 39.0467 7.04 39.0333 7.28 39.02C7.52 39.0067 7.8 39 8.12 39C9.57333 39 10.7133 39.1333 11.54 39.4C12.3667 39.6667 12.94 40.0467 13.26 40.54C13.5933 41.0333 13.76 41.6533 13.76 42.4C13.76 43.4 13.4467 44.2267 12.82 44.88C12.2067 45.5333 11.42 45.9267 10.46 46.06C11.7933 46.06 12.84 46.36 13.6 46.96C14.3733 47.56 14.76 48.4067 14.76 49.5C14.76 50.9267 14.2667 52.0533 13.28 52.88C12.3067 53.7067 10.6467 54.12 8.3 54.12C7.92666 54.12 7.56666 54.1067 7.22 54.08C6.87333 54.0667 6.62666 54.06 6.48 54.06C6 54.02 5.48 54 4.92 54H1.68V52.68L3.22 52.46V40.82ZM6.6 45.56C6.84 45.5867 7.38 45.6 8.22 45.6C8.95333 45.6 9.49333 45.3533 9.84 44.86C10.1867 44.3533 10.36 43.6467 10.36 42.74C10.36 41.9 10.1733 41.2867 9.8 40.9C9.42666 40.5133 8.82 40.32 7.98 40.32C7.78 40.32 7.54666 40.3333 7.28 40.36C7.01333 40.3733 6.78666 40.3933 6.6 40.42V45.56ZM6.6 52.58C6.86666 52.6867 7.39333 52.74 8.18 52.74C9.16666 52.74 9.88 52.48 10.32 51.96C10.7733 51.44 11 50.6867 11 49.7C11 48.7667 10.7933 48.1 10.38 47.7C9.96666 47.3 9.31333 47.1 8.42 47.1C7.68666 47.1 7.08 47.1133 6.6 47.14V52.58Z" fill="#D5A353"/>
<path d="M22.4759 54.22C20.2359 54.22 18.5759 53.5467 17.4959 52.2C16.4159 50.84 15.8759 48.9733 15.8759 46.6C15.8759 45.0667 16.1559 43.7267 16.7159 42.58C17.2893 41.42 18.0893 40.5267 19.1159 39.9C20.1426 39.2733 21.3426 38.96 22.7159 38.96C25.0093 38.96 26.6959 39.6 27.7759 40.88C28.8693 42.1467 29.4159 43.96 29.4159 46.32C29.4159 47.88 29.1293 49.26 28.5559 50.46C27.9826 51.6467 27.1693 52.5733 26.1159 53.24C25.0759 53.8933 23.8626 54.22 22.4759 54.22ZM22.6559 40.28C21.6959 40.28 20.9493 40.8067 20.4159 41.86C19.8959 42.9133 19.6359 44.4867 19.6359 46.58C19.6359 48.7133 19.8959 50.3 20.4159 51.34C20.9359 52.3667 21.6759 52.88 22.6359 52.88C23.5826 52.88 24.3159 52.32 24.8359 51.2C25.3693 50.0667 25.6359 48.4467 25.6359 46.34C25.6359 44.2067 25.3826 42.6667 24.8759 41.72C24.3693 40.76 23.6293 40.28 22.6559 40.28Z" fill="#D5A353"/>
<path d="M30.6448 52.68L32.1848 52.48V40.8L30.7248 40.52V39.14H33.8048C34.0582 39.14 34.3315 39.1333 34.6248 39.12C34.9315 39.1067 35.1648 39.0933 35.3248 39.08C36.0448 39.0267 36.6582 39 37.1648 39C38.5915 39 39.7248 39.14 40.5648 39.42C41.4048 39.6867 42.0115 40.1133 42.3848 40.7C42.7715 41.2733 42.9648 42.0333 42.9648 42.98C42.9648 43.8867 42.7248 44.7333 42.2448 45.52C41.7648 46.3067 41.0582 46.8467 40.1248 47.14C40.7382 47.3667 41.2515 47.7933 41.6648 48.42C42.0915 49.0333 42.5315 49.82 42.9848 50.78C43.2515 51.34 43.4648 51.76 43.6248 52.04C43.7848 52.3067 43.9515 52.46 44.1248 52.5L44.7048 52.68V54H40.9048C40.7048 54 40.4982 53.7867 40.2848 53.36C40.0715 52.9333 39.7982 52.2667 39.4648 51.36C39.0515 50.2533 38.6915 49.4 38.3848 48.8C38.0915 48.1867 37.7648 47.8133 37.4048 47.68H35.6048V52.48L37.3848 52.68V54H30.6448V52.68ZM37.1448 46.38C37.8382 46.38 38.3782 46.1133 38.7648 45.58C39.1515 45.0333 39.3448 44.2133 39.3448 43.12C39.3448 42.16 39.1515 41.46 38.7648 41.02C38.3915 40.5667 37.7582 40.34 36.8648 40.34C36.3848 40.34 35.9648 40.3733 35.6048 40.44V46.32C35.7782 46.36 36.0648 46.38 36.4648 46.38C36.8648 46.38 37.0915 46.38 37.1448 46.38Z" fill="#D5A353"/>
<path d="M51.7337 54.22C49.4937 54.22 47.8337 53.5467 46.7537 52.2C45.6737 50.84 45.1337 48.9733 45.1337 46.6C45.1337 45.0667 45.4137 43.7267 45.9737 42.58C46.5471 41.42 47.3471 40.5267 48.3737 39.9C49.4004 39.2733 50.6004 38.96 51.9737 38.96C54.2671 38.96 55.9537 39.6 57.0337 40.88C58.1271 42.1467 58.6737 43.96 58.6737 46.32C58.6737 47.88 58.3871 49.26 57.8137 50.46C57.2404 51.6467 56.4271 52.5733 55.3737 53.24C54.3337 53.8933 53.1204 54.22 51.7337 54.22ZM51.9137 40.28C50.9537 40.28 50.2071 40.8067 49.6737 41.86C49.1537 42.9133 48.8937 44.4867 48.8937 46.58C48.8937 48.7133 49.1537 50.3 49.6737 51.34C50.1937 52.3667 50.9337 52.88 51.8937 52.88C52.8404 52.88 53.5737 52.32 54.0937 51.2C54.6271 50.0667 54.8937 48.4467 54.8937 46.34C54.8937 44.2067 54.6404 42.6667 54.1337 41.72C53.6271 40.76 52.8871 40.28 51.9137 40.28Z" fill="#D5A353"/>
<path d="M61.4427 40.82L59.9827 40.54V39.14H63.1027C63.5427 39.14 64.136 39.1133 64.8827 39.06C65.056 39.0467 65.316 39.0333 65.6627 39.02C66.0227 39.0067 66.3427 39 66.6227 39C69.0493 39 70.876 39.6067 72.1027 40.82C73.3293 42.0333 73.9426 43.7733 73.9426 46.04C73.9426 47.6 73.6426 48.9933 73.0426 50.22C72.4426 51.4467 71.5826 52.4133 70.4626 53.12C69.3426 53.8133 68.0226 54.16 66.5026 54.16C66.0893 54.16 65.4693 54.1333 64.6427 54.08C63.8693 54.0267 63.3693 54 63.1427 54H59.9027V52.68L61.4427 52.46V40.82ZM64.8226 52.52C65.2893 52.6667 65.8226 52.7267 66.4226 52.7C67.6226 52.6867 68.5493 52.18 69.2027 51.18C69.8693 50.1667 70.2027 48.62 70.2027 46.54C70.2027 44.62 69.876 43.12 69.2226 42.04C68.5826 40.9467 67.5693 40.4 66.1826 40.4C65.8626 40.4 65.576 40.42 65.3226 40.46C65.0693 40.5 64.9026 40.5267 64.8226 40.54V52.52Z" fill="#D5A353"/>
<path d="M79.7166 39.08H83.3166L87.7966 52.48L88.8966 52.68V54H82.5966V52.68L84.0166 52.48L83.3366 50.08H78.5566L77.8766 52.5L79.4366 52.68V54H74.1166L74.0966 52.68L75.2566 52.46L79.7166 39.08ZM81.1966 42.56L80.8966 41.16L80.5766 42.58L78.9566 48.54H82.9166L81.1966 42.56Z" fill="#D5A353"/>
<path d="M6.73486 0.575195L4.70898 5.14551C4.45996 5.70508 4.23145 6.11084 4.02344 6.36279C3.81543 6.61182 3.57373 6.79492 3.29834 6.91211C3.02588 7.0293 2.69482 7.08789 2.30518 7.08789C1.96533 7.08789 1.65039 7.04395 1.36035 6.95605V6.01123C1.64746 6.12549 1.94775 6.18262 2.26123 6.18262C2.52783 6.18262 2.75049 6.11816 2.9292 5.98926C3.11084 5.85742 3.2749 5.62158 3.42139 5.28174L1.05273 0.575195H2.18652L3.75537 3.79639C3.896 4.10107 3.98242 4.30469 4.01465 4.40723H4.05859C4.07617 4.33105 4.12012 4.20947 4.19043 4.04248L5.63623 0.575195H6.73486Z" fill="white"/>
<path d="M8.38721 2.13965V3.91504C8.38721 4.41309 8.64502 4.66211 9.16064 4.66211C9.40967 4.66211 9.65283 4.62842 9.89014 4.56104C10.1274 4.49072 10.3823 4.37939 10.6548 4.22705V2.13965H11.6875V7H10.6548V4.93896C10.3706 5.11475 10.0952 5.24512 9.82861 5.33008C9.56494 5.41211 9.27637 5.45312 8.96289 5.45312C8.45605 5.45312 8.06055 5.32275 7.77637 5.06201C7.49219 4.79834 7.3501 4.43066 7.3501 3.95898V2.13965H8.38721Z" fill="white"/>
<path d="M15.2866 7.08789C14.5308 7.08789 13.939 6.86816 13.5112 6.42871C13.0864 5.98633 12.874 5.37842 12.874 4.60498C12.874 3.81104 13.0718 3.18701 13.4673 2.73291C13.8628 2.27881 14.4062 2.05176 15.0977 2.05176C15.7393 2.05176 16.2461 2.24658 16.6182 2.63623C16.9902 3.02588 17.1763 3.56201 17.1763 4.24463V4.80273H13.9375C13.9521 5.27441 14.0796 5.6377 14.3198 5.89258C14.5601 6.14453 14.8984 6.27051 15.335 6.27051C15.6221 6.27051 15.8887 6.24414 16.1348 6.19141C16.3838 6.13574 16.6504 6.04492 16.9346 5.91895V6.7583C16.6826 6.87842 16.4277 6.96338 16.1699 7.01318C15.9121 7.06299 15.6177 7.08789 15.2866 7.08789ZM15.0977 2.83398C14.7695 2.83398 14.5059 2.93799 14.3066 3.146C14.1104 3.354 13.9932 3.65723 13.9551 4.05566H16.1611C16.1553 3.6543 16.0586 3.35107 15.8711 3.146C15.6836 2.93799 15.4258 2.83398 15.0977 2.83398Z" fill="white"/>
<path d="M18.0684 4.08203C18.0684 2.99805 18.2515 2.16455 18.6177 1.58154C18.9868 0.998535 19.5728 0.623535 20.3755 0.456543C20.9819 0.333496 21.6807 0.213379 22.4717 0.0961914L22.6167 1.00586C21.6558 1.15234 20.9526 1.2666 20.5073 1.34863C20.0474 1.43359 19.7148 1.62256 19.5098 1.91553C19.3076 2.2085 19.1904 2.64941 19.1582 3.23828H19.2241C19.3911 2.99512 19.6094 2.80762 19.8789 2.67578C20.1484 2.54102 20.437 2.47363 20.7446 2.47363C21.3423 2.47363 21.8081 2.6626 22.1421 3.04053C22.4761 3.41846 22.6431 3.94873 22.6431 4.63135C22.6431 5.41357 22.4395 6.01855 22.0322 6.44629C21.6279 6.87402 21.0669 7.08789 20.3491 7.08789C19.6372 7.08789 19.0791 6.82422 18.6748 6.29688C18.2705 5.76953 18.0684 5.03125 18.0684 4.08203ZM20.4194 6.24414C21.187 6.24414 21.5708 5.74023 21.5708 4.73242C21.5708 3.75977 21.2236 3.27344 20.5293 3.27344C20.3389 3.27344 20.1543 3.31445 19.9756 3.39648C19.7969 3.47852 19.6313 3.58691 19.479 3.72168C19.3296 3.85645 19.2139 3.99561 19.1318 4.13916C19.1318 4.83057 19.2417 5.35498 19.4614 5.7124C19.6812 6.06689 20.0005 6.24414 20.4194 6.24414Z" fill="white"/>
<path d="M24.8667 2.13965V4.09082H27.1562V2.13965H28.189V7H27.1562V4.90381H24.8667V7H23.834V2.13965H24.8667Z" fill="white"/>
<path d="M30.7026 4.08203H31.687C32.3667 4.08203 32.8691 4.19922 33.1943 4.43359C33.5195 4.66797 33.6821 5.01953 33.6821 5.48828C33.6821 5.98926 33.5122 6.36719 33.1724 6.62207C32.8354 6.87402 32.3403 7 31.687 7H29.6699V2.13965H30.7026V4.08203ZM32.6582 5.51465C32.6582 5.27148 32.5674 5.10156 32.3857 5.00488C32.207 4.9082 31.9492 4.85986 31.6123 4.85986H30.7026V6.23535H31.4805C31.8965 6.23535 32.1968 6.17676 32.3813 6.05957C32.5659 5.94238 32.6582 5.76074 32.6582 5.51465ZM35.4839 7H34.4468V2.13965H35.4839V7Z" fill="white"/>
<path d="M37.9536 2.13965V4.63135C37.9536 4.92139 37.9302 5.34766 37.8833 5.91016L40.3223 2.13965H41.5835V7H40.5903V4.55225C40.5903 4.41748 40.5977 4.19922 40.6123 3.89746C40.6299 3.5957 40.6445 3.37598 40.6562 3.23828L38.2261 7H36.9648V2.13965H37.9536ZM39.2412 1.54639C38.6201 1.54639 38.1646 1.43506 37.8745 1.2124C37.5874 0.986816 37.4277 0.611816 37.3955 0.0874023H38.3315C38.3491 0.29834 38.3887 0.462402 38.4502 0.57959C38.5146 0.696777 38.6055 0.781738 38.7227 0.834473C38.8428 0.884277 39.0244 0.90918 39.2676 0.90918C39.5547 0.90918 39.7729 0.846191 39.9224 0.720215C40.0718 0.591309 40.1626 0.380371 40.1948 0.0874023H41.1484C41.1045 0.591309 40.9272 0.960449 40.6167 1.19482C40.3062 1.4292 39.8477 1.54639 39.2412 1.54639Z" fill="white"/>
<path d="M49.7222 6.2002H50.4253V8.70947H49.4541V7H45.3936V2.13965H46.4263V6.18262H48.6895V2.13965H49.7222V6.2002Z" fill="white"/>
<path d="M53.4312 7.08789C52.6753 7.08789 52.0835 6.86816 51.6558 6.42871C51.231 5.98633 51.0186 5.37842 51.0186 4.60498C51.0186 3.81104 51.2163 3.18701 51.6118 2.73291C52.0073 2.27881 52.5508 2.05176 53.2422 2.05176C53.8838 2.05176 54.3906 2.24658 54.7627 2.63623C55.1348 3.02588 55.3208 3.56201 55.3208 4.24463V4.80273H52.082C52.0967 5.27441 52.2241 5.6377 52.4644 5.89258C52.7046 6.14453 53.043 6.27051 53.4795 6.27051C53.7666 6.27051 54.0332 6.24414 54.2793 6.19141C54.5283 6.13574 54.7949 6.04492 55.0791 5.91895V6.7583C54.8271 6.87842 54.5723 6.96338 54.3145 7.01318C54.0566 7.06299 53.7622 7.08789 53.4312 7.08789ZM53.2422 2.83398C52.9141 2.83398 52.6504 2.93799 52.4512 3.146C52.2549 3.354 52.1377 3.65723 52.0996 4.05566H54.3057C54.2998 3.6543 54.2031 3.35107 54.0156 3.146C53.8281 2.93799 53.5703 2.83398 53.2422 2.83398Z" fill="white"/>
<path d="M57.5269 2.13965V4.09082H59.8164V2.13965H60.8491V7H59.8164V4.90381H57.5269V7H56.4941V2.13965H57.5269Z" fill="white"/>
<path d="M65.9819 2.13965V2.94824H64.3999V7H63.3628V2.94824H61.7808V2.13965H65.9819Z" fill="white"/>
<path d="M69.3833 7.08789C68.7681 7.08789 68.2905 6.8667 67.9507 6.42432H67.8892C67.9302 6.83447 67.9507 7.0835 67.9507 7.17139V9.16211H66.918V2.13965H67.7529C67.7764 2.23047 67.8247 2.44727 67.8979 2.79004H67.9507C68.2729 2.29785 68.7563 2.05176 69.4009 2.05176C70.0073 2.05176 70.479 2.27148 70.8159 2.71094C71.1558 3.15039 71.3257 3.76709 71.3257 4.56104C71.3257 5.35498 71.1528 5.97461 70.8071 6.41992C70.4644 6.86523 69.9897 7.08789 69.3833 7.08789ZM69.1328 2.89551C68.7227 2.89551 68.4224 3.01562 68.2319 3.25586C68.0444 3.49609 67.9507 3.87988 67.9507 4.40723V4.56104C67.9507 5.15283 68.0444 5.58203 68.2319 5.84863C68.4194 6.1123 68.7256 6.24414 69.1504 6.24414C69.5078 6.24414 69.7832 6.09766 69.9766 5.80469C70.1699 5.51172 70.2666 5.09424 70.2666 4.55225C70.2666 4.00732 70.1699 3.5957 69.9766 3.31738C69.7861 3.03613 69.5049 2.89551 69.1328 2.89551Z" fill="white"/>
</svg>
